<svg xmlns="http://www.w3.org/2000/svg" width="10.096" height="13.167" viewBox="0 0 10.096 13.167">
  <g id="icon-tel" transform="translate(12.288 -25)">
    <path id="パス_206" data-name="パス 206" d="M60.615.557c-.9.587-1.082,2.421-.741,3.916a13.5,13.5,0,0,0,1.785,4.2,14.023,14.023,0,0,0,3.1,3.341c1.226.921,2.973,1.507,3.877.92a4.582,4.582,0,0,0,1.168-1.253l-.486-.749L67.985,8.868c-.1-.153-.722-.013-1.039.166a3.013,3.013,0,0,0-.82.891c-.293.169-.538,0-1.05-.235a6.237,6.237,0,0,1-1.9-2,6.236,6.236,0,0,1-1.055-2.553c-.006-.564-.06-.856.214-1.055a3.013,3.013,0,0,0,1.148-.385c.293-.216.674-.727.575-.881L62.721.751,62.235,0A4.582,4.582,0,0,0,60.615.557Z" transform="translate(-72 25)" fill="#fff"/>
  </g>
</svg>
