<svg xmlns="http://www.w3.org/2000/svg" width="175.633" height="28.817" viewBox="0 0 175.633 28.817">
  <g id="logo" transform="translate(0 -1)">
    <path id="パス_4095" data-name="パス 4095" d="M-169.12-6.458c.5,0,.533.276.533.57,0,.57.018.974.552.974a.924.924,0,0,0,.7-.3.924.924,0,0,0,.235-.728c0-.386-.018-2.353-.018-2.795,0-.754-.037-4.431-.037-5.258a11.459,11.459,0,0,1,.11-2.022c.018-.055.313-.349.313-.423,0-.4-1.691-.791-1.783-.791-.11,0-.147.055-.147.165,0,.129.074.772.074.9.018.221.055,2.335.055,3.916,0,.643-.037,3.861-.037,4.578,0,.441-.037.735-.552.735h-3.751c-.4,0-.552-.165-.552-.643,0-3.107,0-7.483.055-10.884a2.137,2.137,0,0,1,.092-.791c.037-.092.386-.515.386-.625,0-.239-.239-.276-.625-.349-.2-.037-1.03-.2-1.158-.2s-.165.037-.165.147c0,.129.092.772.092.919,0,.165.037,2.243.037,3.879,0,2.39-.092,8.071-.11,8.181a.441.441,0,0,1-.18.293.441.441,0,0,1-.335.075h-3.714c-.478,0-.533-.276-.533-.643,0-.974.018-5.754.018-6.839a3.871,3.871,0,0,1,.147-1.4c.276-.294.331-.349.331-.478,0-.386-1.82-.735-1.875-.735-.147,0-.165.037-.165.165,0,.092.037.5.055.588a19.692,19.692,0,0,1,.11,2.445c0,1.213-.092,7.1-.092,8.42,0,.533.129.735.607.735.864,0,.864-.588.864-1.121,0-.313,0-.662.533-.662Zm19.764.074c.2,0,.423,0,.423.331,0,.349,0,.625.515.625a.915.915,0,0,0,.7-.273.915.915,0,0,0,.26-.7c0-.2-.092-1.1-.092-1.287-.055-1.048-.037-3.034-.037-3.493v-3.659c0-.423-.055-2.556-.055-2.629a1.9,1.9,0,0,1,.184-1.066,3.463,3.463,0,0,0,.386-.57c0-.386-1.011-1.048-1.305-1.048-.184,0-.276.129-.588.515-.2.239-.294.239-1.121.239h-9.174a1.961,1.961,0,0,1-.919-.165,5.481,5.481,0,0,0-1.452-.441c-.092,0-.11.092-.11.147,0,.147.165.735.184.864.11.717.11,3.383.11,4.357,0,2.3-.037,5.2-.129,7.336-.018.276-.092,1.471-.092,1.728,0,.441.037.882.57.882.919,0,.938-.809.956-1.287.018-.4.257-.4.478-.4Zm-6.38-6.6c.129,0,.478.018.515.349V-7.45c0,.57-.276.57-.588.57h-3.842c-.221,0-.46,0-.515-.515-.018-.165-.018-3.2-.018-3.824,0-1.71,0-1.765.552-1.765Zm2.39-.478c-.349,0-.533-.11-.533-.533,0-1.066.018-3.456.055-4.431.018-.349.129-.478.552-.478h3.732c.533,0,.552.313.552.607,0,.092.055,3.787.055,4.247,0,.294-.018.588-.5.588Zm-6.288,0c-.515,0-.552-.276-.552-.552,0-.643.037-3.456.037-4.045,0-.643,0-.846.607-.846h3.787c.533,0,.57.221.57.625,0,.643-.037,3.493-.018,4.081,0,.423.018.735-.533.735Zm10.222.478a.459.459,0,0,1,.46.239c.055.147.055,3.346.055,3.806,0,2-.018,2.059-.533,2.059h-3.879c-.4,0-.643-.018-.643-.643,0-.276.055-5.037.092-5.148.074-.313.386-.313.515-.313Zm17.135,1.232c-.478,0-.478-.184-.478-1.452a.424.424,0,0,1,.156-.3.424.424,0,0,1,.322-.09h1.324c.331,0,.4,0,.515.165.147.2.221.313.515.313a.735.735,0,0,0,.735-.588c.037-.165.055-1.121.055-1.691,0-.4,0-.607.57-.607h.643c.662,0,.993,0,.993-.276a2.553,2.553,0,0,0-1.158-1.085c-.165,0-.294.184-.368.331-.184.386-.257.515-.46.515-.221,0-.221-.147-.221-.46,0-.552,0-.625.092-.717.074-.074.5-.386.5-.5a3.107,3.107,0,0,0-1.2-1.03c-.129,0-.257.11-.441.313-.294.331-.331.368-.607.368h-1.452c-.46,0-.515-.184-.515-.478a6.5,6.5,0,0,1,.037-.662c.037-.11.533-.423.533-.552,0-.165-.294-.276-.478-.331a12.769,12.769,0,0,0-1.544-.313c-.018,0-.074,0-.074.037a5.4,5.4,0,0,0,.221.515,5.41,5.41,0,0,1,.129.993c0,.607,0,.791-.5.791-.717,0-.938,0-2.169-.055-.184,0-1.085-.074-1.158-.074-.037,0-.074,0-.074.037s.018.037.092.129l.349.423c.074.074.092.11.165.11.055,0,.331-.037.386-.037.5-.037,1.452-.055,2.206-.055.423,0,.735,0,.735.46,0,.974,0,1.1-.57,1.1h-1.03c-.864,0-1.673-.018-2.519-.055-.11,0-.68-.074-.809-.074-.055,0-.074.018-.074.055,0,.018,0,.037.074.11l.368.423c.055.074.092.129.147.129a3.052,3.052,0,0,0,.4-.055c.643-.037,1.894-.037,2.316-.037h1.1c.2,0,.57,0,.57.4,0,1.342,0,1.508-.46,1.508-.349,0-1.949-.129-2.151-.129a.049.049,0,0,0-.041.014.048.048,0,0,0-.014.041c0,.018,0,.037.074.11l.349.423c.074.092.11.129.165.129.147,0,1.36-.092,1.581-.092.46,0,.46.349.46.5,0,1.2,0,1.324-.552,1.324-.349,0-2.041-.11-2.427-.11-.037,0-.055,0-.055.037s.018.074.074.129l.349.423c.074.074.11.11.165.11a1.242,1.242,0,0,0,.257-.037c.331-.018,1.213-.055,1.581-.055.294,0,.588.037.588.46,0,1.121,0,1.25-.5,1.25-.791,0-.974,0-2.28-.055-.184,0-1.085-.074-1.158-.074a.049.049,0,0,0-.041.014.049.049,0,0,0-.014.041c0,.018,0,.037.074.11l.349.423c.074.074.11.129.165.129a2.789,2.789,0,0,0,.386-.055c.643-.037,1.912-.037,2.335-.037.349,0,.662,0,.662.515,0,.165-.074.974-.074,1.158,0,.092,0,.552.441.552.2,0,.864-.092.938-.662v-.919c0-.349.018-.643.533-.643h4.486c.607,0,.974,0,.974-.257a4.931,4.931,0,0,0-1.508-1.2c-.2,0-.239.055-.7.643-.239.313-.331.313-1.177.313h-2.206a.418.418,0,0,1-.368-.2,5.123,5.123,0,0,1-.074-1.1.388.388,0,0,1,.125-.306.388.388,0,0,1,.316-.1h2.978c.588,0,.974,0,.974-.239,0-.313-1.066-1.1-1.269-1.1-.147,0-.662.717-.827.791a2.25,2.25,0,0,1-.882.074Zm1.361-6.306c.588,0,.588.147.588,1.066,0,.5-.331.5-.588.5H-132.2c-.588,0-.588-.147-.588-.956,0-.533.184-.607.588-.607Zm.037,2.059c.552,0,.552.331.552.791,0,.882,0,1.121-.552,1.121h-1.379c-.533,0-.533-.221-.533-1.14,0-.441,0-.772.533-.772Zm-9.192,2c-.276,0-.478,0-.478-.331,0-.129.772-3.015.956-3.7.165-.625.184-.68.46-.827.349-.184.386-.2.386-.349,0-.257-.938-1.1-1.14-1.1-.147,0-.184.055-.5.515-.165.239-.239.276-.5.276-.4,0-2.206-.11-2.555-.11-.037,0-.074,0-.074.037,0,.018.018.037.074.129l.368.423c.055.074.092.11.165.11s.423-.055.5-.055c.441-.018.882-.037,1.324-.037.165,0,.331.074.331.294,0,.11-.239,1.25-.809,3.328-.11.386-.791,2.482-.791,2.556,0,.221.239.368.5.368.533,0,.717-.349.938-.772.129-.257.257-.257.607-.257h1.434c.331,0,.46.037.46.294a17.174,17.174,0,0,1-1.03,3.475c-.276.643-.368.864-.57.864-.276,0-1.121-1.25-1.544-2.739-.074-.294-.11-.386-.221-.386-.074,0-.074.11-.074.165a8.25,8.25,0,0,0,.7,2.556,8.322,8.322,0,0,1,.7,1.324,9.308,9.308,0,0,1-2.188,2.813c-.129.129-.882.68-.882.791,0,.018,0,.037.018.037a7.256,7.256,0,0,0,3.254-2.408c.257-.313.368-.46.478-.46a9.59,9.59,0,0,1,1.03.754c1.048.7,2.353,1.563,9.432,1.563,1.305,0,1.452,0,1.6-.165a4.415,4.415,0,0,0,.221-.7,2.176,2.176,0,0,1,.7-.919c.276-.165.313-.184.313-.221,0-.055-.055-.055-.129-.055-.055,0-.588.129-.754.165a36.656,36.656,0,0,1-5.5.4c-1.232,0-3.861-.037-5.5-1.011-.239-.147-.846-.552-.846-.791a6,6,0,0,1,.331-.7,17.549,17.549,0,0,0,1.471-3.971.729.729,0,0,1,.294-.46c.313-.221.331-.257.331-.368,0-.349-.938-1.011-1.121-1.011-.11,0-.147.055-.588.46a.568.568,0,0,1-.533.2Zm25.555-.349c-.018.018,0,.074.037.129a4.958,4.958,0,0,1,.46,1.36c.037.331.074.68.478.68a.764.764,0,0,0,.7-.772c0-.68-.68-.993-1.085-1.2C-114-14.161-114.461-14.381-114.516-14.345Zm-7.538-.9c.055.074.092.11.165.11.165,0,1.232-.074,1.452-.074.515,0,.515.2.515,1.158,0,.864,0,.956-.184,1.085a7.685,7.685,0,0,1-1.636.184c-.184,0-1.1-.129-1.232-.129-.074,0-.129.018-.129.129,0,.129.441,1.563.754,1.563a5.148,5.148,0,0,0,.588-.368c.349-.165,4.817-1.36,4.817-1.691,0-.037-.055-.037-.11-.037-.2,0-1.14.165-1.232.165-.4,0-.441-.276-.441-.7,0-1.232,0-1.379.607-1.379h.809c.625,0,.974,0,.974-.257,0-.165-.5-.772-.791-.772-.129,0-.221.092-.349.239-.257.313-.349.313-1.177.313h-.441c-.864,0-1.618-.037-2.519-.074-.11,0-.68-.055-.809-.055-.037,0-.074,0-.074.037s.018.037.092.129Zm4.137,5.681c.2,0,.441,0,.441.2,0,.184-.221.4-.478.643a23.294,23.294,0,0,1-5.828,3.879c-.092.055-.129.11-.129.129,0,.037.055.037.074.037a11.057,11.057,0,0,0,2.243-.588A16.887,16.887,0,0,0-117.2-7.947a4.2,4.2,0,0,1,.791-.552c.184,0,.184.349.184.4,0,1.121,0,1.655-.018,1.912,0,.2-.092,1.2-.092,1.416a.5.5,0,0,0,.11.41.5.5,0,0,0,.386.178c.165,0,.846-.147.846-.7,0-.129-.074-.754-.074-.9-.055-.864-.055-1.121-.055-3.052,0-.055,0-.147.092-.147.11,0,.147.055.533.57a10.864,10.864,0,0,0,5.387,3.842.351.351,0,0,0,.221-.129,3.945,3.945,0,0,1,1.011-.974c.074-.037.552-.239.552-.331,0-.055-1.36-.184-1.618-.239-3.052-.57-5.828-2.886-5.828-3.217,0-.11.129-.11.239-.11h6.324c.607,0,.974,0,.974-.257a3.627,3.627,0,0,0-1.4-1.213c-.184,0-.772.735-.938.864-.147.129-.221.129-.993.129h-3.953c-.239,0-.57,0-.57-.423a.708.708,0,0,1,.184-.515c.165-.165.2-.2.2-.313,0-.184-.552-.386-.864-.478-.552-.184-.607-.184-.607-.331,0-.055.037-.092.331-.4a3.808,3.808,0,0,0,1.066-2.169c.11-.846.129-.864.607-.864h1.305c.2,0,.5.018.552.313a19.51,19.51,0,0,1,.037,1.986c0,.735,0,1.471,2.482,1.471,1.379,0,2.225-.4,2.225-.846,0-.092-.018-.11-.165-.368a2.447,2.447,0,0,1-.239-1.14c-.055-.515-.055-.57-.092-.57s-.092.184-.147.313c-.4,1.232-.625,1.6-1.783,1.6A2.455,2.455,0,0,1-111.1-13c-.147-.11-.147-.717-.147-.993,0-.827.018-1.011.018-1.1.018-.074.129-.147.184-.184.092-.055.313-.2.313-.349,0-.276-1.121-.846-1.195-.846s-.331.349-.4.386a1.03,1.03,0,0,1-.386.055h-1.452a1.166,1.166,0,0,1-.625-.147c-.7-.4-.735-.441-.9-.441-.11,0-.11.11-.11.184,0,.129.055.717.055.846a4.541,4.541,0,0,1-2.3,4.21,4.028,4.028,0,0,0-.607.46.059.059,0,0,0,.055.055,5.064,5.064,0,0,0,.956-.368c.165-.074.974-.57,1.066-.57.331,0,.331.974.331,1.25,0,.441-.2.515-.533.515H-120.4c-.864,0-1.618-.037-2.519-.074-.11,0-.68-.055-.809-.055-.037,0-.055.018-.055.037,0,.037,0,.037.074.129l.349.423c.074.074.092.11.165.11.055,0,.331-.037.386-.037.478-.037.956-.055,2.335-.055Zm.993-9.009c.882,0,.974,0,.974-.221a1.948,1.948,0,0,0-.938-1.011c-.147,0-.4.257-.478.349-.331.4-.423.4-1.158.4h-1.158c-.184,0-.386,0-.386-.165,0-.221.441-.68.57-.735.349-.184.4-.2.4-.331,0-.184-.147-.239-.515-.368-.055-.018-1.121-.349-1.213-.349s-.276.846-.331,1.011a15.777,15.777,0,0,1-2.519,3.861c-.092.129-.129.165-.129.2a8.514,8.514,0,0,0,2.666-2.151,1.138,1.138,0,0,1,1.121-.5c.313,0,.882,0,.882,1.489,0,.57,0,.846.441.846a.833.833,0,0,0,.791-.846,1.332,1.332,0,0,0-.478-.9c-.221-.239-.331-.349-.331-.441,0-.147.221-.147.386-.147Zm8.089-.055c.882,0,.993,0,.993-.221,0-.257-1.03-1.213-1.232-1.213-.147,0-.57.643-.662.754-.165.184-.313.2-.993.2h-2.739c-.165,0-.331,0-.331-.165a1.319,1.319,0,0,1,.386-.588c.331-.239.423-.313.423-.423,0-.294-1.434-.607-1.508-.607-.184,0-.2.037-.239.515a7.851,7.851,0,0,1-1.213,2.868c-.092.147-.662.938-.662.993,0,.11.607-.294,1.765-1.581.331-.368.46-.533.974-.533h.7c.552,0,.735.092,1.177,1.232.349.9.386.993.754.993a.662.662,0,0,0,.475-.2.662.662,0,0,0,.187-.48,1.243,1.243,0,0,0-.735-1.048c-.184-.11-.478-.257-.478-.368,0-.129.2-.129.386-.129ZM-97.014-18c.368,0,.368.313.368.515,0,.974,0,1.066-.4,1.066h-1.986a1.869,1.869,0,0,1-.735-.11,8.114,8.114,0,0,0-1.434-.735c-.11,0-.129.074-.129.165a4.376,4.376,0,0,0,.092.478c.037.368.037,1.563.037,1.618,0,.239-.055,1.4-.055,1.655,0,.239.055.478.478.478a.82.82,0,0,0,.846-.57c.074-.276.092-.349.441-.349h2.427c.386,0,.386.294.386.5,0,.791,0,.993-.4.993h-2.445c-.864,0-1.618,0-2.519-.055-.129,0-.68-.074-.809-.074-.055,0-.074.018-.074.055,0,.018.018.037.074.11l.368.441c.055.074.092.11.165.11.055,0,.313-.055.386-.055.165-.018.7-.037,2.317-.037h2.537c.386,0,.386.294.386.7,0,.515,0,.754-.4.754h-3.99c-.864,0-1.618-.018-2.519-.055-.11,0-.68-.074-.809-.074-.037,0-.074.018-.074.055,0,.018.018.037.092.11l.349.423c.055.074.11.129.184.129.055,0,.313-.055.368-.055.184-.018.717-.037,2.317-.037h4.081c.386,0,.386.294.386.57,0,.846,0,1.048-.441,1.048h-1.875c-.864,0-1.618-.037-2.519-.074-.129,0-.7-.055-.827-.055-.037,0-.055.018-.055.037,0,.037,0,.037.074.129l.368.423c.055.074.092.11.147.11s.331-.037.4-.037c.165-.018,1.011-.055,2.317-.055h1.967a.378.378,0,0,1,.324.113.378.378,0,0,1,.1.328c0,1.434,0,1.489-1.011,1.489-.221,0-1.305-.147-1.544-.147-.037,0-.239,0-.239.092,0,.165.386.294.588.349,1.121.368,1.4.791,1.526,1.085.092.2.11.257.239.257a4.364,4.364,0,0,0,.919-.221A1.31,1.31,0,0,0-95.4-5.869c0-.184-.037-1.085-.037-1.287,0-.349,0-.607.441-.607h2.85c.221,0,.368.074.4.423.074.588.092.791.533.791a.882.882,0,0,0,.693-.249.882.882,0,0,0,.263-.688c0-.2-.055-1.526-.055-1.82,0-.239,0-.552.386-.552h1.4c.478,0,.809,0,.809-.221,0-.349-1.232-1.14-1.416-1.14-.147,0-.184.074-.57.588a.668.668,0,0,1-.4.239c-.2,0-.2-.165-.2-.276,0-.643,0-.717.11-.827.331-.368.349-.4.349-.5,0-.239-1.011-.919-1.177-.919-.2,0-.331.129-.552.349a.908.908,0,0,1-.772.257h-2.721c-.4,0-.4-.257-.4-.717,0-.5,0-.772.4-.772h2.353a.326.326,0,0,1,.349.239c.11.386.147.533.625.533a.743.743,0,0,0,.791-.662v-1.747a.368.368,0,0,1,.165-.349c.239-.221.331-.294.331-.423,0-.239-1.03-.919-1.158-.919-.165,0-.276.129-.57.441a.588.588,0,0,1-.57.257h-2.3c-.386,0-.4-.276-.4-.46.018-1.011.018-1.121.46-1.121h5.9c.625,0,.993,0,.993-.257,0-.239-1.618-1.213-1.728-1.213-.165,0-.221.074-.735.68-.276.313-.349.313-1.177.313h-3.254a.368.368,0,0,1-.307-.111.368.368,0,0,1-.1-.312,2.326,2.326,0,0,1,.055-.515c.037-.11.423-.57.423-.7,0-.386-1.544-.809-1.728-.809-.074,0-.165.037-.165.239,0,.221.165,1.4.165,1.673,0,.2,0,.533-.386.533h-3.585c-.864,0-1.618-.037-2.519-.074-.129,0-.68-.055-.809-.055-.055,0-.074,0-.074.037s.018.037.074.129l.368.423c.055.074.092.11.165.11.055,0,.313-.037.386-.037.349-.018.919-.055,2.317-.055ZM-99.5-14.271c-.46,0-.46-.184-.46-.827s0-.827.441-.827h2.427c.4,0,.4.276.4.809,0,.57,0,.846-.4.846Zm6.839-1.655c.4,0,.4.294.4.68,0,.754,0,.974-.441.974h-2.353c-.423,0-.423-.221-.423-.993,0-.349,0-.662.423-.662Zm-2.408,5.571c-.4,0-.4-.221-.4-.864,0-.276,0-.588.4-.588h3.07c.4,0,.4.313.4.588,0,.643-.074.864-.441.864Zm3.034.5c.4,0,.4.294.4.607,0,.864-.074,1.011-.5,1.011H-95.01c-.441,0-.441-.11-.441-1.1,0-.221,0-.515.4-.515Zm17.778-8.328c-.129,0-.349,0-.349-.184a4.68,4.68,0,0,1,1.121-1.4c.349-.221.386-.239.386-.386,0-.11-.074-.165-.276-.257a15.236,15.236,0,0,0-1.526-.57c-.055,0-.129.018-.129.092a3.116,3.116,0,0,0,.018.4,11.292,11.292,0,0,1-2.041,4.118c-.074.11-.552.57-.552.717a.083.083,0,0,0,.018.061.083.083,0,0,0,.056.031c.441,0,1.8-1.691,2.078-1.691.129,0,.184.074.257.165.276.368.643,1.011.919,1.4a3.186,3.186,0,0,1,.46.754c0,.423-1.544,1.452-2.078,1.765-.331.2-2.059.974-2.059,1.085,0,.037.074.055.11.055a9.818,9.818,0,0,0,4.173-1.857c.313-.239.368-.294.515-.294a.6.6,0,0,1,.386.221,15.344,15.344,0,0,0,3.273,2.077c.074,0,.11-.055.147-.129a1,1,0,0,1,.4-.57,6.372,6.372,0,0,0,.9-.5c0-.037-.055-.037-.5-.129-1.655-.349-3.751-1.324-3.751-1.691a.31.31,0,0,1,.11-.2c.074-.11.515-.588.607-.68.717-.809.809-.9,1.269-1.085.11-.037.257-.11.257-.276,0-.11-.074-.184-.2-.294-.092-.055-.11-.074-.11-.129,0-.129.074-.129.331-.129h.772c.515,0,.754,0,.754-.221,0-.276-1.177-1.232-1.452-1.232-.147,0-.184.055-.552.662-.184.294-.276.294-1.085.294Zm1.949.5c.147,0,.4,0,.4.294a3.434,3.434,0,0,1-1.324,1.857c-.423,0-1.71-1.691-1.71-1.949,0-.2.165-.2.46-.2Zm-8.806-2.022c-1.03,0-1.986-.037-2.519-.074-.129,0-.7-.055-.809-.055-.018,0-.055,0-.055.037a.234.234,0,0,0,.074.129l.349.423c.074.074.11.129.165.129.037,0,.478-.055.533-.055.735-.037,1.655-.055,2.169-.055h1.765c.239,0,.46.018.46.2a11.826,11.826,0,0,1-1.066,1.691c-.239.349-.349.46-.552.46a19.494,19.494,0,0,0-1.912-.717c-.037,0-.147,0-.147.074,0,.037.368.386.423.46a5.65,5.65,0,0,1,1.2,1.8c.092.221.257.588.68.588.055,0,.662,0,.662-.754a1.455,1.455,0,0,0-.349-.974.326.326,0,0,1-.074-.184c0-.147.129-.257.368-.441,2.151-1.747,2.169-1.747,2.445-1.8.643-.129.717-.129.717-.313,0-.368-1.416-1.305-1.563-1.305s-.2.129-.349.423c-.147.276-.221.313-1.011.313Zm4.045,9.707c.074.074.11.129.165.129.037,0,.46-.055.533-.055.552-.037,1.14-.037,1.691-.037.165,0,.331.018.331.239a8.412,8.412,0,0,1-2.831,4.284c-.294.221-.809.515-1.1.735a.205.205,0,0,0-.11.147c0,.055.055.055.11.055A6.8,6.8,0,0,0-73.886-8a13.441,13.441,0,0,1,.919-1.857.571.571,0,0,1,.423-.11h1.269c.147,0,.5,0,.5.46a15.389,15.389,0,0,1-.368,2.868c-.239,1.011-.7,1.011-.974,1.011a4.755,4.755,0,0,1-.993-.147,3.167,3.167,0,0,0-.386-.129c-.037,0-.11,0-.11.074,0,.055.625.846.735,1.011.037.074.184.368.221.423a.409.409,0,0,0,.4.2A2.18,2.18,0,0,0-70.227-5.7a15.739,15.739,0,0,0,.588-3.217c.055-.515.129-.625.294-.809.2-.2.257-.257.257-.4,0-.257-1.03-.938-1.177-.938-.129,0-.165.055-.386.386-.147.221-.257.221-1.121.221H-72.4c-.294,0-.423-.055-.423-.276a5.664,5.664,0,0,1,.239-.974c.037-.092.349-.441.349-.533,0-.294-1.71-.68-1.728-.68a.167.167,0,0,0-.129.042.167.167,0,0,0-.055.123,3.017,3.017,0,0,0,.147.441.974.974,0,0,1,.074.423,7.832,7.832,0,0,1-.11.919c-.074.368-.074.515-.46.515-.57,0-2.169-.055-2.28-.074-.092,0-.57-.055-.662-.055a.059.059,0,0,0-.055.055c0,.018,0,.037.074.11Zm-1.857-4.045c.441,0,.552,0,.552.2,0,.257-.478,1.287-.478,1.452,0,.018,0,.092.074.092.092,0,.313-.221.368-.294.809-.882,1.121-.919,1.434-.938.5-.018.809-.037.809-.46,0-.276-.147-.349-.625-.662a12.214,12.214,0,0,0-1.1-.625c-.092,0-.11.037-.368.386-.239.313-.257.349-.515.349h-2.9c-.938,0-2.225-.055-2.408-.055-.129-.018-.7-.074-.827-.074a.059.059,0,0,0-.055.055c0,.018.037.055.074.11l.349.423c.074.074.11.129.165.129s.7-.074.791-.074c.717-.018,1.324-.018,2.225-.018.165,0,.331.092.331.257a17.13,17.13,0,0,1-2.445,4.468c-.239.313-1.508,1.894-1.508,1.93,0,.092.11.147.165.147a10.564,10.564,0,0,0,2.353-2.077c.68-.791,1.14-1.416,1.25-1.563.037-.055.129-.147.2-.147.129,0,.129.239.129.4,0,1.121,0,2.721.018,3.824,0,1.1-.018,1.269-1.213,1.269-.129,0-.717-.055-.827-.055-.055,0-.221,0-.221.092,0,.074.239.147.441.221.772.294.9.5.974.68.11.239.147.313.313.313,1.6,0,1.6-1.544,1.6-2s-.018-5.258-.018-6.177c0-1.508,0-1.581.57-1.581ZM-60.575-11.4c.515,0,.515.331.515.588,0,.386.037.57.478.57.147,0,1.1-.018,1.1-1.25,0-.515-.037-3.052-.037-3.64,0-.5,0-.552.074-.643.294-.349.313-.386.313-.533,0-.294-.993-1.14-1.342-1.14-.257,0-.294.055-.68.588a.479.479,0,0,1-.478.221h-1.526a1.583,1.583,0,0,1-.938-.294c-.165-.092-.974-.552-1.048-.552-.055,0-.055.055-.055.092,0,.092.074.5.092.588a20.318,20.318,0,0,1,.184,3.144,19.906,19.906,0,0,1-1.342,8.181c-.074.165-.478.974-.478,1.048,0,.055.055.055.074.055.11,0,.239-.11.57-.478a11.057,11.057,0,0,0,2.225-5.663c.11-.735.129-.882.515-.882Zm-1.6-.478c-.515,0-.515-.386-.515-.552,0-.331.074-2.445.074-2.9.018-.57.018-.809.552-.809h1.618c.2,0,.478.074.515.313.055.257.055,2.629.055,3.034,0,.68,0,.919-.57.919Zm.331-7.814c-.607,0-1.508-.037-2.133-.074-.129,0-.7-.055-.827-.055-.018,0-.074,0-.074.037,0,.018.018.037.074.11l.368.423c.074.092.11.129.184.129.11,0,.643-.055.754-.055.515-.018,1.085-.037,1.6-.037h3.2c.588,0,.956-.018.956-.165a8.188,8.188,0,0,0-1.691-1.287c-.165,0-.625.735-.735.864-.074.074-.184.11-.956.11Zm12.208,5.607c.625,0,.993,0,.993-.257A6.149,6.149,0,0,0-50.5-15.815c-.165,0-.221.092-.735.938-.2.313-.4.313-1.177.313H-55c-.349,0-.349-.221-.349-.515,0-.276-.018-1.655-.018-1.949,0-.2,0-1.158.037-1.25s.092-.11.239-.147c.735-.165,4.265-1.14,4.559-1.2.533-.11.607-.129.607-.239,0-.092-.055-.129-.552-.368-.221-.11-1.416-.735-1.452-.735-.055,0-1.011.809-1.177.938a7.038,7.038,0,0,1-2.353,1.342c-.165,0-1.213-.386-1.416-.386-.055,0-.055.055-.055.129,0,.147.074.809.092.956.018.294.2,2.758.2,4.173,0,4.3-.68,6.416-2.519,8.475a1.26,1.26,0,0,0-.276.386c0,.037.037.055.074.055a4.437,4.437,0,0,0,1.489-1.14c1.489-1.563,2.261-3.089,2.5-7.483.018-.478.074-.57.423-.57h1.416a.506.506,0,0,1,.478.221c.074.147.074,3.236.074,3.567,0,1.269,0,2.758-.055,4.026-.018.257-.092,1.471-.092,1.636,0,.294.055.441.423.441.257,0,1.121-.165,1.121-1.011,0-.938-.055-5.534-.055-6.563a17.946,17.946,0,0,1,.074-2.077.465.465,0,0,1,.478-.239Z" transform="translate(224.276 22)" fill="#fff"/>
    <path id="パス_4096" data-name="パス 4096" d="M2.05-6.012v.123a1.008,1.008,0,0,0-.349.035.173.173,0,0,0-.116.181.368.368,0,0,0,.019.105.716.716,0,0,0,.088.166l.98,1.471.95-1.493a.666.666,0,0,0,.074-.155.368.368,0,0,0,.018-.09.185.185,0,0,0-.152-.188,1.2,1.2,0,0,0-.31-.032v-.123H4.7v.123a.674.674,0,0,0-.359.12,2.388,2.388,0,0,0-.552.637L2.81-3.64V-2.35q0,.385.124.48a1.145,1.145,0,0,0,.557.118v.12H1.469v-.12a.975.975,0,0,0,.557-.134.857.857,0,0,0,.108-.541V-3.579l-.866-1.27A7.722,7.722,0,0,0,.641-5.69a.638.638,0,0,0-.441-.2v-.123ZM6.58-3.423a2.959,2.959,0,0,0-.614.271A.8.8,0,0,0,5.5-2.5a.5.5,0,0,0,.194.433.471.471,0,0,0,.281.09.772.772,0,0,0,.409-.119.351.351,0,0,0,.2-.3ZM4.926-2.276a.921.921,0,0,1,.468-.782A7.07,7.07,0,0,1,6.58-3.584v-.275a1.132,1.132,0,0,0-.065-.459.461.461,0,0,0-.456-.216.628.628,0,0,0-.313.084.267.267,0,0,0-.147.239.877.877,0,0,0,.016.131.929.929,0,0,1,.016.118.268.268,0,0,1-.12.252.3.3,0,0,1-.162.042.271.271,0,0,1-.221-.1.327.327,0,0,1-.077-.212.673.673,0,0,1,.279-.474A1.2,1.2,0,0,1,6.151-4.7.882.882,0,0,1,7-4.29a1.406,1.406,0,0,1,.12.649v1.3a.867.867,0,0,0,.026.259.168.168,0,0,0,.174.126.294.294,0,0,0,.123-.023,1.255,1.255,0,0,0,.168-.11v.165a1.052,1.052,0,0,1-.221.207.65.65,0,0,1-.368.123.36.36,0,0,1-.318-.142.638.638,0,0,1-.115-.335,3.043,3.043,0,0,1-.42.317,1.1,1.1,0,0,1-.559.174.672.672,0,0,1-.484-.2.662.662,0,0,1-.2-.5Zm3.309.559A.735.735,0,0,0,8.571-1.8.441.441,0,0,0,8.7-2.176v-1.67a.526.526,0,0,0-.063-.313.26.26,0,0,0-.208-.074.588.588,0,0,0-.1.007.543.543,0,0,0-.079.023v-.113l.232-.077q.126-.042.414-.152t.3-.11a.018.018,0,0,1,.013,0,.018.018,0,0,1,.006.012.376.376,0,0,1,0,.061v.436a2.466,2.466,0,0,1,.552-.4,1.1,1.1,0,0,1,.478-.112.668.668,0,0,1,.53.227.982.982,0,0,1,.171.333,2.7,2.7,0,0,1,.417-.359,1.135,1.135,0,0,1,.627-.2.678.678,0,0,1,.695.424,2.1,2.1,0,0,1,.1.756v1.339a.386.386,0,0,0,.1.312.717.717,0,0,0,.368.108v.085H11.8v-.09a.637.637,0,0,0,.368-.113.515.515,0,0,0,.088-.355V-3.584a1.177,1.177,0,0,0-.068-.462.463.463,0,0,0-.468-.265.742.742,0,0,0-.417.139,2.065,2.065,0,0,0-.294.259v1.655a.709.709,0,0,0,.092.4.466.466,0,0,0,.39.147v.081h-1.48v-.084a.588.588,0,0,0,.391-.147,1.06,1.06,0,0,0,.084-.54v-.9a2.427,2.427,0,0,0-.065-.685.434.434,0,0,0-.452-.317.777.777,0,0,0-.388.108,1.219,1.219,0,0,0-.336.283v1.765a.509.509,0,0,0,.085.339.529.529,0,0,0,.374.1v.085H8.237Zm7.448-1.706a2.959,2.959,0,0,0-.614.271A.8.8,0,0,0,14.6-2.5a.5.5,0,0,0,.194.433.471.471,0,0,0,.281.09.772.772,0,0,0,.409-.12.351.351,0,0,0,.2-.3ZM14.028-2.276a.921.921,0,0,1,.468-.782,7.07,7.07,0,0,1,1.186-.527v-.275a1.132,1.132,0,0,0-.065-.459.461.461,0,0,0-.456-.216.628.628,0,0,0-.313.084.267.267,0,0,0-.147.239.876.876,0,0,0,.016.131.929.929,0,0,1,.016.118.268.268,0,0,1-.12.252.3.3,0,0,1-.162.042.271.271,0,0,1-.221-.1.327.327,0,0,1-.077-.212.673.673,0,0,1,.279-.474,1.2,1.2,0,0,1,.819-.247.882.882,0,0,1,.85.407,1.406,1.406,0,0,1,.12.649v1.3a.867.867,0,0,0,.026.259.168.168,0,0,0,.174.126.294.294,0,0,0,.123-.023,1.256,1.256,0,0,0,.168-.11v.165a1.052,1.052,0,0,1-.221.207.65.65,0,0,1-.368.123.36.36,0,0,1-.318-.142.638.638,0,0,1-.113-.335,3.043,3.043,0,0,1-.42.317,1.1,1.1,0,0,1-.559.174.672.672,0,0,1-.482-.2.662.662,0,0,1-.2-.5Zm4.777-2.411a.918.918,0,0,1,.433.1,1.034,1.034,0,0,1,.249.188v-1.03a.588.588,0,0,0-.043-.271q-.043-.074-.208-.074a.622.622,0,0,0-.068,0l-.129.013v-.107l.265-.068.294-.081q.147-.042.255-.081.051-.016.171-.061l.019.007-.007.339q0,.184-.007.379t0,.386L20.023-2.4a.6.6,0,0,0,.051.294q.051.084.275.084h.074a.532.532,0,0,0,.074-.008v.106l-.468.162-.507.19L19.5-1.6V-2a1.687,1.687,0,0,1-.325.284,1.019,1.019,0,0,1-.546.147,1.088,1.088,0,0,1-.891-.425,1.527,1.527,0,0,1-.341-.984,1.847,1.847,0,0,1,.409-1.2A1.245,1.245,0,0,1,18.806-4.687Zm.12,2.767a.564.564,0,0,0,.407-.147.412.412,0,0,0,.155-.281V-3.737a.7.7,0,0,0-.224-.593.723.723,0,0,0-.441-.173.71.71,0,0,0-.633.36,1.637,1.637,0,0,0-.227.887,1.788,1.788,0,0,0,.24.927.783.783,0,0,0,.719.407Zm4.029-1.5a2.959,2.959,0,0,0-.614.271.8.8,0,0,0-.466.653.5.5,0,0,0,.194.433.471.471,0,0,0,.281.09.772.772,0,0,0,.409-.12.351.351,0,0,0,.2-.3ZM21.3-2.275a.921.921,0,0,1,.468-.782,7.07,7.07,0,0,1,1.186-.527v-.275a1.132,1.132,0,0,0-.065-.459.461.461,0,0,0-.456-.216.628.628,0,0,0-.319.083.267.267,0,0,0-.147.239.877.877,0,0,0,.016.131A.929.929,0,0,1,22-3.963a.268.268,0,0,1-.12.252.3.3,0,0,1-.162.042.271.271,0,0,1-.221-.1.327.327,0,0,1-.077-.212A.673.673,0,0,1,21.7-4.45a1.2,1.2,0,0,1,.819-.247.882.882,0,0,1,.85.407,1.406,1.406,0,0,1,.12.649v1.3a.867.867,0,0,0,.026.259.168.168,0,0,0,.174.126.294.294,0,0,0,.123-.023,1.255,1.255,0,0,0,.168-.11v.165a1.051,1.051,0,0,1-.221.207.65.65,0,0,1-.368.123.36.36,0,0,1-.321-.139.638.638,0,0,1-.11-.338,3.043,3.043,0,0,1-.42.317,1.1,1.1,0,0,1-.559.174.672.672,0,0,1-.482-.2.662.662,0,0,1-.2-.5Zm7.958-1.058-.766-1.822-.756,1.822ZM26.4-1.633v-.12a.536.536,0,0,0,.383-.194,5.378,5.378,0,0,0,.441-.895L28.6-6.089h.132l1.648,3.751a1.594,1.594,0,0,0,.263.464.626.626,0,0,0,.331.121v.121H29.292v-.12a1.484,1.484,0,0,0,.375-.063q.084-.038.084-.182a.8.8,0,0,0-.032-.171,1.864,1.864,0,0,0-.09-.259l-.275-.637H27.619q-.259.649-.309.793a.742.742,0,0,0-.048.229.235.235,0,0,0,.136.232,1.08,1.08,0,0,0,.317.058v.12Zm5.221-.107a.782.782,0,0,0,.394-.105.433.433,0,0,0,.1-.338V-3.64a1.25,1.25,0,0,0-.06-.457.221.221,0,0,0-.221-.138.6.6,0,0,0-.085.008q-.054.008-.112.021v-.107l.378-.132q.194-.068.268-.1.162-.061.333-.139.023,0,.027.016a.294.294,0,0,1,.005.068v.53a2.469,2.469,0,0,1,.4-.449.615.615,0,0,1,.4-.162.373.373,0,0,1,.268.1.327.327,0,0,1,.1.247.326.326,0,0,1-.079.221.253.253,0,0,1-.2.09.372.372,0,0,1-.251-.113.349.349,0,0,0-.2-.113q-.113,0-.278.182a.56.56,0,0,0-.165.377v1.46a.483.483,0,0,0,.129.386.649.649,0,0,0,.429.1v.107H31.622Zm4.329-2.942a1.169,1.169,0,0,1,.7.208.577.577,0,0,1,.294.457.31.31,0,0,1-.074.2.277.277,0,0,1-.229.092.287.287,0,0,1-.2-.077.449.449,0,0,1-.124-.227l-.039-.155a.393.393,0,0,0-.147-.243.515.515,0,0,0-.281-.068.766.766,0,0,0-.622.321,1.341,1.341,0,0,0-.254.855,1.461,1.461,0,0,0,.279.876.882.882,0,0,0,.755.388.9.9,0,0,0,.6-.221,2.05,2.05,0,0,0,.336-.4l.09.055a2.562,2.562,0,0,1-.388.614,1.188,1.188,0,0,1-.9.433,1.212,1.212,0,0,1-.892-.4,1.48,1.48,0,0,1-.388-1.08,1.684,1.684,0,0,1,.424-1.15,1.363,1.363,0,0,1,1.069-.479Zm1.861,2.957a.566.566,0,0,0,.348-.129.783.783,0,0,0,.082-.451v-3.1a.578.578,0,0,0-.047-.267q-.047-.085-.228-.085a.49.49,0,0,0-.069.005l-.074.011V-5.86l.351-.1q.208-.06.289-.085l.31-.1.007.023v1.986a2.116,2.116,0,0,1,.362-.343,1.069,1.069,0,0,1,.614-.194.709.709,0,0,1,.714.441,1.52,1.52,0,0,1,.1.611V-2.3a.822.822,0,0,0,.079.446.479.479,0,0,0,.325.136v.09h-1.4v-.09a.6.6,0,0,0,.362-.132.787.787,0,0,0,.081-.449V-3.614a1.063,1.063,0,0,0-.105-.507.409.409,0,0,0-.4-.194.793.793,0,0,0-.495.182q-.236.181-.236.236V-2.3a.76.76,0,0,0,.089.452.628.628,0,0,0,.359.129v.091H37.813ZM42.118-5.8a.332.332,0,0,1,.1-.24.32.32,0,0,1,.239-.1.324.324,0,0,1,.238.1.327.327,0,0,1,.1.24.324.324,0,0,1-.1.238.324.324,0,0,1-.238.1.322.322,0,0,1-.239-.1.327.327,0,0,1-.1-.238ZM41.7-1.723a.824.824,0,0,0,.436-.118q.09-.085.09-.464V-3.849a.98.98,0,0,0-.029-.294.2.2,0,0,0-.2-.132.368.368,0,0,0-.069.007q-.034.007-.2.051v-.1l.139-.046q.566-.184.788-.278a.421.421,0,0,1,.116-.039.175.175,0,0,1,.007.049V-2.3a.758.758,0,0,0,.089.462.662.662,0,0,0,.4.12v.09H41.7Zm3.9-2.889v.232h-.662l-.006,1.865a1.245,1.245,0,0,0,.042.371.3.3,0,0,0,.3.221.368.368,0,0,0,.2-.055,1.06,1.06,0,0,0,.2-.174l.084.074-.074.1a1.034,1.034,0,0,1-.355.32.809.809,0,0,1-.362.093.51.51,0,0,1-.515-.339,1.405,1.405,0,0,1-.074-.51V-4.379h-.352a.1.1,0,0,1-.024-.019A.039.039,0,0,1,44-4.424a.073.073,0,0,1,.015-.05.969.969,0,0,1,.092-.082,2.783,2.783,0,0,0,.321-.3q.1-.115.464-.606a.108.108,0,0,1,.05.007q.008.007.008.049v.795Zm2.18-.051a1.142,1.142,0,0,1,.8.315,1.153,1.153,0,0,1,.343.894H46.874a1.726,1.726,0,0,0,.34,1.093.946.946,0,0,0,.727.343.915.915,0,0,0,.574-.178,1.784,1.784,0,0,0,.429-.5l.113.039a1.839,1.839,0,0,1-.5.76,1.237,1.237,0,0,1-.891.349,1.089,1.089,0,0,1-.939-.459A1.759,1.759,0,0,1,46.4-3.07a1.719,1.719,0,0,1,.385-1.121,1.231,1.231,0,0,1,1-.472Zm-.188.236a.618.618,0,0,0-.563.327,1.284,1.284,0,0,0-.147.441h1.36a1.341,1.341,0,0,0-.123-.482.557.557,0,0,0-.529-.285Zm3.764-.252a1.169,1.169,0,0,1,.7.208.577.577,0,0,1,.294.457.31.31,0,0,1-.074.2.277.277,0,0,1-.229.092.287.287,0,0,1-.2-.077.449.449,0,0,1-.124-.227l-.039-.155a.393.393,0,0,0-.147-.243.515.515,0,0,0-.281-.068.766.766,0,0,0-.622.321,1.341,1.341,0,0,0-.254.855,1.461,1.461,0,0,0,.279.876.882.882,0,0,0,.755.388.9.9,0,0,0,.6-.221,2.05,2.05,0,0,0,.336-.4l.09.055a2.562,2.562,0,0,1-.388.614,1.188,1.188,0,0,1-.9.433,1.212,1.212,0,0,1-.892-.4,1.48,1.48,0,0,1-.388-1.08A1.684,1.684,0,0,1,50.3-4.2a1.363,1.363,0,0,1,1.066-.479Zm3.486.068v.232h-.662l-.005,1.865a1.245,1.245,0,0,0,.042.371.3.3,0,0,0,.3.221.368.368,0,0,0,.2-.055,1.06,1.06,0,0,0,.2-.174l.084.074-.074.1a1.034,1.034,0,0,1-.355.32.809.809,0,0,1-.362.093.51.51,0,0,1-.515-.339,1.405,1.405,0,0,1-.074-.51V-4.379h-.352a.1.1,0,0,1-.024-.019.039.039,0,0,1-.008-.026.074.074,0,0,1,.015-.05.97.97,0,0,1,.092-.082,2.783,2.783,0,0,0,.321-.3q.1-.115.464-.606a.108.108,0,0,1,.05.007q.008.007.008.049v.795Zm1.691-.013v2.069A.847.847,0,0,0,56.6-2.2a.441.441,0,0,0,.441.246.747.747,0,0,0,.429-.147,1.261,1.261,0,0,0,.243-.221V-4.1a.412.412,0,0,0-.1-.327.735.735,0,0,0-.388-.093v-.107h1.044V-2.35a.441.441,0,0,0,.079.3.454.454,0,0,0,.335.074v.09l-.262.074q-.084.024-.281.089-.084.029-.368.139a.018.018,0,0,1-.019-.015.158.158,0,0,1,0-.034v-.522a2.186,2.186,0,0,1-.4.388.992.992,0,0,1-.582.194.831.831,0,0,1-.539-.2.791.791,0,0,1-.252-.662V-4.112a.428.428,0,0,0-.11-.346.662.662,0,0,0-.3-.077v-.09Zm2.82,2.886a.782.782,0,0,0,.394-.105.433.433,0,0,0,.1-.338V-3.64a1.25,1.25,0,0,0-.06-.457.221.221,0,0,0-.221-.138.6.6,0,0,0-.085.008q-.054.008-.112.021v-.107l.378-.132q.194-.068.268-.1.162-.061.333-.139.023,0,.027.016a.294.294,0,0,1,.005.068v.53a2.469,2.469,0,0,1,.4-.449.615.615,0,0,1,.4-.162.373.373,0,0,1,.268.1.327.327,0,0,1,.1.247.327.327,0,0,1-.079.221.253.253,0,0,1-.2.09.372.372,0,0,1-.247-.113.349.349,0,0,0-.2-.113q-.113,0-.278.182a.56.56,0,0,0-.165.377v1.461a.483.483,0,0,0,.129.386.649.649,0,0,0,.429.1v.107H59.361Zm4.582-1.684a2.959,2.959,0,0,0-.614.271.8.8,0,0,0-.466.653.5.5,0,0,0,.194.433.471.471,0,0,0,.281.09.772.772,0,0,0,.409-.12.351.351,0,0,0,.2-.3ZM62.288-2.276a.921.921,0,0,1,.468-.782,7.07,7.07,0,0,1,1.186-.527v-.275a1.132,1.132,0,0,0-.065-.459.461.461,0,0,0-.456-.216.628.628,0,0,0-.313.084.267.267,0,0,0-.147.239.876.876,0,0,0,.016.131.93.93,0,0,1,.016.118.268.268,0,0,1-.12.252.3.3,0,0,1-.162.042.271.271,0,0,1-.221-.1.327.327,0,0,1-.077-.212.673.673,0,0,1,.279-.474,1.2,1.2,0,0,1,.819-.247.882.882,0,0,1,.85.407,1.406,1.406,0,0,1,.12.649v1.3a.867.867,0,0,0,.026.259.168.168,0,0,0,.174.126.294.294,0,0,0,.123-.023,1.255,1.255,0,0,0,.168-.11v.165a1.052,1.052,0,0,1-.221.207.65.65,0,0,1-.368.123.36.36,0,0,1-.318-.142.638.638,0,0,1-.115-.335,3.043,3.043,0,0,1-.42.317,1.1,1.1,0,0,1-.559.174.672.672,0,0,1-.485-.2.662.662,0,0,1-.2-.5Zm3.341.552a.765.765,0,0,0,.407-.121.468.468,0,0,0,.107-.36V-5.362a.824.824,0,0,0-.035-.294.26.26,0,0,0-.262-.136.554.554,0,0,0-.1.01q-.054.01-.134.029V-5.86q.436-.116,1.05-.31a.025.025,0,0,1,.027.019.441.441,0,0,1,.005.084v3.876a.485.485,0,0,0,.1.363.755.755,0,0,0,.4.105v.09H65.628Zm5.324-2.1a2.4,2.4,0,0,0,.41,1.544,1.258,1.258,0,0,0,1.007.5,1.272,1.272,0,0,0,1-.485,2.375,2.375,0,0,0,.415-1.556,2.358,2.358,0,0,0-.421-1.563,1.282,1.282,0,0,0-1-.482,1.26,1.26,0,0,0-1.007.5,2.4,2.4,0,0,0-.412,1.545Zm-.75,0a2.249,2.249,0,0,1,.668-1.7,2.09,2.09,0,0,1,1.5-.588,2.088,2.088,0,0,1,1.506.588,2.244,2.244,0,0,1,.662,1.7,2.225,2.225,0,0,1-.685,1.713,2.1,2.1,0,0,1-1.483.568,2.066,2.066,0,0,1-1.544-.63A2.273,2.273,0,0,1,70.2-3.82Zm5.221,2.1a.7.7,0,0,0,.448-.129.709.709,0,0,0,.108-.47V-4.4h-.549v-.216h.552a2.359,2.359,0,0,1,.139-.863.969.969,0,0,1,.973-.675,1.116,1.116,0,0,1,.509.113.34.34,0,0,1,.224.3.274.274,0,0,1-.077.19.246.246,0,0,1-.188.084.244.244,0,0,1-.162-.057.945.945,0,0,1-.162-.2L77.185-5.8a.473.473,0,0,0-.107-.115.276.276,0,0,0-.171-.047.329.329,0,0,0-.333.243.986.986,0,0,0-.049.339v.766h.809v.216h-.8v2.074a.73.73,0,0,0,.1.467.9.9,0,0,0,.515.131v.09H75.425Zm2.6,0a.7.7,0,0,0,.451-.128.709.709,0,0,0,.108-.47V-4.4h-.552v-.216h.552a2.359,2.359,0,0,1,.139-.863.969.969,0,0,1,.973-.675,1.116,1.116,0,0,1,.509.113.34.34,0,0,1,.224.3.274.274,0,0,1-.077.19.246.246,0,0,1-.188.084A.244.244,0,0,1,80-5.515a.945.945,0,0,1-.162-.2L79.783-5.8a.473.473,0,0,0-.107-.115.276.276,0,0,0-.171-.047.329.329,0,0,0-.333.243.985.985,0,0,0-.049.339v.766h.809v.216h-.8v2.074a.73.73,0,0,0,.1.467.9.9,0,0,0,.515.131v.09H78.021ZM81.15-5.805a.332.332,0,0,1,.1-.24.32.32,0,0,1,.239-.1.324.324,0,0,1,.238.1.327.327,0,0,1,.1.24.324.324,0,0,1-.1.238.324.324,0,0,1-.238.1.322.322,0,0,1-.239-.1.327.327,0,0,1-.1-.236Zm-.413,4.081a.824.824,0,0,0,.436-.118q.09-.085.09-.464V-3.85a.98.98,0,0,0-.029-.294.2.2,0,0,0-.2-.132.368.368,0,0,0-.069.007q-.034.007-.2.051v-.1l.139-.046q.566-.184.788-.278a.421.421,0,0,1,.116-.039.175.175,0,0,1,.007.049V-2.3a.758.758,0,0,0,.089.462.662.662,0,0,0,.4.12v.09H80.736ZM84.6-4.681a1.169,1.169,0,0,1,.7.208.577.577,0,0,1,.294.457.31.31,0,0,1-.074.2.277.277,0,0,1-.229.092.287.287,0,0,1-.2-.077.449.449,0,0,1-.124-.227l-.039-.155a.393.393,0,0,0-.147-.243.515.515,0,0,0-.281-.068.766.766,0,0,0-.622.321,1.341,1.341,0,0,0-.254.855,1.461,1.461,0,0,0,.279.876.882.882,0,0,0,.755.388.9.9,0,0,0,.6-.221,2.05,2.05,0,0,0,.336-.4l.09.055a2.561,2.561,0,0,1-.388.614,1.188,1.188,0,0,1-.9.433,1.212,1.212,0,0,1-.892-.4,1.48,1.48,0,0,1-.388-1.08,1.684,1.684,0,0,1,.424-1.15A1.363,1.363,0,0,1,84.6-4.68Zm3.318.016a1.142,1.142,0,0,1,.8.315,1.153,1.153,0,0,1,.343.894H87.006a1.726,1.726,0,0,0,.338,1.094.946.946,0,0,0,.727.343.915.915,0,0,0,.572-.178,1.784,1.784,0,0,0,.429-.5l.113.039a1.838,1.838,0,0,1-.5.76,1.237,1.237,0,0,1-.891.349,1.089,1.089,0,0,1-.939-.459A1.759,1.759,0,0,1,86.53-3.07a1.719,1.719,0,0,1,.385-1.121,1.231,1.231,0,0,1,1-.472Zm-.188.236a.618.618,0,0,0-.563.327,1.284,1.284,0,0,0-.147.441h1.363a1.341,1.341,0,0,0-.123-.482.557.557,0,0,0-.532-.285Z" transform="translate(42.293 30.624)" fill="#fff"/>
    <path id="パス_1" data-name="パス 1" d="M0,0V27.7L15.988,15.776,31.977,27.7V0Z" transform="translate(0 2.113)" fill="#fff"/>
    <path id="パス_2" data-name="パス 2" d="M37,61.662l.035,1.618,1.6-.023L38.6,61.639Z" transform="translate(-23.055 -36.168)" fill="#fff"/>
    <path id="パス_3" data-name="パス 3" d="M38.453,54.929l-1.6.022.035,1.618,1.6-.022Z" transform="translate(-22.963 -32.107)" fill="#fff"/>
    <path id="パス_4" data-name="パス 4" d="M45.146,56.449l-.035-1.618-1.6.023.035,1.618Z" transform="translate(-27.112 -32.048)" fill="#fff"/>
    <path id="パス_5" data-name="パス 5" d="M43.687,63.182l1.6-.022-.035-1.618-1.6.023Z" transform="translate(-27.202 -35.371)" fill="#fff"/>
  </g>
</svg>
