<svg xmlns="http://www.w3.org/2000/svg" width="238.828" height="39.186" viewBox="0 0 238.828 39.186">
  <g id="グループ_10171" data-name="グループ 10171" transform="translate(0 -1)">
    <path id="パス_4095" data-name="パス 4095" d="M-164.8-1.225c.675,0,.725.375.725.775,0,.775.025,1.325.75,1.325a1.256,1.256,0,0,0,1.275-1.4c0-.525-.025-3.2-.025-3.8,0-1.025-.05-6.025-.05-7.15a15.581,15.581,0,0,1,.15-2.75c.025-.075.425-.475.425-.575,0-.55-2.3-1.075-2.425-1.075-.15,0-.2.075-.2.225,0,.175.1,1.05.1,1.225.025.3.075,3.175.075,5.325,0,.875-.05,5.25-.05,6.225,0,.6-.05,1-.75,1h-5.1c-.55,0-.75-.225-.75-.875,0-4.225,0-10.175.075-14.8a2.906,2.906,0,0,1,.125-1.075c.05-.125.525-.7.525-.85,0-.325-.325-.375-.85-.475-.275-.05-1.4-.275-1.575-.275s-.225.05-.225.2c0,.175.125,1.05.125,1.25,0,.225.05,3.05.05,5.275,0,3.25-.125,10.975-.15,11.125a.6.6,0,0,1-.7.5h-5.05c-.65,0-.725-.375-.725-.875,0-1.325.025-7.825.025-9.3a5.264,5.264,0,0,1,.2-1.9c.375-.4.45-.475.45-.65,0-.525-2.475-1-2.55-1-.2,0-.225.05-.225.225,0,.125.05.675.075.8a26.781,26.781,0,0,1,.15,3.325c0,1.65-.125,9.65-.125,11.45,0,.725.175,1,.825,1,1.175,0,1.175-.8,1.175-1.525,0-.425,0-.9.725-.9Zm26.875.1c.275,0,.575,0,.575.45,0,.475,0,.85.7.85a1.244,1.244,0,0,0,1.3-1.325c0-.275-.125-1.5-.125-1.75-.075-1.425-.05-4.125-.05-4.75v-4.975c0-.575-.075-3.475-.075-3.575a2.586,2.586,0,0,1,.25-1.45,4.71,4.71,0,0,0,.525-.775c0-.525-1.375-1.425-1.775-1.425-.25,0-.375.175-.8.7-.275.325-.4.325-1.525.325H-151.4a2.666,2.666,0,0,1-1.25-.225,7.454,7.454,0,0,0-1.975-.6c-.125,0-.15.125-.15.2,0,.2.225,1,.25,1.175.15.975.15,4.6.15,5.925,0,3.125-.05,7.075-.175,9.975-.025.375-.125,2-.125,2.35,0,.6.05,1.2.775,1.2,1.25,0,1.275-1.1,1.3-1.75.025-.55.35-.55.65-.55ZM-146.6-10.1c.175,0,.65.025.7.475v7.05c0,.775-.375.775-.8.775h-5.225c-.3,0-.625,0-.7-.7-.025-.225-.025-4.35-.025-5.2,0-2.325,0-2.4.75-2.4Zm3.25-.65c-.475,0-.725-.15-.725-.725,0-1.45.025-4.7.075-6.025.025-.475.175-.65.75-.65h5.075c.725,0,.75.425.75.825,0,.125.075,5.15.075,5.775,0,.4-.025.8-.675.8Zm-8.55,0c-.7,0-.75-.375-.75-.75,0-.875.05-4.7.05-5.5,0-.875,0-1.15.825-1.15h5.15c.725,0,.775.3.775.85,0,.875-.05,4.75-.025,5.55,0,.575.025,1-.725,1Zm13.9.65a.624.624,0,0,1,.625.325c.075.2.075,4.55.075,5.175,0,2.725-.025,2.8-.725,2.8H-143.3c-.55,0-.875-.025-.875-.875,0-.375.075-6.85.125-7,.1-.425.525-.425.7-.425Zm23.3,1.675c-.65,0-.65-.25-.65-1.975a.576.576,0,0,1,.65-.525h1.8c.45,0,.55,0,.7.225.2.275.3.425.7.425a1,1,0,0,0,1-.8c.05-.225.075-1.525.075-2.3,0-.55,0-.825.775-.825h.875c.9,0,1.35,0,1.35-.375A3.472,3.472,0,0,0-109-16.05c-.225,0-.4.25-.5.45-.25.525-.35.7-.625.7-.3,0-.3-.2-.3-.625,0-.75,0-.85.125-.975.1-.1.675-.525.675-.675a4.225,4.225,0,0,0-1.625-1.4c-.175,0-.35.15-.6.425-.4.45-.45.5-.825.5h-1.975c-.625,0-.7-.25-.7-.65a8.825,8.825,0,0,1,.05-.9c.05-.15.725-.575.725-.75,0-.225-.4-.375-.65-.45a17.362,17.362,0,0,0-2.1-.425c-.025,0-.1,0-.1.05a7.336,7.336,0,0,0,.3.7,7.359,7.359,0,0,1,.175,1.35c0,.825,0,1.075-.675,1.075-.975,0-1.275,0-2.95-.075-.25,0-1.475-.1-1.575-.1-.05,0-.1,0-.1.05s.025.05.125.175l.475.575c.1.1.125.15.225.15.075,0,.45-.05.525-.05.675-.05,1.975-.075,3-.075.575,0,1,0,1,.625,0,1.325,0,1.5-.775,1.5h-1.4c-1.175,0-2.275-.025-3.425-.075-.15,0-.925-.1-1.1-.1-.075,0-.1.025-.1.075,0,.025,0,.05.1.15l.5.575c.075.1.125.175.2.175a4.151,4.151,0,0,0,.55-.075c.875-.05,2.575-.05,3.15-.05h1.5c.275,0,.775,0,.775.55,0,1.825,0,2.05-.625,2.05-.475,0-2.65-.175-2.925-.175a.066.066,0,0,0-.075.075c0,.025,0,.05.1.15l.475.575c.1.125.15.175.225.175.2,0,1.85-.125,2.15-.125.625,0,.625.475.625.675,0,1.625,0,1.8-.75,1.8-.475,0-2.775-.15-3.3-.15-.05,0-.075,0-.075.05s.025.1.1.175l.475.575c.1.1.15.15.225.15a1.688,1.688,0,0,0,.35-.05c.45-.025,1.65-.075,2.15-.075.4,0,.8.05.8.625,0,1.525,0,1.7-.675,1.7-1.075,0-1.325,0-3.1-.075-.25,0-1.475-.1-1.575-.1a.066.066,0,0,0-.075.075c0,.025,0,.05.1.15l.475.575c.1.1.15.175.225.175a3.793,3.793,0,0,0,.525-.075c.875-.05,2.6-.05,3.175-.05.475,0,.9,0,.9.7,0,.225-.1,1.325-.1,1.575,0,.125,0,.75.6.75.275,0,1.175-.125,1.275-.9V-3.9c0-.475.025-.875.725-.875h6.1c.825,0,1.325,0,1.325-.35a6.706,6.706,0,0,0-2.05-1.625c-.275,0-.325.075-.95.875-.325.425-.45.425-1.6.425h-3a.568.568,0,0,1-.5-.275,6.965,6.965,0,0,1-.1-1.5.527.527,0,0,1,.6-.55h4.05c.8,0,1.325,0,1.325-.325,0-.425-1.45-1.5-1.725-1.5-.2,0-.9.975-1.125,1.075a3.06,3.06,0,0,1-1.2.1ZM-112.85-17c.8,0,.8.2.8,1.45,0,.675-.45.675-.8.675h-1.75c-.8,0-.8-.2-.8-1.3,0-.725.25-.825.8-.825Zm.05,2.8c.75,0,.75.45.75,1.075,0,1.2,0,1.525-.75,1.525h-1.875c-.725,0-.725-.3-.725-1.55,0-.6,0-1.05.725-1.05Zm-12.5,2.725c-.375,0-.65,0-.65-.45,0-.175,1.05-4.1,1.3-5.025.225-.85.25-.925.625-1.125.475-.25.525-.275.525-.475,0-.35-1.275-1.5-1.55-1.5-.2,0-.25.075-.675.7-.225.325-.325.375-.675.375-.55,0-3-.15-3.475-.15-.05,0-.1,0-.1.05,0,.025.025.05.1.175l.5.575c.075.1.125.15.225.15s.575-.075.675-.075c.6-.025,1.2-.05,1.8-.05.225,0,.45.1.45.4,0,.15-.325,1.7-1.1,4.525-.15.525-1.075,3.375-1.075,3.475,0,.3.325.5.675.5.725,0,.975-.475,1.275-1.05.175-.35.35-.35.825-.35h1.95c.45,0,.625.05.625.4a23.353,23.353,0,0,1-1.4,4.725c-.375.875-.5,1.175-.775,1.175-.375,0-1.525-1.7-2.1-3.725-.1-.4-.15-.525-.3-.525-.1,0-.1.15-.1.225a11.219,11.219,0,0,0,.95,3.475,11.319,11.319,0,0,1,.95,1.8A12.658,12.658,0,0,1-128.8.575c-.175.175-1.2.925-1.2,1.075,0,.025,0,.05.025.05a9.867,9.867,0,0,0,4.425-3.275c.35-.425.5-.625.65-.625a13.04,13.04,0,0,1,1.4,1.025c1.425.95,3.2,2.125,12.825,2.125,1.775,0,1.975,0,2.175-.225a6,6,0,0,0,.3-.95,2.959,2.959,0,0,1,.95-1.25c.375-.225.425-.25.425-.3,0-.075-.075-.075-.175-.075-.075,0-.8.175-1.025.225a49.845,49.845,0,0,1-7.475.55c-1.675,0-5.25-.05-7.475-1.375-.325-.2-1.15-.75-1.15-1.075a8.159,8.159,0,0,1,.45-.95,23.865,23.865,0,0,0,2-5.4.991.991,0,0,1,.4-.625c.425-.3.45-.35.45-.5,0-.475-1.275-1.375-1.525-1.375-.15,0-.2.075-.8.625a.772.772,0,0,1-.725.275Zm34.75-.475c-.025.025,0,.1.05.175a6.742,6.742,0,0,1,.625,1.85c.05.45.1.925.65.925a1.039,1.039,0,0,0,.95-1.05c0-.925-.925-1.35-1.475-1.625C-89.85-11.7-90.475-12-90.55-11.95Zm-10.25-1.225c.075.1.125.15.225.15.225,0,1.675-.1,1.975-.1.7,0,.7.275.7,1.575,0,1.175,0,1.3-.25,1.475a10.451,10.451,0,0,1-2.225.25c-.25,0-1.5-.175-1.675-.175-.1,0-.175.025-.175.175,0,.175.6,2.125,1.025,2.125a7,7,0,0,0,.8-.5c.475-.225,6.55-1.85,6.55-2.3,0-.05-.075-.05-.15-.05-.275,0-1.55.225-1.675.225-.55,0-.6-.375-.6-.95,0-1.675,0-1.875.825-1.875h1.1c.85,0,1.325,0,1.325-.35,0-.225-.675-1.05-1.075-1.05-.175,0-.3.125-.475.325-.35.425-.475.425-1.6.425h-.6c-1.175,0-2.2-.05-3.425-.1-.15,0-.925-.075-1.1-.075-.05,0-.1,0-.1.05s.025.05.125.175Zm5.625,7.725c.275,0,.6,0,.6.275,0,.25-.3.55-.65.875A31.675,31.675,0,0,1-103.15.975c-.125.075-.175.15-.175.175,0,.05.075.05.1.05a15.036,15.036,0,0,0,3.05-.8A22.963,22.963,0,0,0-94.2-3.25,5.71,5.71,0,0,1-93.125-4c.25,0,.25.475.25.55,0,1.525,0,2.25-.025,2.6,0,.275-.125,1.625-.125,1.925a.681.681,0,0,0,.675.8c.225,0,1.15-.2,1.15-.95C-91.2.75-91.3-.1-91.3-.3c-.075-1.175-.075-1.525-.075-4.15,0-.075,0-.2.125-.2.15,0,.2.075.725.775C-87.95-.375-83.8,1.35-83.2,1.35a.477.477,0,0,0,.3-.175A5.364,5.364,0,0,1-81.525-.15c.1-.05.75-.325.75-.45,0-.075-1.85-.25-2.2-.325C-87.125-1.7-90.9-4.85-90.9-5.3c0-.15.175-.15.325-.15h8.6c.825,0,1.325,0,1.325-.35a4.932,4.932,0,0,0-1.9-1.65c-.25,0-1.05,1-1.275,1.175-.2.175-.3.175-1.35.175H-90.55c-.325,0-.775,0-.775-.575a.963.963,0,0,1,.25-.7c.225-.225.275-.275.275-.425,0-.25-.75-.525-1.175-.65-.75-.25-.825-.25-.825-.45,0-.075.05-.125.45-.55A5.178,5.178,0,0,0-90.9-12.4c.15-1.15.175-1.175.825-1.175H-88.3c.275,0,.675.025.75.425a26.532,26.532,0,0,1,.05,2.7c0,1,0,2,3.375,2C-82.25-8.45-81.1-9-81.1-9.6c0-.125-.025-.15-.225-.5a3.328,3.328,0,0,1-.325-1.55c-.075-.7-.075-.775-.125-.775s-.125.25-.2.425c-.55,1.675-.85,2.175-2.425,2.175a3.339,3.339,0,0,1-1.5-.3c-.2-.15-.2-.975-.2-1.35,0-1.125.025-1.375.025-1.5.025-.1.175-.2.25-.25.125-.075.425-.275.425-.475,0-.375-1.525-1.15-1.625-1.15s-.45.475-.55.525a1.4,1.4,0,0,1-.525.075h-1.975a1.586,1.586,0,0,1-.85-.2c-.95-.55-1-.6-1.225-.6-.15,0-.15.15-.15.25,0,.175.075.975.075,1.15A6.175,6.175,0,0,1-95.35-7.925a5.479,5.479,0,0,0-.825.625.08.08,0,0,0,.075.075,6.886,6.886,0,0,0,1.3-.5c.225-.1,1.325-.775,1.45-.775.45,0,.45,1.325.45,1.7,0,.6-.275.7-.725.7H-98.55c-1.175,0-2.2-.05-3.425-.1-.15,0-.925-.075-1.1-.075-.05,0-.075.025-.075.05,0,.05,0,.05.1.175l.475.575c.1.1.125.15.225.15.075,0,.45-.05.525-.05.65-.05,1.3-.075,3.175-.075Zm1.35-12.25c1.2,0,1.325,0,1.325-.3a2.649,2.649,0,0,0-1.275-1.375c-.2,0-.55.35-.65.475-.45.55-.575.55-1.575.55h-1.575c-.25,0-.525,0-.525-.225,0-.3.6-.925.775-1,.475-.25.55-.275.55-.45,0-.25-.2-.325-.7-.5C-97.55-20.55-99-21-99.125-21s-.375,1.15-.45,1.375A21.454,21.454,0,0,1-103-14.375c-.125.175-.175.225-.175.275a11.577,11.577,0,0,0,3.625-2.925,1.548,1.548,0,0,1,1.525-.675c.425,0,1.2,0,1.2,2.025,0,.775,0,1.15.6,1.15a1.133,1.133,0,0,0,1.075-1.15A1.811,1.811,0,0,0-95.8-16.9c-.3-.325-.45-.475-.45-.6,0-.2.3-.2.525-.2Zm11-.075c1.2,0,1.35,0,1.35-.3,0-.35-1.4-1.65-1.675-1.65-.2,0-.775.875-.9,1.025-.225.25-.425.275-1.35.275h-3.725c-.225,0-.45,0-.45-.225a1.794,1.794,0,0,1,.525-.8c.45-.325.575-.425.575-.575,0-.4-1.95-.825-2.05-.825-.25,0-.275.05-.325.7a10.676,10.676,0,0,1-1.65,3.9c-.125.2-.9,1.275-.9,1.35,0,.15.825-.4,2.4-2.15.45-.5.625-.725,1.325-.725h.95c.75,0,1,.125,1.6,1.675.475,1.225.525,1.35,1.025,1.35a.9.9,0,0,0,.9-.925,1.69,1.69,0,0,0-1-1.425c-.25-.15-.65-.35-.65-.5,0-.175.275-.175.525-.175Zm16.075.85c.5,0,.5.425.5.7,0,1.325,0,1.45-.55,1.45h-2.7a2.542,2.542,0,0,1-1-.15,11.033,11.033,0,0,0-1.95-1c-.15,0-.175.1-.175.225a5.953,5.953,0,0,0,.125.65c.05.5.05,2.125.05,2.2,0,.325-.075,1.9-.075,2.25,0,.325.075.65.65.65a1.115,1.115,0,0,0,1.15-.775c.1-.375.125-.475.6-.475h3.3c.525,0,.525.4.525.675,0,1.075,0,1.35-.55,1.35h-3.325c-1.175,0-2.2,0-3.425-.075-.175,0-.925-.1-1.1-.1-.075,0-.1.025-.1.075,0,.025.025.05.1.15l.5.6c.075.1.125.15.225.15.075,0,.425-.075.525-.075.225-.025.95-.05,3.15-.05h3.45c.525,0,.525.4.525.95,0,.7,0,1.025-.55,1.025H-72.3c-1.175,0-2.2-.025-3.425-.075-.15,0-.925-.1-1.1-.1-.05,0-.1.025-.1.075,0,.025.025.05.125.15l.475.575c.075.1.15.175.25.175.075,0,.425-.075.5-.075.25-.025.975-.05,3.15-.05h5.55c.525,0,.525.4.525.775,0,1.15,0,1.425-.6,1.425H-69.5c-1.175,0-2.2-.05-3.425-.1-.175,0-.95-.075-1.125-.075-.05,0-.075.025-.075.05,0,.05,0,.05.1.175l.5.575c.075.1.125.15.2.15s.45-.05.55-.05C-72.55-2.95-71.4-3-69.625-3h2.675a.514.514,0,0,1,.575.6c0,1.95,0,2.025-1.375,2.025-.3,0-1.775-.2-2.1-.2-.05,0-.325,0-.325.125,0,.225.525.4.8.475,1.525.5,1.9,1.075,2.075,1.475.125.275.15.35.325.35a5.934,5.934,0,0,0,1.25-.3A1.781,1.781,0,0,0-64.55-.425c0-.25-.05-1.475-.05-1.75,0-.475,0-.825.6-.825h3.875c.3,0,.5.1.55.575.1.8.125,1.075.725,1.075a1.2,1.2,0,0,0,1.3-1.275c0-.275-.075-2.075-.075-2.475,0-.325,0-.75.525-.75h1.9c.65,0,1.1,0,1.1-.3,0-.475-1.675-1.55-1.925-1.55-.2,0-.25.1-.775.8a.908.908,0,0,1-.55.325c-.275,0-.275-.225-.275-.375,0-.875,0-.975.15-1.125.45-.5.475-.55.475-.675,0-.325-1.375-1.25-1.6-1.25-.275,0-.45.175-.75.475a1.235,1.235,0,0,1-1.05.35h-3.7c-.55,0-.55-.35-.55-.975,0-.675,0-1.05.55-1.05h3.2a.443.443,0,0,1,.475.325c.15.525.2.725.85.725a1.011,1.011,0,0,0,1.075-.9v-2.375a.5.5,0,0,1,.225-.475c.325-.3.45-.4.45-.575,0-.325-1.4-1.25-1.575-1.25-.225,0-.375.175-.775.6a.8.8,0,0,1-.775.35h-3.125c-.525,0-.55-.375-.55-.625.025-1.375.025-1.525.625-1.525h8.025c.85,0,1.35,0,1.35-.35,0-.325-2.2-1.65-2.35-1.65-.225,0-.3.1-1,.925-.375.425-.475.425-1.6.425H-64a.5.5,0,0,1-.55-.575,3.162,3.162,0,0,1,.075-.7c.05-.15.575-.775.575-.95,0-.525-2.1-1.1-2.35-1.1-.1,0-.225.05-.225.325,0,.3.225,1.9.225,2.275,0,.275,0,.725-.525.725H-71.65c-1.175,0-2.2-.05-3.425-.1-.175,0-.925-.075-1.1-.075-.075,0-.1,0-.1.05s.025.05.1.175l.5.575c.075.1.125.15.225.15.075,0,.425-.05.525-.05.475-.025,1.25-.075,3.15-.075Zm-3.375,5.075c-.625,0-.625-.25-.625-1.125s0-1.125.6-1.125h3.3c.55,0,.55.375.55,1.1,0,.775,0,1.15-.55,1.15Zm9.3-2.25c.55,0,.55.4.55.925,0,1.025,0,1.325-.6,1.325h-3.2c-.575,0-.575-.3-.575-1.35,0-.475,0-.9.575-.9ZM-64.1-6.525c-.55,0-.55-.3-.55-1.175,0-.375,0-.8.55-.8h4.175c.55,0,.55.425.55.8,0,.875-.1,1.175-.6,1.175Zm4.125.675c.55,0,.55.4.55.825,0,1.175-.1,1.375-.675,1.375h-3.925c-.6,0-.6-.15-.6-1.5,0-.3,0-.7.55-.7ZM-35.8-17.175c-.175,0-.475,0-.475-.25a6.364,6.364,0,0,1,1.525-1.9c.475-.3.525-.325.525-.525,0-.15-.1-.225-.375-.35a20.715,20.715,0,0,0-2.075-.775c-.075,0-.175.025-.175.125a4.237,4.237,0,0,0,.025.55c0,.9-1.4,3.8-2.775,5.6-.1.15-.75.775-.75.975a.113.113,0,0,0,.1.125c.6,0,2.45-2.3,2.825-2.3.175,0,.25.1.35.225.375.5.875,1.375,1.25,1.9A4.333,4.333,0,0,1-35.2-12.75c0,.575-2.1,1.975-2.825,2.4-.45.275-2.8,1.325-2.8,1.475,0,.05.1.075.15.075A13.351,13.351,0,0,0-35-11.325c.425-.325.5-.4.7-.4a.814.814,0,0,1,.525.3A20.865,20.865,0,0,0-29.325-8.6c.1,0,.15-.075.2-.175a1.366,1.366,0,0,1,.55-.775,8.664,8.664,0,0,0,1.225-.675c0-.05-.075-.05-.675-.175-2.25-.475-5.1-1.8-5.1-2.3a.421.421,0,0,1,.15-.275c.1-.15.7-.8.825-.925.975-1.1,1.1-1.225,1.725-1.475.15-.05.35-.15.35-.375,0-.15-.1-.25-.275-.4-.125-.075-.15-.1-.15-.175,0-.175.1-.175.45-.175H-29c.7,0,1.025,0,1.025-.3,0-.375-1.6-1.675-1.975-1.675-.2,0-.25.075-.75.9-.25.4-.375.4-1.475.4Zm2.65.675c.2,0,.55,0,.55.4a4.669,4.669,0,0,1-1.8,2.525c-.575,0-2.325-2.3-2.325-2.65,0-.275.225-.275.625-.275Zm-11.975-2.75c-1.4,0-2.7-.05-3.425-.1-.175,0-.95-.075-1.1-.075-.025,0-.075,0-.075.05a.318.318,0,0,0,.1.175l.475.575c.1.1.15.175.225.175.05,0,.65-.075.725-.075,1-.05,2.25-.075,2.95-.075h2.4c.325,0,.625.025.625.275a16.081,16.081,0,0,1-1.45,2.3c-.325.475-.475.625-.75.625a26.507,26.507,0,0,0-2.6-.975c-.05,0-.2,0-.2.1,0,.05.5.525.575.625a7.683,7.683,0,0,1,1.625,2.45c.125.3.35.8.925.8.075,0,.9,0,.9-1.025a1.978,1.978,0,0,0-.475-1.325.444.444,0,0,1-.1-.25c0-.2.175-.35.5-.6,2.925-2.375,2.95-2.375,3.325-2.45.875-.175.975-.175.975-.425,0-.5-1.925-1.775-2.125-1.775s-.275.175-.475.575c-.2.375-.3.425-1.375.425Zm5.5,13.2c.1.1.15.175.225.175.05,0,.625-.075.725-.075.75-.05,1.55-.05,2.3-.05.225,0,.45.025.45.325A11.439,11.439,0,0,1-39.775.15c-.4.3-1.1.7-1.5,1a.279.279,0,0,0-.15.2c0,.075.075.075.15.075A9.253,9.253,0,0,0-35.3-3.325,18.274,18.274,0,0,1-34.05-5.85.776.776,0,0,1-33.475-6h1.725c.2,0,.675,0,.675.625a20.927,20.927,0,0,1-.5,3.9C-31.9-.1-32.525-.1-32.9-.1a6.465,6.465,0,0,1-1.35-.2,4.308,4.308,0,0,0-.525-.175c-.05,0-.15,0-.15.1,0,.075.85,1.15,1,1.375.05.1.25.5.3.575a.556.556,0,0,0,.55.275A2.965,2.965,0,0,0-30.325-.2a21.4,21.4,0,0,0,.8-4.375c.075-.7.175-.85.4-1.1.275-.275.35-.35.35-.55,0-.35-1.4-1.275-1.6-1.275-.175,0-.225.075-.525.525-.2.3-.35.3-1.525.3h-.85c-.4,0-.575-.075-.575-.375a7.7,7.7,0,0,1,.325-1.325c.05-.125.475-.6.475-.725,0-.4-2.325-.925-2.35-.925a.227.227,0,0,0-.25.225,4.1,4.1,0,0,0,.2.6,1.324,1.324,0,0,1,.1.575,10.651,10.651,0,0,1-.15,1.25c-.1.5-.1.7-.625.7-.775,0-2.95-.075-3.1-.1-.125,0-.775-.075-.9-.075a.08.08,0,0,0-.075.075c0,.025,0,.05.1.15Zm-2.525-5.5c.6,0,.75,0,.75.275,0,.35-.65,1.75-.65,1.975,0,.025,0,.125.1.125.125,0,.425-.3.5-.4,1.1-1.2,1.525-1.25,1.95-1.275.675-.025,1.1-.05,1.1-.625,0-.375-.2-.475-.85-.9a16.608,16.608,0,0,0-1.5-.85c-.125,0-.15.05-.5.525-.325.425-.35.475-.7.475H-45.9c-1.275,0-3.025-.075-3.275-.075-.175-.025-.95-.1-1.125-.1a.08.08,0,0,0-.075.075c0,.025.05.075.1.15l.475.575c.1.1.15.175.225.175s.95-.1,1.075-.1c.975-.025,1.8-.025,3.025-.025.225,0,.45.125.45.35A23.293,23.293,0,0,1-48.35-5.125C-48.675-4.7-50.4-2.55-50.4-2.5c0,.125.15.2.225.2a14.365,14.365,0,0,0,3.2-2.825c.925-1.075,1.55-1.925,1.7-2.125.05-.075.175-.2.275-.2.175,0,.175.325.175.55,0,1.525,0,3.7.025,5.2,0,1.5-.025,1.725-1.65,1.725-.175,0-.975-.075-1.125-.075-.075,0-.3,0-.3.125,0,.1.325.2.6.3,1.05.4,1.225.675,1.325.925.15.325.2.425.425.425,2.175,0,2.175-2.1,2.175-2.725s-.025-7.15-.025-8.4c0-2.05,0-2.15.775-2.15Zm24.95,3.6c.7,0,.7.45.7.8,0,.525.05.775.65.775.2,0,1.5-.025,1.5-1.7,0-.7-.05-4.15-.05-4.95,0-.675,0-.75.1-.875.4-.475.425-.525.425-.725,0-.4-1.35-1.55-1.825-1.55-.35,0-.4.075-.925.8a.651.651,0,0,1-.65.3H-19.35a2.153,2.153,0,0,1-1.275-.4c-.225-.125-1.325-.75-1.425-.75-.075,0-.075.075-.075.125,0,.125.1.675.125.8a27.629,27.629,0,0,1,.25,4.275C-21.75-4.5-22.95-1.45-23.575.1c-.1.225-.65,1.325-.65,1.425,0,.075.075.075.1.075.15,0,.325-.15.775-.65,1.3-1.425,2.425-3.95,3.025-7.7.15-1,.175-1.2.7-1.2Zm-2.175-.65c-.7,0-.7-.525-.7-.75,0-.45.1-3.325.1-3.95.025-.775.025-1.1.75-1.1h2.2c.275,0,.65.1.7.425.075.35.075,3.575.075,4.125,0,.925,0,1.25-.775,1.25Zm.45-10.625c-.825,0-2.05-.05-2.9-.1-.175,0-.95-.075-1.125-.075-.025,0-.1,0-.1.05,0,.025.025.05.1.15l.5.575c.1.125.15.175.25.175.15,0,.875-.075,1.025-.075.7-.025,1.475-.05,2.175-.05h4.35c.8,0,1.3-.025,1.3-.225a11.134,11.134,0,0,0-2.3-1.75c-.225,0-.85,1-1,1.175-.1.1-.25.15-1.3.15Zm16.6,7.625c.85,0,1.35,0,1.35-.35a8.362,8.362,0,0,0-2.525-2c-.225,0-.3.125-1,1.275-.275.425-.55.425-1.6.425H-9.625c-.475,0-.475-.3-.475-.7,0-.375-.025-2.25-.025-2.65,0-.275,0-1.575.05-1.7s.125-.15.325-.2c1-.225,5.8-1.55,6.2-1.625.725-.15.825-.175.825-.325,0-.125-.075-.175-.75-.5-.3-.15-1.925-1-1.975-1-.075,0-1.375,1.1-1.6,1.275a9.571,9.571,0,0,1-3.2,1.825c-.225,0-1.65-.525-1.925-.525-.075,0-.075.075-.075.175,0,.2.1,1.1.125,1.3.025.4.275,3.75.275,5.675,0,5.85-.925,8.725-3.425,11.525a1.713,1.713,0,0,0-.375.525c0,.05.05.075.1.075A6.034,6.034,0,0,0-13.525-.65c2.025-2.125,3.075-4.2,3.4-10.175.025-.65.1-.775.575-.775h1.925a.688.688,0,0,1,.65.3c.1.2.1,4.4.1,4.85,0,1.725,0,3.75-.075,5.475-.025.35-.125,2-.125,2.225,0,.4.075.6.575.6.35,0,1.525-.225,1.525-1.375C-4.975-.8-5.05-7.05-5.05-8.45a24.4,24.4,0,0,1,.1-2.825A.632.632,0,0,1-4.3-11.6Z" transform="translate(239.802 22)" fill="#35829f"/>
    <path id="パス_4096" data-name="パス 4096" d="M2.716-5.955v.167a1.37,1.37,0,0,0-.475.048.235.235,0,0,0-.158.246.5.5,0,0,0,.026.143.974.974,0,0,0,.119.226l1.332,2,1.292-2.03a.906.906,0,0,0,.1-.211.5.5,0,0,0,.024-.123.251.251,0,0,0-.207-.255,1.63,1.63,0,0,0-.422-.044v-.167H6.319v.167a.916.916,0,0,0-.488.163,3.247,3.247,0,0,0-.751.866L3.749-2.729V-.976q0,.523.169.653a1.557,1.557,0,0,0,.758.16V0H1.925V-.163a1.326,1.326,0,0,0,.758-.182,1.165,1.165,0,0,0,.147-.736V-2.646L1.652-4.373A10.5,10.5,0,0,0,.8-5.517a.867.867,0,0,0-.6-.27v-.167Zm6.16,3.52a4.024,4.024,0,0,0-.835.369,1.088,1.088,0,0,0-.633.888.675.675,0,0,0,.264.589.64.64,0,0,0,.382.123A1.05,1.05,0,0,0,8.61-.628a.477.477,0,0,0,.266-.413ZM6.626-.875a1.252,1.252,0,0,1,.637-1.063,9.614,9.614,0,0,1,1.613-.716v-.374a1.539,1.539,0,0,0-.088-.624.627.627,0,0,0-.62-.294.854.854,0,0,0-.426.114.363.363,0,0,0-.2.325,1.192,1.192,0,0,0,.022.178,1.263,1.263,0,0,1,.022.16.365.365,0,0,1-.163.343.409.409,0,0,1-.22.057.368.368,0,0,1-.3-.13.445.445,0,0,1-.105-.288.915.915,0,0,1,.38-.644,1.633,1.633,0,0,1,1.114-.336,1.2,1.2,0,0,1,1.156.554,1.912,1.912,0,0,1,.163.883V-.967a1.179,1.179,0,0,0,.035.352.229.229,0,0,0,.237.171.4.4,0,0,0,.167-.031,1.707,1.707,0,0,0,.229-.149V-.4a1.43,1.43,0,0,1-.3.281.884.884,0,0,1-.5.167.489.489,0,0,1-.433-.193A.867.867,0,0,1,8.889-.6a4.138,4.138,0,0,1-.571.431,1.5,1.5,0,0,1-.76.237A.914.914,0,0,1,6.9-.2.9.9,0,0,1,6.626-.875Zm4.5.76a1,1,0,0,0,.457-.114.6.6,0,0,0,.176-.51V-3.01a.715.715,0,0,0-.086-.426.353.353,0,0,0-.283-.1.8.8,0,0,0-.138.009.738.738,0,0,0-.108.031v-.154l.316-.105q.171-.057.563-.207t.413-.149a.024.024,0,0,1,.026.022.512.512,0,0,1,0,.083v.593a3.353,3.353,0,0,1,.751-.547,1.489,1.489,0,0,1,.65-.152.908.908,0,0,1,.721.308,1.335,1.335,0,0,1,.233.453,3.665,3.665,0,0,1,.567-.488,1.543,1.543,0,0,1,.853-.272.922.922,0,0,1,.945.576,2.851,2.851,0,0,1,.136,1.028V-.686a.525.525,0,0,0,.138.424.975.975,0,0,0,.5.147V0H15.98V-.123a.866.866,0,0,0,.5-.154A.7.7,0,0,0,16.6-.76V-2.654a1.6,1.6,0,0,0-.092-.628.63.63,0,0,0-.637-.36,1.009,1.009,0,0,0-.567.189,2.808,2.808,0,0,0-.4.352v2.25a.964.964,0,0,0,.125.541.633.633,0,0,0,.53.2V0H13.546V-.114a.8.8,0,0,0,.532-.2,1.442,1.442,0,0,0,.114-.734v-1.23a3.3,3.3,0,0,0-.088-.932.59.59,0,0,0-.615-.431,1.057,1.057,0,0,0-.527.147,1.657,1.657,0,0,0-.457.385v2.4a.692.692,0,0,0,.116.461.72.72,0,0,0,.508.132V0h-2Zm10.128-2.32a4.024,4.024,0,0,0-.835.369,1.088,1.088,0,0,0-.633.888.675.675,0,0,0,.264.589.64.64,0,0,0,.382.123,1.05,1.05,0,0,0,.556-.163.477.477,0,0,0,.266-.413Zm-2.25,1.56a1.252,1.252,0,0,1,.637-1.063,9.614,9.614,0,0,1,1.613-.716v-.374a1.539,1.539,0,0,0-.088-.624.627.627,0,0,0-.62-.294.854.854,0,0,0-.426.114.363.363,0,0,0-.2.325,1.192,1.192,0,0,0,.022.178,1.263,1.263,0,0,1,.022.16.365.365,0,0,1-.163.343.409.409,0,0,1-.22.057.368.368,0,0,1-.3-.13.445.445,0,0,1-.105-.288.915.915,0,0,1,.38-.644,1.633,1.633,0,0,1,1.114-.336,1.2,1.2,0,0,1,1.156.554,1.912,1.912,0,0,1,.163.883V-.967a1.179,1.179,0,0,0,.035.352.229.229,0,0,0,.237.171.4.4,0,0,0,.167-.031,1.707,1.707,0,0,0,.229-.149V-.4a1.43,1.43,0,0,1-.3.281.884.884,0,0,1-.5.167.489.489,0,0,1-.433-.193A.867.867,0,0,1,21.27-.6a4.138,4.138,0,0,1-.571.431,1.5,1.5,0,0,1-.76.237A.914.914,0,0,1,19.284-.2.9.9,0,0,1,19.007-.875ZM25.5-4.153a1.248,1.248,0,0,1,.589.141,1.406,1.406,0,0,1,.338.255v-1.4a.8.8,0,0,0-.059-.369q-.059-.1-.283-.1a.847.847,0,0,0-.092,0l-.176.018v-.145l.36-.092q.2-.053.4-.11t.347-.11q.07-.022.233-.083l.026.009-.009.461q0,.25-.009.516t0,.525l-.009,3.59a.816.816,0,0,0,.07.4q.07.114.374.114l.1,0a.724.724,0,0,0,.1-.011V-.4l-.637.22-.69.259-.031-.04V-.5A2.294,2.294,0,0,1,26-.114a1.386,1.386,0,0,1-.743.2,1.479,1.479,0,0,1-1.211-.578,2.077,2.077,0,0,1-.464-1.338,2.512,2.512,0,0,1,.556-1.637A1.693,1.693,0,0,1,25.5-4.153Zm.163,3.762a.767.767,0,0,0,.554-.2.56.56,0,0,0,.211-.382V-2.861a.958.958,0,0,0-.305-.806.983.983,0,0,0-.6-.235.965.965,0,0,0-.861.49,2.226,2.226,0,0,0-.308,1.206,2.431,2.431,0,0,0,.327,1.261A1.065,1.065,0,0,0,25.659-.391Zm5.479-2.043a4.024,4.024,0,0,0-.835.369,1.088,1.088,0,0,0-.633.888.675.675,0,0,0,.264.589.64.64,0,0,0,.382.123,1.05,1.05,0,0,0,.556-.163.477.477,0,0,0,.266-.413Zm-2.25,1.56a1.252,1.252,0,0,1,.637-1.063,9.614,9.614,0,0,1,1.613-.716v-.374a1.539,1.539,0,0,0-.088-.624.627.627,0,0,0-.62-.294A.854.854,0,0,0,30-3.832a.363.363,0,0,0-.2.325,1.192,1.192,0,0,0,.022.178,1.263,1.263,0,0,1,.022.16.365.365,0,0,1-.163.343.409.409,0,0,1-.22.057.368.368,0,0,1-.3-.13.445.445,0,0,1-.105-.288.915.915,0,0,1,.38-.644,1.633,1.633,0,0,1,1.114-.336,1.2,1.2,0,0,1,1.156.554,1.912,1.912,0,0,1,.163.883V-.967a1.179,1.179,0,0,0,.035.352.229.229,0,0,0,.237.171.4.4,0,0,0,.167-.031,1.707,1.707,0,0,0,.229-.149V-.4a1.43,1.43,0,0,1-.3.281.884.884,0,0,1-.5.167A.489.489,0,0,1,31.3-.141.867.867,0,0,1,31.151-.6a4.138,4.138,0,0,1-.571.431,1.5,1.5,0,0,1-.76.237A.914.914,0,0,1,29.164-.2.9.9,0,0,1,28.887-.875ZM39.713-2.312,38.671-4.79,37.643-2.312ZM35.828,0V-.163a.729.729,0,0,0,.521-.264,7.313,7.313,0,0,0,.6-1.217L38.821-6.06H39l2.241,5.1a2.168,2.168,0,0,0,.358.631.851.851,0,0,0,.45.165V0h-2.29V-.163a2.018,2.018,0,0,0,.51-.086q.114-.051.114-.248a1.093,1.093,0,0,0-.044-.233,2.534,2.534,0,0,0-.123-.352l-.374-.866H37.485q-.352.883-.42,1.079A1.009,1.009,0,0,0,37-.558a.32.32,0,0,0,.185.316,1.468,1.468,0,0,0,.431.079V0Zm7.1-.145a1.064,1.064,0,0,0,.536-.143A.589.589,0,0,0,43.6-.747V-2.729a1.7,1.7,0,0,0-.081-.622.3.3,0,0,0-.3-.187.817.817,0,0,0-.116.011q-.073.011-.152.029v-.145l.514-.18q.264-.092.365-.132.22-.083.453-.189.031,0,.037.022a.4.4,0,0,1,.007.092v.721a3.358,3.358,0,0,1,.543-.611.836.836,0,0,1,.543-.22.507.507,0,0,1,.365.134.445.445,0,0,1,.141.336.444.444,0,0,1-.108.3.344.344,0,0,1-.27.123A.506.506,0,0,1,45.2-3.4a.475.475,0,0,0-.266-.154q-.154,0-.378.248a.762.762,0,0,0-.224.512V-.809a.657.657,0,0,0,.176.525.883.883,0,0,0,.584.138V0H42.928Zm5.887-4a1.589,1.589,0,0,1,.947.283.784.784,0,0,1,.4.622.422.422,0,0,1-.1.27.377.377,0,0,1-.312.125.39.39,0,0,1-.27-.105.611.611,0,0,1-.169-.308l-.053-.211a.535.535,0,0,0-.2-.33.7.7,0,0,0-.382-.092,1.042,1.042,0,0,0-.846.437,1.824,1.824,0,0,0-.345,1.162,1.987,1.987,0,0,0,.38,1.191,1.2,1.2,0,0,0,1.026.527,1.229,1.229,0,0,0,.813-.3,2.788,2.788,0,0,0,.457-.545l.123.075a3.484,3.484,0,0,1-.527.835,1.616,1.616,0,0,1-1.23.589,1.648,1.648,0,0,1-1.213-.541,2.012,2.012,0,0,1-.527-1.468,2.29,2.29,0,0,1,.576-1.564A1.853,1.853,0,0,1,48.816-4.144Zm2.53,4.021A.769.769,0,0,0,51.818-.3a1.065,1.065,0,0,0,.112-.613V-5.133a.786.786,0,0,0-.064-.363q-.064-.116-.31-.116a.667.667,0,0,0-.094.007l-.1.015v-.158l.477-.138q.283-.081.393-.116l.422-.132.009.031v2.7a2.877,2.877,0,0,1,.492-.466,1.454,1.454,0,0,1,.835-.264.964.964,0,0,1,.971.6,2.067,2.067,0,0,1,.141.831V-.914a1.118,1.118,0,0,0,.108.606.652.652,0,0,0,.442.185V0h-1.9V-.123a.821.821,0,0,0,.492-.18,1.07,1.07,0,0,0,.11-.611v-1.78a1.446,1.446,0,0,0-.143-.69.556.556,0,0,0-.538-.264A1.078,1.078,0,0,0,53-3.4q-.321.246-.321.321V-.914A1.034,1.034,0,0,0,52.8-.3a.854.854,0,0,0,.488.176V0H51.346ZM57.2-5.673A.451.451,0,0,1,57.33-6a.435.435,0,0,1,.325-.136A.44.44,0,0,1,57.978-6a.445.445,0,0,1,.134.327.44.44,0,0,1-.134.323.44.44,0,0,1-.323.134.438.438,0,0,1-.325-.134A.444.444,0,0,1,57.2-5.673Zm-.562,5.55a1.121,1.121,0,0,0,.593-.16q.123-.116.123-.631v-2.1a1.333,1.333,0,0,0-.04-.4.266.266,0,0,0-.277-.18.5.5,0,0,0-.094.009q-.046.009-.266.07v-.136l.189-.062q.769-.25,1.072-.378a.572.572,0,0,1,.158-.053.239.239,0,0,1,.009.066V-.914a1.031,1.031,0,0,0,.121.628.9.9,0,0,0,.547.163V0H56.635Zm5.307-3.929v.316h-.9L61.037-1.2a1.693,1.693,0,0,0,.057.505.406.406,0,0,0,.413.3.5.5,0,0,0,.275-.075,1.441,1.441,0,0,0,.266-.237l.114.1-.1.132a1.406,1.406,0,0,1-.483.435,1.1,1.1,0,0,1-.492.127.693.693,0,0,1-.7-.461,1.911,1.911,0,0,1-.1-.694V-3.735h-.479a.129.129,0,0,1-.033-.026.053.053,0,0,1-.011-.035.1.1,0,0,1,.02-.068,1.318,1.318,0,0,1,.125-.112,3.784,3.784,0,0,0,.437-.406q.134-.156.631-.824a.147.147,0,0,1,.068.009q.011.009.011.066v1.081Zm2.965-.07a1.553,1.553,0,0,1,1.085.428,1.568,1.568,0,0,1,.466,1.215H63.668A2.347,2.347,0,0,0,64.13-.993a1.287,1.287,0,0,0,.989.466A1.244,1.244,0,0,0,65.9-.769a2.426,2.426,0,0,0,.584-.686l.154.053A2.5,2.5,0,0,1,65.96-.369a1.682,1.682,0,0,1-1.211.475,1.481,1.481,0,0,1-1.277-.624,2.392,2.392,0,0,1-.45-1.437,2.338,2.338,0,0,1,.523-1.525A1.674,1.674,0,0,1,64.907-4.122Zm-.255.321a.84.84,0,0,0-.765.444,1.746,1.746,0,0,0-.2.6H65.54a1.824,1.824,0,0,0-.167-.655A.758.758,0,0,0,64.653-3.8Zm5.118-.343a1.589,1.589,0,0,1,.947.283.784.784,0,0,1,.4.622.422.422,0,0,1-.1.27.377.377,0,0,1-.312.125.39.39,0,0,1-.27-.105.611.611,0,0,1-.169-.308l-.053-.211a.535.535,0,0,0-.2-.33.7.7,0,0,0-.382-.092,1.042,1.042,0,0,0-.846.437,1.824,1.824,0,0,0-.345,1.162,1.987,1.987,0,0,0,.38,1.191,1.2,1.2,0,0,0,1.026.527,1.229,1.229,0,0,0,.813-.3,2.788,2.788,0,0,0,.457-.545l.123.075a3.484,3.484,0,0,1-.527.835,1.616,1.616,0,0,1-1.23.589,1.648,1.648,0,0,1-1.213-.541,2.012,2.012,0,0,1-.527-1.468,2.29,2.29,0,0,1,.576-1.564A1.853,1.853,0,0,1,69.771-4.144Zm4.74.092v.316h-.9L73.606-1.2a1.693,1.693,0,0,0,.057.505.406.406,0,0,0,.413.3.5.5,0,0,0,.275-.075,1.441,1.441,0,0,0,.266-.237l.114.1-.1.132a1.406,1.406,0,0,1-.483.435,1.1,1.1,0,0,1-.492.127.693.693,0,0,1-.7-.461,1.911,1.911,0,0,1-.1-.694V-3.735h-.479a.129.129,0,0,1-.033-.026.053.053,0,0,1-.011-.035.1.1,0,0,1,.02-.068,1.318,1.318,0,0,1,.125-.112,3.784,3.784,0,0,0,.437-.406q.134-.156.631-.824a.147.147,0,0,1,.068.009q.011.009.011.066v1.081Zm2.3-.018v2.813a1.152,1.152,0,0,0,.083.479.6.6,0,0,0,.6.334,1.016,1.016,0,0,0,.584-.2,1.715,1.715,0,0,0,.33-.3V-3.353a.56.56,0,0,0-.132-.444,1,1,0,0,0-.527-.127v-.145h1.419V-.976a.6.6,0,0,0,.108.411.618.618,0,0,0,.455.1v.123l-.356.1q-.114.033-.382.121-.114.04-.5.189a.024.024,0,0,1-.026-.02.215.215,0,0,1,0-.046V-.708a2.972,2.972,0,0,1-.545.527,1.349,1.349,0,0,1-.791.264A1.13,1.13,0,0,1,76.4-.189a1.076,1.076,0,0,1-.343-.9V-3.371a.582.582,0,0,0-.149-.47.9.9,0,0,0-.413-.105v-.123ZM80.648-.145a1.064,1.064,0,0,0,.536-.143.589.589,0,0,0,.132-.459V-2.729a1.7,1.7,0,0,0-.081-.622.3.3,0,0,0-.3-.187.817.817,0,0,0-.116.011q-.073.011-.152.029v-.145l.514-.18q.264-.092.365-.132.22-.083.453-.189.031,0,.037.022a.4.4,0,0,1,.007.092v.721a3.358,3.358,0,0,1,.543-.611.836.836,0,0,1,.543-.22.507.507,0,0,1,.365.134.445.445,0,0,1,.141.336.444.444,0,0,1-.108.3.344.344,0,0,1-.27.123.506.506,0,0,1-.336-.154.475.475,0,0,0-.266-.154q-.154,0-.378.248a.762.762,0,0,0-.224.512V-.809a.657.657,0,0,0,.176.525.883.883,0,0,0,.584.138V0H80.648Zm6.23-2.29a4.024,4.024,0,0,0-.835.369,1.088,1.088,0,0,0-.633.888.675.675,0,0,0,.264.589.64.64,0,0,0,.382.123,1.05,1.05,0,0,0,.556-.163.477.477,0,0,0,.266-.413Zm-2.25,1.56a1.252,1.252,0,0,1,.637-1.063,9.614,9.614,0,0,1,1.613-.716v-.374a1.539,1.539,0,0,0-.088-.624.627.627,0,0,0-.62-.294.854.854,0,0,0-.426.114.363.363,0,0,0-.2.325,1.192,1.192,0,0,0,.022.178,1.263,1.263,0,0,1,.022.16.365.365,0,0,1-.163.343.409.409,0,0,1-.22.057.368.368,0,0,1-.3-.13.445.445,0,0,1-.105-.288.915.915,0,0,1,.38-.644,1.633,1.633,0,0,1,1.114-.336,1.2,1.2,0,0,1,1.156.554,1.912,1.912,0,0,1,.163.883V-.967a1.179,1.179,0,0,0,.035.352.229.229,0,0,0,.237.171.4.4,0,0,0,.167-.031,1.707,1.707,0,0,0,.229-.149V-.4a1.43,1.43,0,0,1-.3.281.884.884,0,0,1-.5.167.489.489,0,0,1-.433-.193A.867.867,0,0,1,86.891-.6a4.138,4.138,0,0,1-.571.431,1.5,1.5,0,0,1-.76.237A.914.914,0,0,1,84.9-.2.9.9,0,0,1,84.628-.875Zm4.543.751a1.04,1.04,0,0,0,.554-.165.637.637,0,0,0,.145-.49V-5.071a1.121,1.121,0,0,0-.048-.4.354.354,0,0,0-.356-.185.753.753,0,0,0-.134.013q-.073.013-.182.04v-.145q.593-.158,1.428-.422a.034.034,0,0,1,.037.026.6.6,0,0,1,.007.114V-.76a.659.659,0,0,0,.132.494,1.026,1.026,0,0,0,.545.143V0H89.17Zm7.24-2.852a3.269,3.269,0,0,0,.558,2.1A1.711,1.711,0,0,0,98.339-.2,1.73,1.73,0,0,0,99.7-.859a3.23,3.23,0,0,0,.565-2.116A3.207,3.207,0,0,0,99.693-5.1a1.743,1.743,0,0,0-1.354-.655,1.713,1.713,0,0,0-1.369.679A3.268,3.268,0,0,0,96.41-2.975Zm-1.02,0A3.058,3.058,0,0,1,96.3-5.287a2.842,2.842,0,0,1,2.043-.8,2.839,2.839,0,0,1,2.048.8,3.051,3.051,0,0,1,.9,2.307,3.026,3.026,0,0,1-.932,2.329,2.862,2.862,0,0,1-2.017.773,2.81,2.81,0,0,1-2.1-.857A3.091,3.091,0,0,1,95.39-2.975Zm7.1,2.852A.945.945,0,0,0,103.1-.3a.964.964,0,0,0,.147-.639V-3.757H102.5v-.294h.751a3.208,3.208,0,0,1,.189-1.173,1.318,1.318,0,0,1,1.323-.918,1.518,1.518,0,0,1,.692.154.463.463,0,0,1,.305.413.372.372,0,0,1-.105.259.334.334,0,0,1-.255.114.332.332,0,0,1-.22-.077,1.285,1.285,0,0,1-.22-.27l-.075-.114a.643.643,0,0,0-.145-.156.376.376,0,0,0-.233-.064.448.448,0,0,0-.453.33,1.34,1.34,0,0,0-.066.461v1.042h1.1v.294H104V-.936a.992.992,0,0,0,.134.635,1.225,1.225,0,0,0,.7.178V0h-2.342Zm3.532,0a.945.945,0,0,0,.613-.174.964.964,0,0,0,.147-.639V-3.757h-.751v-.294h.751a3.208,3.208,0,0,1,.189-1.173,1.318,1.318,0,0,1,1.323-.918,1.518,1.518,0,0,1,.692.154.463.463,0,0,1,.305.413.372.372,0,0,1-.105.259.334.334,0,0,1-.255.114.332.332,0,0,1-.22-.077,1.285,1.285,0,0,1-.22-.27l-.075-.114a.643.643,0,0,0-.145-.156.376.376,0,0,0-.233-.064.448.448,0,0,0-.453.33,1.34,1.34,0,0,0-.066.461v1.042h1.1v.294H107.53V-.936a.992.992,0,0,0,.134.635,1.225,1.225,0,0,0,.7.178V0h-2.342Zm4.253-5.55A.451.451,0,0,1,110.407-6a.435.435,0,0,1,.325-.136.44.44,0,0,1,.323.134.445.445,0,0,1,.134.327.44.44,0,0,1-.134.323.44.44,0,0,1-.323.134.438.438,0,0,1-.325-.134A.444.444,0,0,1,110.275-5.673Zm-.562,5.55a1.121,1.121,0,0,0,.593-.16q.123-.116.123-.631v-2.1a1.333,1.333,0,0,0-.04-.4.266.266,0,0,0-.277-.18.5.5,0,0,0-.094.009q-.046.009-.266.07v-.136l.189-.062q.769-.25,1.072-.378a.572.572,0,0,1,.158-.053.239.239,0,0,1,.009.066V-.914a1.031,1.031,0,0,0,.121.628.9.9,0,0,0,.547.163V0h-2.136Zm5.255-4.021a1.589,1.589,0,0,1,.947.283.784.784,0,0,1,.4.622.422.422,0,0,1-.1.27.377.377,0,0,1-.312.125.39.39,0,0,1-.27-.105.611.611,0,0,1-.169-.308l-.053-.211a.535.535,0,0,0-.2-.33.7.7,0,0,0-.382-.092,1.042,1.042,0,0,0-.846.437,1.824,1.824,0,0,0-.345,1.162,1.987,1.987,0,0,0,.38,1.191,1.2,1.2,0,0,0,1.026.527,1.229,1.229,0,0,0,.813-.3,2.788,2.788,0,0,0,.457-.545l.123.075a3.484,3.484,0,0,1-.527.835,1.616,1.616,0,0,1-1.23.589,1.648,1.648,0,0,1-1.213-.541,2.012,2.012,0,0,1-.527-1.468,2.29,2.29,0,0,1,.576-1.564A1.853,1.853,0,0,1,114.967-4.144Zm4.512.022a1.553,1.553,0,0,1,1.085.428,1.568,1.568,0,0,1,.466,1.215H118.24A2.347,2.347,0,0,0,118.7-.993a1.287,1.287,0,0,0,.989.466,1.244,1.244,0,0,0,.778-.242,2.426,2.426,0,0,0,.584-.686l.154.053a2.5,2.5,0,0,1-.675,1.033,1.682,1.682,0,0,1-1.211.475,1.481,1.481,0,0,1-1.277-.624,2.392,2.392,0,0,1-.45-1.437,2.338,2.338,0,0,1,.523-1.525A1.674,1.674,0,0,1,119.479-4.122Zm-.255.321a.84.84,0,0,0-.765.444,1.746,1.746,0,0,0-.2.6h1.854a1.824,1.824,0,0,0-.167-.655A.758.758,0,0,0,119.224-3.8Z" transform="translate(57.583 39.063)" fill="#35829f"/>
    <g id="グループ_1" data-name="グループ 1" transform="translate(0 2.514)">
      <path id="パス_1" data-name="パス 1" d="M0,0V37.672l21.741-16.22,21.741,16.22V0Z" transform="translate(0 0)" fill="#35829f"/>
      <path id="パス_2" data-name="パス 2" d="M37,61.67l.048,2.2,2.179-.031-.048-2.2Z" transform="translate(-18.037 -29.877)" fill="#35829f"/>
      <path id="パス_3" data-name="パス 3" d="M39.03,54.929l-2.179.03.048,2.2,2.179-.03Z" transform="translate(-17.966 -26.77)" fill="#35829f"/>
      <path id="パス_4" data-name="パス 4" d="M45.735,57.031l-.048-2.2-2.178.031.047,2.2Z" transform="translate(-21.212 -26.724)" fill="#35829f"/>
      <path id="パス_5" data-name="パス 5" d="M43.7,63.772l2.179-.03-.048-2.2-2.179.031Z" transform="translate(-21.283 -29.828)" fill="#35829f"/>
    </g>
  </g>
</svg>
