<svg xmlns="http://www.w3.org/2000/svg" width="392.403" height="76.23" viewBox="0 0 392.403 76.23">
  <path id="パス_239" data-name="パス 239" d="M150.92,22.23c1.26-1.89.54-3.87-1.26-4.41-2.25-.63-5.31,0-10.08,3.24C135.71,23.67,125,33.75,113.3,45a91.735,91.735,0,0,0-18.54-1.8,100.477,100.477,0,0,0-13.32.81C58.67,46.8,33.2,59.67,33.56,75.87c.27,12.51,11.07,16.47,20.25,16.47a26.883,26.883,0,0,0,6.21-.63C79.28,87.66,91.61,73.17,107,56.07c2.52-2.79,5.13-5.58,7.83-8.46a88.136,88.136,0,0,1,12.24,4.05c-4.14,6.39-8.73,13.68-10.71,18.45-2.25,5.31-3.15,9.18-3.15,12.06,0,4.95,2.61,7.11,5.67,8.64a7.546,7.546,0,0,0,3.42.72,13.971,13.971,0,0,0,9.9-4.77c.45-.63.54-1.53.09-1.62-.18-.09-.63.09-1.17.72a10.515,10.515,0,0,1-7.2,3.51,5.119,5.119,0,0,1-2.97-.81c-1.17-.72-1.89-2.07-1.89-4.41,0-3.69,1.8-9.72,6.3-18.81,1.71-3.69,3.87-7.65,6.12-11.61a26.05,26.05,0,0,1,4.05,2.61,1.025,1.025,0,0,0,1.53-.18c.36-.54.36-1.26-.63-2.07a16.867,16.867,0,0,0-3.78-2.43C139.94,38.88,148.13,26.19,150.92,22.23Zm-1.89-2.61c.54.27.72,1.26-.09,2.07-.81.99-11.52,14.49-20.52,27.99a73.555,73.555,0,0,0-11.79-3.96c10.71-11.25,21.78-21.96,25.83-24.3C145.16,19.89,147.77,18.99,149.03,19.62ZM111.41,46.8c-4.41,4.23-8.91,8.64-13.23,12.69C86.84,70.29,76.04,79.56,61.1,83.88a40.82,40.82,0,0,1-11.07,1.71c-6.48,0-12.69-2.16-13.95-9.36C33.74,62.46,57.59,50.31,76.4,46.89a106.21,106.21,0,0,1,18.27-1.71A83.789,83.789,0,0,1,111.41,46.8Zm82.71,24.12c1.44-1.62-.18-2.97-1.8-1.17A96.561,96.561,0,0,1,180.8,80.19c-4.32,3.42-8.37,6.21-11.25,6.57-1.8.27-2.34-.63-2.25-1.62.54-3.69,5.67-10.35,11.79-17.28,2.52-2.88,4.32-6.39,4.32-9.09a4.06,4.06,0,0,0-3.78-4.32c-5.31-.99-12.51,4.23-15.03,6.21,2.43-3.42,3.78-5.4,3.78-5.85-.09-.54-3.6-.45-4.14,0-.9.72-5.04,6.3-12.06,15.84-7.83,10.53-12.42,16.74-12.69,18.27-.09.81,2.34,1.53,3.33,1.26.72-.09,13.5-18.27,13.5-18.27,3.42-4.59,8.82-8.91,13.32-11.97,3.96-2.61,8.1-4.68,9.99-2.97,2.34,2.16-3.78,8.55-12.15,15.48-3.96,3.33-7.83,7.47-7.47,12.06.27,3.69,3.6,5.4,6.75,5.49,4.32,0,9.99-4.23,16.47-9.09A77.2,77.2,0,0,0,194.12,70.92Zm67.41-54.18a3.776,3.776,0,0,0-2.16-.63c-5.49,0-12.69,11.25-17.55,19.08-2.97,4.77-7.65,12.15-11.88,18.9a4.556,4.556,0,0,0-2.52-.54c-5.22,0-16.02,4.14-24.75,14.49-5.76,6.75-7.38,11.79-7.38,15.21,0,6.12,4.05,7.02,5.85,7.02,2.88,0,6.48-2.25,12.15-7.29a11.028,11.028,0,0,0-.18,1.71,5.364,5.364,0,0,0,5.4,5.49c5.67,0,13.59-6.57,16.2-8.55,4.86-3.6,12.33-10.17,12.33-11.7a.9.9,0,0,0-.9-.9,1.147,1.147,0,0,0-.99.45c-1.98,2.16-18.09,17.55-23.67,17.55-1.08,0-1.53-.99-1.53-2.16,0-3.15,2.7-8.82,5.94-14.58,9.63-10.26,20.7-22.86,24.84-28.26,5.94-7.74,12.06-17.46,12.06-22.5A3.2,3.2,0,0,0,261.53,16.74Zm-1.98,2.61c.36.18.54.63.54,1.26,0,3.69-6.21,13.77-11.43,20.61-4.41,5.67-11.25,13.5-17.55,20.34,1.53-2.52,3.06-4.86,4.05-6.48,4.59-7.29,19.62-35.82,23.94-35.82A.811.811,0,0,1,259.55,19.35ZM228.68,56.16c-3.24,5.13-6.12,9.63-7.56,12.06-1.62,2.7-4.32,6.3-6.12,9.9-4.32,4.59-9.27,9.45-11.88,9.45-1.53,0-2.16-1.71-2.16-3.24,0-10.71,18-28.71,25.74-28.71A3.854,3.854,0,0,1,228.68,56.16Zm70.29,14.85a2.178,2.178,0,0,0,.54-1.17c0-.54-.45-.81-.99-.81a1.353,1.353,0,0,0-.99.36c-1.62,2.16-8.1,7.83-10.98,10.17-3.33,2.7-9.63,7.38-12.69,7.38-.9,0-1.53-.45-1.53-1.8,0-3.6,2.43-7.92,7.02-15.03,4.23-6.57,10.17-14.4,10.17-15.12,0-.27-.36-.36-.9-.36-1.98,0-1.89.18-4.68,2.97v-.63c0-1.71-1.08-3.42-4.41-3.42-6.3,0-17.91,6.03-25.92,16.2-4.14,5.22-5.85,9.9-5.85,13.5,0,3.96,2.25,6.84,5.58,6.84,4.32,0,8.73-3.69,12.51-8.01a9.358,9.358,0,0,0-.45,2.61,5.283,5.283,0,0,0,5.67,5.49c4.86-.09,12.6-5.94,15.75-8.28C290.33,79.29,296.9,73.53,298.97,71.01Zm-18.18-9.63c-3.87,4.41-6.75,7.92-10.26,12.6-3.78,5.13-11.52,13.5-15.03,13.5-1.35,0-2.07-1.35-2.07-3.15-.09-3.78,3.15-10.62,9.72-18.09,6.03-6.84,12.6-10.71,16.02-10.71a2.521,2.521,0,0,1,2.7,2.79A5.046,5.046,0,0,1,280.79,61.38Zm66.24,9.54c1.44-1.62-.18-2.97-1.8-1.17a96.56,96.56,0,0,1-11.52,10.44c-4.32,3.42-8.37,6.21-11.25,6.57-1.8.27-2.34-.63-2.25-1.62.54-3.69,5.67-10.35,11.79-17.28,2.52-2.88,4.32-6.39,4.32-9.09a4.06,4.06,0,0,0-3.78-4.32c-5.31-.99-12.51,4.23-15.03,6.21,2.43-3.42,3.78-5.4,3.78-5.85-.09-.54-3.6-.45-4.14,0-.9.72-5.04,6.3-12.06,15.84-7.83,10.53-12.42,16.74-12.69,18.27-.09.81,2.34,1.53,3.33,1.26.72-.09,13.5-18.27,13.5-18.27,3.42-4.59,8.82-8.91,13.32-11.97,3.96-2.61,8.1-4.68,9.99-2.97,2.34,2.16-3.78,8.55-12.15,15.48-3.96,3.33-7.83,7.47-7.47,12.06.27,3.69,3.6,5.4,6.75,5.49,4.32,0,9.99-4.23,16.47-9.09A77.2,77.2,0,0,0,347.03,70.92Zm36.9-36.45c.18-.27.09-.45-.18-.54a3.934,3.934,0,0,0-2.7.36c-1.71,1.26-7.65,8.46-14.04,16.65h-6.66c-1.53,0-2.7.99-2.61,1.71,0,.36.36.63,1.17.63h6.3c-1.62,2.07-3.15,4.23-4.68,6.21-8.1,10.71-12.51,16.38-14.13,23.13-.81,3.42,0,6.84,4.68,7.47,4.86.63,13.14-5.76,16.47-8.19,3.51-2.7,10.08-8.37,12.15-10.89.72-.72.72-1.35.45-1.71a1.392,1.392,0,0,0-1.89.09c-1.62,2.07-8.1,7.83-10.98,10.17-2.79,2.25-7.74,5.76-10.98,7.02-1.62.72-3.69.54-3.15-2.34.81-5.04,5.22-12.33,12.6-23.49,1.8-2.7,3.42-5.22,4.95-7.47h6.84c1.62,0,2.79-1.08,2.61-1.8-.09-.36-.45-.54-1.26-.54h-6.57C377.99,42.39,381.59,37.53,383.93,34.47Zm41.76,34.56c-.36-.36-1.26-.18-2.25,1.08A114.058,114.058,0,0,1,410.12,81.9c-2.88,2.07-8.82,5.85-14.04,5.85a7.721,7.721,0,0,1-4.68-1.35,5.821,5.821,0,0,1-2.43-5.13,14.184,14.184,0,0,1,.99-4.86,41.377,41.377,0,0,0,14.67-6.57c5.58-3.96,14.49-12.96,11.16-15.39a5.405,5.405,0,0,0-3.33-.9c-5.67,0-15.12,4.86-22.23,12.15-5.4,5.58-8.64,11.88-8.64,16.83a7.955,7.955,0,0,0,3.78,7.2,10.067,10.067,0,0,0,5.67,1.44c7.2,0,16.2-4.95,20.43-7.92,5.22-3.78,11.88-9.63,13.77-11.88C426.05,70.38,426.14,69.39,425.69,69.03ZM414.08,55.98c1.53,1.53-5.4,8.37-10.8,12.15a38.246,38.246,0,0,1-12.33,5.94,33.6,33.6,0,0,1,5.85-8.73C403.64,58.41,412.46,54.18,414.08,55.98Z" transform="translate(-33.556 -16.11)" fill="#fff"/>
</svg>
