<svg xmlns="http://www.w3.org/2000/svg" width="290.157" height="86.458" viewBox="0 0 290.157 86.458">
  <path id="パス_241" data-name="パス 241" d="M85.941,22.2c0-.3-.3-.666-.962-.666a6.771,6.771,0,0,0-1.258-.074,5.466,5.466,0,0,0-2.368-4.736c-1.406-1.036-3.774-1.554-6.882-1.554-10.212,0-28.194,5.846-43.512,18.8C20.081,43.142,16.677,51.8,16.677,58.46a16.125,16.125,0,0,0,3.108,9.916C23.707,73.408,31.107,75.7,39.469,75.7a51.786,51.786,0,0,0,10.508-1.11c15.17-3.108,21.9-9.768,26.048-13.838,1.258-1.184,1.554-2.072,1.258-2.442-.3-.444-1.332-.148-2.442,1.184C72.177,62.53,63.963,69.634,49.459,72.52a39.345,39.345,0,0,1-6.956.592c-6.808,0-14.356-1.7-17.39-7.4a13.465,13.465,0,0,1-1.48-6.364c0-8.214,6.142-19.61,22.126-30.932C57.525,19.98,68.4,16.872,74.915,16.872a9.521,9.521,0,0,1,4.958,1.036A4.22,4.22,0,0,1,81.8,21.534a15.573,15.573,0,0,0-7.1,2.368c-2.812,1.85-3.922,4.884-2.812,6.29a3.3,3.3,0,0,0,2.812,1.11,8.657,8.657,0,0,0,5.106-1.85,12.5,12.5,0,0,0,3.774-6.808h1.11C85.5,22.792,85.867,22.5,85.941,22.2Zm-4.218.666a8.582,8.582,0,0,1-3.182,5.106c-2.516,1.776-4.44,1.776-4.884,1.11-.592-.888.444-2.664,2.072-3.922A15.338,15.338,0,0,1,81.723,22.866ZM120.2,58.09c.814-.962-.518-2.146-1.554-.888-1.11,1.332-5.846,6.29-9.472,7.4a10.143,10.143,0,0,1-3.256.592,5.585,5.585,0,0,1-3.182-.962,41.028,41.028,0,0,0,3.626-4.588c2.664-3.922,3.922-7.4,3.922-10.138,0-3.256-1.85-5.328-5.4-5.328-6.66,0-16.724,6.956-22.5,15.466-2.664,3.848-3.922,7.4-3.922,10.138,0,3.256,1.85,5.328,5.476,5.328,4.884,0,11.692-3.848,17.242-9.25a7.982,7.982,0,0,0,4.366,1.184,15.782,15.782,0,0,0,3.922-.592C114.209,65.194,119.315,59.126,120.2,58.09Zm-15.1-.666a3.866,3.866,0,0,0-2.294-.592,6.283,6.283,0,0,0-3.922,1.332,3.716,3.716,0,0,0-1.036,4.884,6.338,6.338,0,0,0,1.554,1.7C95.191,69.042,90.529,72,87.347,72c-2.072,0-3.034-1.258-3.034-3.33,0-2.368,1.258-5.772,3.848-9.62,4.81-7.1,12.284-12.876,16.65-12.876,2.072,0,3.108,1.258,3.108,3.33C107.919,51.5,106.957,54.316,105.107,57.424Zm54.464.888c1.184-1.332-.148-2.442-1.48-.962a79.394,79.394,0,0,1-9.472,8.584c-3.552,2.812-6.882,5.106-9.25,5.4-1.48.222-1.924-.518-1.85-1.332.444-3.034,4.662-8.51,9.694-14.208,2.072-2.368,3.552-5.254,3.552-7.474a3.338,3.338,0,0,0-3.108-3.552c-4.366-.814-10.286,3.478-12.358,5.106,2-2.812,3.108-4.44,3.108-4.81-.074-.444-2.96-.37-3.4,0-.74.592-4.144,5.18-9.916,13.024-6.438,8.658-10.212,13.764-10.434,15.022-.074.666,1.924,1.258,2.738,1.036.592-.074,11.1-15.022,11.1-15.022,2.812-3.774,7.252-7.326,10.952-9.842,3.256-2.146,6.66-3.848,8.214-2.442,1.924,1.776-3.108,7.03-9.99,12.728-3.256,2.738-6.438,6.142-6.142,9.916.222,3.034,2.96,4.44,5.55,4.514,3.552,0,8.214-3.478,13.542-7.474A63.475,63.475,0,0,0,159.571,58.312Zm37-1.554a.939.939,0,0,0-.444-.074c-1.11-.074-2.812,3.33-11.692,10.138C179.551,70.6,175.185,72.3,172.3,72.3c-3.034,0-4.81-2.22-4.81-5.92,0-2.812,1.11-6.438,3.7-10.36,4.44-6.808,9.324-9.62,11.988-9.62,1.184,0,1.85.518,1.85,1.332,0,2.812-3.256,4.736-3.256,4.958a3.9,3.9,0,0,0,2.886,1.85.955.955,0,0,0,.814-.37c.3-.444,2.294-3.4,2.294-5.92,0-1.628-.962-3.626-3.922-3.626-6.586,0-22.126,11.322-22.126,22.348,0,4.662,3.4,7.548,9.176,7.548,5.4,0,9.916-3.108,13.838-5.92,5.846-4.144,12.136-10.138,12.136-11.174A.938.938,0,0,0,196.571,56.758Zm37.666,0c-.3-.3-1.036-.148-1.85.888a93.781,93.781,0,0,1-10.952,9.694c-2.368,1.7-7.252,4.81-11.544,4.81a6.348,6.348,0,0,1-3.848-1.11,4.786,4.786,0,0,1-2-4.218,11.663,11.663,0,0,1,.814-4,34.021,34.021,0,0,0,12.062-5.4c4.588-3.256,11.914-10.656,9.176-12.654a4.444,4.444,0,0,0-2.738-.74c-4.662,0-12.432,4-18.278,9.99-4.44,4.588-7.1,9.768-7.1,13.838a6.541,6.541,0,0,0,3.108,5.92,8.278,8.278,0,0,0,4.662,1.184c5.92,0,13.32-4.07,16.8-6.512a87.433,87.433,0,0,0,11.322-9.768C234.533,57.868,234.607,57.054,234.237,56.758Zm-9.546-10.73c1.258,1.258-4.44,6.882-8.88,9.99A31.447,31.447,0,0,1,205.673,60.9a27.625,27.625,0,0,1,4.81-7.178C216.107,48.026,223.359,44.548,224.691,46.028Zm51.874,12.21c.962-1.184-.518-2.22-1.554-.888a128.914,128.914,0,0,1-9.916,8.88,30.652,30.652,0,0,1-8.806,5.254,12.522,12.522,0,0,1-4.884,1.11,24.214,24.214,0,0,0,7.4-7.77c2.072-3.256,4.81-9.842,4.81-14.726,0-2.442-.74-4.44-2.59-5.328a6.03,6.03,0,0,0-2.294-.444c-2.738,0-5.846,1.554-8.51,3.552.962-1.48,1.48-2.368,1.554-2.442.074-.518-3.33-.888-3.922-.148-.3.37-2.664,4.44-5.55,9.4-5.032,5.032-9.99,10.952-13.986,15.614-9.4,11.026-23.828,28.786-19.018,31.154,4.81,2.442,20.5-21.46,25.974-30.34.814-1.332,1.776-2.886,2.812-4.514,1.11,5.846,4.366,8.732,11.988,8.436,6.66-.3,12.21-4.736,15.762-7.326A83.393,83.393,0,0,0,276.565,58.238Zm-17.39-11.766a2.806,2.806,0,0,1,.962,2.442c0,3.182-2.146,8.584-5.846,13.764-5.846,7.992-9.916,9.25-11.914,8.51s-2.886-4.514-2.664-7.1c2.516-3.922,4.884-7.474,7.1-10.952C252.441,48.248,257.029,45.14,259.175,46.472ZM238.6,61.124c-2.22,3.774-4.292,7.326-5.7,9.768-4.292,7.252-19.462,28.564-21.312,26.936-1.924-1.7,7.844-12.728,18.5-26.64A124.62,124.62,0,0,1,238.6,61.124Zm68.154-32.782c.148-.222.074-.37-.148-.444a3.235,3.235,0,0,0-2.22.3c-1.406,1.036-6.29,6.956-11.544,13.69h-5.476c-1.258,0-2.22.814-2.146,1.406,0,.3.3.518.962.518h5.18c-1.332,1.7-2.59,3.478-3.848,5.106-6.66,8.806-10.286,13.468-11.618,19.018-.666,2.812,0,5.624,3.848,6.142,4,.518,10.8-4.736,13.542-6.734a88.081,88.081,0,0,0,9.99-8.954c.592-.592.592-1.11.37-1.406a1.144,1.144,0,0,0-1.554.074,93.1,93.1,0,0,1-9.028,8.362c-2.294,1.85-6.364,4.736-9.028,5.772-1.332.592-3.034.444-2.59-1.924.666-4.144,4.292-10.138,10.36-19.314,1.48-2.22,2.812-4.292,4.07-6.142H301.5c1.332,0,2.294-.888,2.146-1.48-.074-.3-.37-.444-1.036-.444h-5.4C301.873,34.854,304.833,30.858,306.757,28.342Z" transform="translate(-16.677 -15.17)" fill="#35829f"/>
</svg>
