<svg xmlns="http://www.w3.org/2000/svg" width="263.862" height="77.362" viewBox="0 0 263.862 77.362">
  <path id="パス_270" data-name="パス 270" d="M126.431,28.764c1.316.094,1.316-1.316-.564-1.41a4.594,4.594,0,0,0-1.222-.094,6.963,6.963,0,0,0-1.786-4.982c-2.068-2.162-6.11-3.1-11-3.1a56.084,56.084,0,0,0-23.03,5.358c-9.776,4.888-17.3,11.186-18.048,18.612-.47,3.854,1.786,7.52,4.794,9.87-13.16,5.64-30.08,15.7-30.08,27.918a13.892,13.892,0,0,0,1.222,5.64c3.29,7.52,11.562,9.964,20.492,9.964,9.964,0,20.68-3.008,26.508-5.264,11.938-4.606,19.364-11.75,22.278-15.322.94-1.222.846-1.88.188-1.974-.658-.188-1.786.282-2.82,1.5-2.914,3.478-9.682,9.118-20.21,13.442C88.079,90.992,79.807,93.53,72.1,93.53c-6.956,0-13.442-2.068-16.544-8.272a9.29,9.29,0,0,1-.94-4.23c0-9.588,12.22-22.09,23.03-26.6,3.948,2.35,9.494,3.478,14.288,3.478a23.525,23.525,0,0,0,3.76-.282c5.358-.846,7.332-3.1,7.05-5.64-.282-2.82-3.854-3.854-8.178-3.666a55.756,55.756,0,0,0-13.536,2.538A6.762,6.762,0,0,1,79.9,48.88a10.411,10.411,0,0,1-.752-4.136c0-6.016,4.418-12.878,12.22-17.39,6.862-3.948,15.134-6.2,21.338-6.2,3.854,0,6.862.846,8.366,2.726a5.424,5.424,0,0,1,1.222,3.478,19.88,19.88,0,0,0-6.2,1.5c-4.324,1.786-8.93,6.58-6.2,9.776a3.969,3.969,0,0,0,3.008,1.128,11.189,11.189,0,0,0,7.426-3.29,14.809,14.809,0,0,0,4.23-7.708Zm-4.324.282a13.82,13.82,0,0,1-2.726,5.452c-1.692,1.692-6.11,4.136-7.426,2.538-1.316-1.692,1.034-4.136,3.384-5.64A18.484,18.484,0,0,1,122.107,29.046Zm-21.9,22.936c.282,1.88-1.692,3.666-5.922,3.76-4.7.094-8.836-1.034-11.468-3.1a50.385,50.385,0,0,1,8.93-2.35c1.128-.094,2.162-.188,3.2-.188C97.855,50.1,99.923,50.666,100.205,51.982Zm72.756,20.4a1.024,1.024,0,0,0-1.692.188,94.433,94.433,0,0,1-6.956,6.674c-2.444,2.162-5.734,4.794-9.4,4.794a6.793,6.793,0,0,1-3.478-.846,4.967,4.967,0,0,1-2.256-2.35c.752-.846,1.6-1.692,2.444-2.632,8.554-9.682,14.476-20.68,11.186-22-3.1-1.316-10.528,2.538-14.852,10.716a22.845,22.845,0,0,0-2.444,9.87,14.27,14.27,0,0,0,.47,3.572c-6.3,6.016-13.442,11-17.3,10.058-1.6-.376-2.162-1.974-2.162-3.76a13.067,13.067,0,0,1,1.222-5.17c4.982-10.9,13.63-23.594,13.536-23.876-.376-1.034-2.068-.752-2.538-.47-1.034.658-10.34,10.434-14.476,16.92-2.726,4.418-6.11,10.246-5.17,14.476.752,3.384,3.1,5.358,6.862,5.546,3.854.188,12.314-3.1,21.15-11.28a7.2,7.2,0,0,0,2.914,2.632,10,10,0,0,0,4.23,1.034c3.76,0,7.144-2.256,9.87-4.23a74.347,74.347,0,0,0,8.742-8.084A1.424,1.424,0,0,0,172.961,72.38Zm-13.536-12.6c1.5,1.316-3.384,9.776-9.306,16.45-.564.564-1.128,1.222-1.786,1.88a18.348,18.348,0,0,1,2.068-9.87C154.631,60.442,158.3,58.844,159.425,59.784ZM220.807,72.1c-.376-.376-1.316-.188-2.35,1.128A119.131,119.131,0,0,1,204.545,85.54c-3.008,2.162-9.212,6.11-14.664,6.11a8.064,8.064,0,0,1-4.888-1.41,6.08,6.08,0,0,1-2.538-5.358,14.814,14.814,0,0,1,1.034-5.076,43.216,43.216,0,0,0,15.322-6.862c5.828-4.136,15.134-13.536,11.656-16.074a5.645,5.645,0,0,0-3.478-.94c-5.922,0-15.792,5.076-23.218,12.69-5.64,5.828-9.024,12.408-9.024,17.578a8.308,8.308,0,0,0,3.948,7.52,10.515,10.515,0,0,0,5.922,1.5c7.52,0,16.92-5.17,21.338-8.272,5.452-3.948,12.408-10.058,14.382-12.408C221.183,73.508,221.277,72.474,220.807,72.1Zm-12.126-13.63c1.6,1.6-5.64,8.742-11.28,12.69a39.946,39.946,0,0,1-12.878,6.2,35.092,35.092,0,0,1,6.11-9.118C197.777,61.006,206.989,56.588,208.681,58.468Zm62.04,15.6c1.5-1.692-.188-3.1-1.88-1.222a100.851,100.851,0,0,1-12.032,10.9c-4.512,3.572-8.742,6.486-11.75,6.862-1.88.282-2.444-.658-2.35-1.692.564-3.854,5.922-10.81,12.314-18.048,2.632-3.008,4.512-6.674,4.512-9.494a4.24,4.24,0,0,0-3.948-4.512c-5.546-1.034-13.066,4.418-15.7,6.486,2.538-3.572,3.948-5.64,3.948-6.11-.094-.564-3.76-.47-4.324,0-.94.752-5.264,6.58-12.6,16.544-8.178,11-12.972,17.484-13.254,19.082-.094.846,2.444,1.6,3.478,1.316.752-.094,14.1-19.082,14.1-19.082,3.572-4.794,9.212-9.306,13.912-12.5,4.136-2.726,8.46-4.888,10.434-3.1,2.444,2.256-3.948,8.93-12.69,16.168-4.136,3.478-8.178,7.8-7.8,12.6.282,3.854,3.76,5.64,7.05,5.734,4.512,0,10.434-4.418,17.2-9.494A80.628,80.628,0,0,0,270.721,74.072ZM309.261,36c.188-.282.094-.47-.188-.564a4.109,4.109,0,0,0-2.82.376c-1.786,1.316-7.99,8.836-14.664,17.39h-6.956c-1.6,0-2.82,1.034-2.726,1.786,0,.376.376.658,1.222.658h6.58c-1.692,2.162-3.29,4.418-4.888,6.486-8.46,11.186-13.066,17.108-14.758,24.158-.846,3.572,0,7.144,4.888,7.8,5.076.658,13.724-6.016,17.2-8.554,3.666-2.82,10.528-8.742,12.69-11.374.752-.752.752-1.41.47-1.786a1.454,1.454,0,0,0-1.974.094c-1.692,2.162-8.46,8.178-11.468,10.622-2.914,2.35-8.084,6.016-11.468,7.332-1.692.752-3.854.564-3.29-2.444.846-5.264,5.452-12.878,13.16-24.534,1.88-2.82,3.572-5.452,5.17-7.8h7.144c1.692,0,2.914-1.128,2.726-1.88-.094-.376-.47-.564-1.316-.564h-6.862C303.057,44.274,306.817,39.2,309.261,36Z" transform="translate(-45.497 -19.176)" fill="#35829f"/>
</svg>
