<svg xmlns="http://www.w3.org/2000/svg" width="396" height="360" viewBox="0 0 396 360">
  <g id="figure02" transform="translate(-271.147 -4601.501)">
    <g id="bg" transform="translate(271.147 4601.501)" fill="#fff" stroke="#1a283a" stroke-width="0.5">
      <rect width="396" height="360" stroke="none"/>
      <rect x="0.25" y="0.25" width="395.5" height="359.5" fill="none"/>
    </g>
    <path id="パス_262" data-name="パス 262" d="M-30.74-4.941l1.593,4.077.486-.351a1.439,1.439,0,0,1,.81-.216,4.177,4.177,0,0,1,1.323.243,5.777,5.777,0,0,0,1.566.3A3.7,3.7,0,0,0-21.4-4.617a3.388,3.388,0,0,0-1.161-2.619,6.907,6.907,0,0,0-3.294-1.377c-2.349-.54-3.186-1.134-3.186-2.268,0-1.08.837-1.782,2.133-1.782,1.485,0,3.159,1.161,4.4,3.024l.648-.459-1.485-3.564-.324.243a1.725,1.725,0,0,1-.891.27,2.306,2.306,0,0,1-.891-.216,4.529,4.529,0,0,0-1.485-.3,3.388,3.388,0,0,0-3.4,3.4c0,2.052,1.4,3.267,4.59,4.023a6.925,6.925,0,0,1,1.971.621,2.066,2.066,0,0,1,.918,1.7A2.079,2.079,0,0,1-25.1-1.89c-1.7,0-3.78-1.377-4.968-3.375Zm20.385-7.317H-6.9v-1.026h-3.456v-4.185h-.837C-11.569-14.8-12.3-13.689-14-13.041v.783h1.7v7.614a4.767,4.767,0,0,0,.4,2.592A2.538,2.538,0,0,0-9.545-.891a4.172,4.172,0,0,0,3.51-2.025l-.594-.432c-.891.837-1.323,1.08-2.079,1.08-1.269,0-1.647-.675-1.647-2.889Zm21.6,4.32c-.351-3.483-2.322-5.724-5.13-5.724-3.078,0-5.8,3.186-5.8,6.831a5.658,5.658,0,0,0,5.7,5.94,6.49,6.49,0,0,0,5.346-2.916l-.567-.432a5.36,5.36,0,0,1-4.05,1.971c-2.268,0-3.807-1.458-4.158-3.942A6.953,6.953,0,0,1,2.47-7.938Zm-8.586-1c.351-2.511,1.539-3.888,3.348-3.888,1.836,0,2.808,1.242,3,3.888ZM22.477-13.8l-3.726,1.161v.7c1.566.162,1.782.405,1.782,1.944V.729c0,1.512-.243,1.755-1.782,1.755V3.4h5.508V2.484h-.081c-1.485,0-1.7-.243-1.7-1.755V-2.457A4.7,4.7,0,0,0,25.771-.891c2.7,0,4.86-2.862,4.86-6.453,0-3.483-2.187-6.318-4.833-6.318A4.729,4.729,0,0,0,22.477-12.1Zm0,2.781A3.383,3.383,0,0,1,25.2-12.447c2.106,0,3.213,1.755,3.213,5.211,0,3.321-1.134,5.022-3.294,5.022A3.678,3.678,0,0,1,22.477-3.4Z" transform="translate(359.147 4677.501)" fill="#35829f"/>
    <path id="パス_261" data-name="パス 261" d="M-29.322-20.682c0,10.26,5.616,19.062,12.15,19.062s12.1-8.748,12.1-19.062-5.562-19.062-12.1-19.062C-23.76-39.744-29.322-31-29.322-20.682Zm5.508-.216c0-11.07,2.214-16.794,6.642-16.794,4.374,0,6.588,5.67,6.588,17.01S-12.8-3.672-17.226-3.672-23.814-9.4-23.814-20.9ZM4.86-2.43H26.082l2.43-10.476-1.728-.486a22.524,22.524,0,0,1-1.62,3.726c-1.3,2.106-2.43,2.538-5.94,2.538H9.126c2.538-3.618,4.374-5.4,9.72-9.828,7.236-5.832,9.342-8.694,9.342-13.23,0-5.562-4.59-9.558-10.962-9.558a11.2,11.2,0,0,0-8.208,3.132A8.6,8.6,0,0,0,6.1-30.51c0,2.106,1.458,3.834,3.186,3.834A3.046,3.046,0,0,0,12.1-29.808a4.629,4.629,0,0,0-.54-2.106A3.281,3.281,0,0,1,11.07-33.7c0-2.16,2.322-3.834,5.4-3.834,3.834,0,6.156,2.538,6.156,6.642,0,4.266-1.62,7.128-7.83,13.554C9.666-12.042,7.344-9.072,4.86-4.644Z" transform="translate(359.147 4728.501)" fill="#35829f"/>
    <path id="パス_260" data-name="パス 260" d="M31.392-30.42A3.5,3.5,0,0,0,27.9-26.892a3.511,3.511,0,0,0,3.492,3.564,3.519,3.519,0,0,0,3.528-3.564A3.511,3.511,0,0,0,31.392-30.42Zm0,1.332a2.236,2.236,0,0,1,2.232,2.2,2.22,2.22,0,0,1-2.232,2.232,2.19,2.19,0,0,1-2.2-2.232A2.2,2.2,0,0,1,31.392-29.088ZM7.452.216C15.444-2.3,22.212-6.948,26.964-18.36a2.748,2.748,0,0,1,1.224-1.476c.4-.252.9-.612.9-.936,0-.5-.468-.936-1.4-1.692a3.927,3.927,0,0,0-1.512-.9,1.265,1.265,0,0,0-.828.432,2.514,2.514,0,0,1-1.62.612c-3.276.324-6.372.612-8.928.792-1.8.144-3.672.252-5,.288-2.088.036-2.52-.18-3.564-1.26l-.612.288A5.577,5.577,0,0,0,6.84-19.764a3.265,3.265,0,0,0,1.836,1.188,2.507,2.507,0,0,0,.9-.18,12.84,12.84,0,0,1,1.548-.324c4.428-.756,7.956-1.224,10.836-1.44,1.476-.108,1.944-.144,2.448-.144.36,0,.54.252.432.54C21.024-9.972,15.516-4.464,6.984-.648Zm41.292.864C57.2-2.2,62.6-8.208,66.924-16.236a2.59,2.59,0,0,1,1.332-1.152c.54-.288.864-.576.864-.972,0-.468-.5-.972-1.4-1.8-1.008-.864-1.368-1.044-1.656-1.044a1.358,1.358,0,0,0-.864.5,4.184,4.184,0,0,1-2.268.612c-3.528.288-7.38.54-10.764.792-.828.036-1.8.108-3.276.144a4.494,4.494,0,0,1-2.772-1.224l-.612.36a6.169,6.169,0,0,0,.5,1.08A6.781,6.781,0,0,0,47.2-17.424a2.82,2.82,0,0,0,1.4.828,2,2,0,0,0,.864-.36,10.483,10.483,0,0,1,2.988-.54c2.916-.4,7.416-.792,12.744-1.188C61.344-10.4,55.908-3.888,48.24.216Zm.4-27.216a5.552,5.552,0,0,0,.936,1.584,3.041,3.041,0,0,0,1.656,1.188,5.776,5.776,0,0,0,1.044-.18c.36-.036,1.656-.144,2.664-.288,2.376-.216,5.58-.468,9.072-.648,1.476-.108,1.728-.5,1.728-.972,0-.648-1.26-1.44-2.376-1.44a3.492,3.492,0,0,0-1.188.36,6.952,6.952,0,0,1-2.2.468c-2.88.324-5.868.576-7.2.612a4.7,4.7,0,0,1-3.672-1.08Zm36.972,3.924a7.4,7.4,0,0,1,3.744,4.068c.468,1.224.936,1.512,1.62,1.512.936,0,1.512-.684,1.512-1.8,0-1.4-1.116-2.736-2.988-3.6a12.114,12.114,0,0,0-3.672-.936Zm23.724.54A80.3,80.3,0,0,1,91.116-6.228a3.987,3.987,0,0,1-1.872.684,3.931,3.931,0,0,1-2.16-1.44l-.612.324a3.778,3.778,0,0,0,.9,2.16c1.332,1.584,2.34,2.2,2.844,2.2a.956.956,0,0,0,.828-.5,4.133,4.133,0,0,1,1.224-1.08C99.936-8.82,105.624-13.9,110.628-21.1Zm29.52.432v3.384c0,15.7-.18,18.864-.18,20.2,0,.36.252.612.756.612.828,0,1.908-.468,1.908-1.116,0-.576-.072-2.088-.144-7.524h10.116c.36,0,.576-.18.576-.432,0-.324-.288-.828-3.06-2.88a21.176,21.176,0,0,0-1.908,2.124H141.7c0-2.232-.036-4.464-.036-6.7h9.972c.36,0,.576-.18.576-.432,0-.324-.288-.828-3.06-2.88a21.177,21.177,0,0,0-1.908,2.124h-5.58v-5.8a1.107,1.107,0,0,0,.648-.684h10.3c.36,0,.576-.18.576-.432,0-.324-.144-.612-3.2-3.024a30.526,30.526,0,0,0-2.088,2.268H136.656a44.887,44.887,0,0,0,1.872-4.86c1.224-.18,1.656-.468,1.656-.9,0-.5-.648-.828-3.744-1.656a54.679,54.679,0,0,1-8.46,19.152l.576.432a41.473,41.473,0,0,0,7.524-10.98Zm-18.54,10.728a44.919,44.919,0,0,0,4.176-6.336V-13.9c0,12.42-.216,15.012-.216,16.38,0,.36.18.54.648.54.936,0,1.908-.576,1.908-1.08,0-1.62-.108-4.284-.108-15.84v-3.528c.756-.36.972-.612.972-.9,0-.324-.288-.54-1.98-.9a59.683,59.683,0,0,0,3.348-8.136c1.08-.252,1.584-.576,1.584-1.008,0-.5-.54-.756-3.852-1.62a71.167,71.167,0,0,1-7.128,19.152Zm44.712-13a16.913,16.913,0,0,0-3.132-1.3c.072,1.44.108,2.556.108,9.792,0,8.172-.792,12.492-2.808,16.056l.612.4c3.168-3.96,4.464-7.452,4.5-15.948h6.372c-.036,5.8-.288,7.92-.612,9.108-.288,1.152-.792,1.584-2.268,1.584a20.665,20.665,0,0,1-2.556-.144l-.036.72c2.124.432,2.52,1.008,2.772,2.124,2.412-.216,3.672-1.116,4.284-3.528.4-1.512.648-3.6.648-9.18.792-.432,1.044-.72,1.044-1.044s-.144-.576-.936-1.224c-.72-.612-1.08-.828-1.4-.828s-.576.252-1.116,1.224h-6.192v-6.156l.468-.468h11.376c.36,5.328,1.116,9.144,2.2,11.844.432,1.08.9,2.124,1.368,3.06A26.318,26.318,0,0,1,168.48,1.44l.324.648c5.256-1.656,9.252-3.924,12.528-7.524a19.653,19.653,0,0,0,5.508,5.9A9.43,9.43,0,0,0,191.3,2.3c.864,0,1.44-.432,1.44-1.188,0-.684-.612-1.044-.612-1.836a21.857,21.857,0,0,1,.936-4.5l-.648-.216a36.455,36.455,0,0,1-1.728,3.312c-.216.324-.576.828-.972.828a4.656,4.656,0,0,1-2.268-1.116,17.724,17.724,0,0,1-4.464-5.112,38.583,38.583,0,0,0,4.608-8.532c1.26-.144,1.656-.4,1.656-.828,0-.36-.468-.756-3.42-1.728A41.573,41.573,0,0,1,181.8-9.72l-.756-1.62a32.234,32.234,0,0,1-2.124-10.98h13.32c.4,0,.576-.18.576-.432,0-.36-.36-.756-3.384-3.06-.72.792-1.368,1.476-2.052,2.3h-8.532c-.072-1.512-.072-3.1-.072-4.788,1.044-.36,1.332-.612,1.332-.936,0-.36-.324-.756-3.744-1.188q0,3.78.216,6.912Zm15.516-4.716a6.319,6.319,0,0,1,3.24,2.772c.4.756.864,1.08,1.332,1.08A1.228,1.228,0,0,0,186.8-25.74c0-1.152-1.728-2.7-5.508-3.132Z" transform="translate(419.147 4709.501)" fill="#35829f"/>
    <path id="パス_51" data-name="パス 51" d="M36.4,116.17A16.845,16.845,0,1,0,53.25,133.015,16.848,16.848,0,0,0,36.4,116.17Z" transform="translate(374.818 4676.371)" fill="#35829f"/>
    <path id="パス_52" data-name="パス 52" d="M41.729,258.935c-7.978,0-14.731,6.166-14.449,14.447l3.961,53.162c.457,6,4.7,10.491,10.489,10.491s9.953-4.345,10.491-10.491l3.958-53.162C56.68,265.1,49.71,258.935,41.729,258.935Z" transform="translate(369.486 4577.665)" fill="#35829f"/>
    <path id="パス_53" data-name="パス 53" d="M400.119,149.861a16.845,16.845,0,1,0-16.845-16.846A16.845,16.845,0,0,0,400.119,149.861Z" transform="translate(123.352 4676.371)" fill="#35829f"/>
    <path id="パス_54" data-name="パス 54" d="M405.444,258.935c-7.98,0-14.733,6.166-14.449,14.447l3.961,53.162c.457,6,4.694,10.491,10.488,10.491s9.953-4.345,10.489-10.491l3.958-53.162C420.392,265.1,413.424,258.935,405.444,258.935Z" transform="translate(118.02 4577.665)" fill="#35829f"/>
    <path id="パス_55" data-name="パス 55" d="M269.94,87.4l-1.063,3.9a17.3,17.3,0,0,1,8.2,4.782,10.861,10.861,0,0,1,3.066,7.4,10.51,10.51,0,0,1-2,6.093,15.193,15.193,0,0,1-5.54,4.665l-1.709.875,2.215,4.953a88.456,88.456,0,0,1-16.09-4.574l-.064-.025-.064-.019a15.667,15.667,0,0,1-9.2-7l-3.55,1.949a19.636,19.636,0,0,0,11.405,8.872v0a87.414,87.414,0,0,0,20.679,5.342l3.518.389-3.635-8.129a18.545,18.545,0,0,0,5.34-4.968,14.529,14.529,0,0,0,2.741-8.42,14.923,14.923,0,0,0-4.13-10.137A21.283,21.283,0,0,0,269.94,87.4Z" transform="translate(219.545 4696.258)" fill="#35829f"/>
    <path id="パス_56" data-name="パス 56" d="M183.023,36.811a20.368,20.368,0,0,0,5.271-13.445,19.557,19.557,0,0,0-2.359-9.261,25.463,25.463,0,0,0-10.6-10.222A34.134,34.134,0,0,0,159.292,0a32.834,32.834,0,0,0-20.327,6.687,23.838,23.838,0,0,0-6.31,7.418,19.556,19.556,0,0,0-2.359,9.261,19.907,19.907,0,0,0,3.755,11.515,25.982,25.982,0,0,0,8,7.264l-4.868,10.89,3.516-.389c12.144-1.359,23.77-5.43,29.29-7.567A28.936,28.936,0,0,0,183.023,36.811ZM168.585,41.28l-.064.024a125.349,125.349,0,0,1-24.715,6.833l3.482-7.782-1.709-.875a22.534,22.534,0,0,1-8.217-6.929,15.832,15.832,0,0,1-3.017-9.185,15.485,15.485,0,0,1,1.88-7.354,21.413,21.413,0,0,1,8.941-8.555,30.015,30.015,0,0,1,14.127-3.406,28.836,28.836,0,0,1,17.821,5.811,19.836,19.836,0,0,1,5.249,6.149,15.522,15.522,0,0,1,1.882,7.354,16.287,16.287,0,0,1-4.271,10.78,24.944,24.944,0,0,1-11.325,7.117Z" transform="translate(298.257 4756.688)" fill="#35829f"/>
    <path id="パス_57" data-name="パス 57" d="M180.145,67.362a3.149,3.149,0,1,0,3.149,3.149A3.149,3.149,0,0,0,180.145,67.362Z" transform="translate(265.969 4710.116)" fill="#35829f"/>
    <path id="パス_58" data-name="パス 58" d="M219.5,67.362a3.149,3.149,0,1,0,3.149,3.149A3.151,3.151,0,0,0,219.5,67.362Z" transform="translate(238.764 4710.116)" fill="#35829f"/>
    <path id="パス_59" data-name="パス 59" d="M258.852,67.362A3.149,3.149,0,1,0,262,70.511,3.15,3.15,0,0,0,258.852,67.362Z" transform="translate(211.552 4710.116)" fill="#35829f"/>
  </g>
</svg>
