<svg xmlns="http://www.w3.org/2000/svg" width="236.258" height="87.514" viewBox="0 0 236.258 87.514">
  <path id="パス_256" data-name="パス 256" d="M130.849,18.894c-3.478-3.478-9.588-5.076-16.92-5.076-8.93,0-19.646,2.444-29.516,7.144-14.664,7.05-26.884,19.364-26.884,29.8a11.776,11.776,0,0,0,1.128,5.076c2.632,5.734,7.9,7.9,13.912,7.9,8.178,0,17.766-3.854,24.252-7.614A46.073,46.073,0,0,0,116.937,32.43c.47-1.41.094-2.162-.376-2.35-.658-.094-1.5.47-2.068,1.88-1.88,5.452-7.708,15.6-19.458,22.372-5.452,3.1-13.724,6.2-20.21,6.2-3.76,0-7.05-1.034-8.648-3.76a9.207,9.207,0,0,1-1.316-4.982c0-9.4,12.126-21.338,27.26-29.046,7.238-3.666,16.826-6.2,24.628-6.2,4.982,0,9.212,1.034,11.656,3.478a9.926,9.926,0,0,1,2.726,7.238c0,7.144-5.076,16.356-9.494,22.278a89.244,89.244,0,0,1-9.118,9.87,54.344,54.344,0,0,0-18.33,6.674c-1.222.752-1.692,1.692-1.5,2.256.282.658,1.41.846,3.384-.376A47.858,47.858,0,0,1,109.323,62.6c-8.366,7.99-17.954,16.826-22.56,23.782-3.384,5.076-3.29,12.126-2.914,13.818a1.421,1.421,0,0,0,.846,1.128c.47,0,.94-.47.94-1.41-.094-3.478.564-8.836,6.3-15.322,4.982-5.546,16.356-14.006,25.756-23.124h1.222c3.76.188,5.264,1.316,6.016,3.1.188.564.47.752.564.752.282,0,.376-.658.282-1.41-.094-1.034-.846-4.042-5.828-4.7,1.974-2.068,3.854-4.136,5.546-6.2,5.734-7.05,9.306-15.792,9.306-23.218C134.8,25.474,133.575,21.62,130.849,18.894Zm56.024-2.068c-7.614-1.692-22.184,14.382-35.062,32.43-4.418,6.11-19.928,27.918-19.928,39.1,0,3.008,1.128,5.264,3.76,6.2a8.155,8.155,0,0,0,2.632.47c6.016,0,14.006-5.452,18.424-8.742A108.1,108.1,0,0,0,169.953,74.73c2.444-2.726.094-3.572-1.786-1.6a109.948,109.948,0,0,1-11.092,10.246c-3.76,2.914-12.126,9.588-16.262,6.956-1.41-.846-1.974-2.35-1.974-4.324,0-3.008,1.41-7.144,3.384-11.656,5.076-3.2,13.912-10.528,25.1-23.03,9.682-10.9,21.62-25.85,21.62-31.866A2.407,2.407,0,0,0,186.873,16.826Zm-2.82,3.854c5.076,1.128-7.238,16.826-18.048,28.858a173.846,173.846,0,0,1-21.9,20.868c3.384-6.58,7.332-13.724,10.528-18.706C162.057,39.856,178.319,19.458,184.053,20.68Zm39.574,53.11c1.034-1.222-.658-2.726-1.974-1.128-1.41,1.692-7.426,7.99-12.032,9.4a12.885,12.885,0,0,1-4.136.752,7.094,7.094,0,0,1-4.042-1.222,52.12,52.12,0,0,0,4.606-5.828c3.384-4.982,4.982-9.4,4.982-12.878,0-4.136-2.35-6.768-6.862-6.768-8.46,0-21.244,8.836-28.576,19.646-3.384,4.888-4.982,9.4-4.982,12.878,0,4.136,2.35,6.768,6.956,6.768,6.2,0,14.852-4.888,21.9-11.75a10.139,10.139,0,0,0,5.546,1.5A20.047,20.047,0,0,0,210,84.412C216.013,82.814,222.5,75.106,223.627,73.79Zm-19.176-.846a4.911,4.911,0,0,0-2.914-.752,7.981,7.981,0,0,0-4.982,1.692,4.721,4.721,0,0,0-1.316,6.2,8.051,8.051,0,0,0,1.974,2.162c-5.358,5.452-11.28,9.212-15.322,9.212-2.632,0-3.854-1.6-3.854-4.23,0-3.008,1.6-7.332,4.888-12.22,6.11-9.024,15.6-16.356,21.15-16.356,2.632,0,3.948,1.6,3.948,4.23C208.023,65.424,206.8,69,204.451,72.944Zm89.112-.282a1.1,1.1,0,0,0-1.786.094,92.72,92.72,0,0,1-6.862,6.674c-2.538,2.162-5.922,4.794-9.494,4.794a6.466,6.466,0,0,1-3.384-.846,5.664,5.664,0,0,1-2.35-2.35c.846-.846,1.692-1.692,2.538-2.632,8.554-9.682,14.476-20.68,11.186-22-3.1-1.316-10.528,2.538-14.852,10.81a21.656,21.656,0,0,0-2.444,9.588,15.831,15.831,0,0,0,.47,3.76c-4.982,4.7-10.34,8.836-14.288,9.87-2.538.658-4.136,0-3.76-3.008.376-3.384,2.914-7.332,7.332-14.194,4.324-6.768,10.152-14.194,10.152-15.7,0-1.222-2.256-.564-3.008-.188s-6.768,9.4-11.374,15.416c-6.2,8.178-12.032,14.946-18.518,17.672-2.256,1.034-3.666.376-3.384-2.632.376-4.136,2.726-7.99,7.332-14.57s10.716-14.194,10.716-15.7c0-1.222-2.256-.564-3.008-.188s-9.212,9.776-13.16,14.57c-2.82,3.478-8.178,9.964-8.836,14.382-.376,2.82,0,7.144,4.888,7.8,3.854.564,10.058-2.914,13.818-6.016,0,2.538,1.128,5.64,5.076,6.2,4.23.564,12.314-3.1,21.056-11.28a6.84,6.84,0,0,0,3.008,2.632,10,10,0,0,0,4.23,1.034c3.76,0,7.144-2.256,9.776-4.23a67.251,67.251,0,0,0,8.742-8.084A1.32,1.32,0,0,0,293.563,72.662Zm-13.63-12.69c1.6,1.316-3.384,9.776-9.212,16.45-.564.564-1.128,1.222-1.786,1.88A18.348,18.348,0,0,1,271,68.432C275.139,60.63,278.8,59.032,279.933,59.972Z" transform="translate(-57.529 -13.818)" fill="#fff"/>
</svg>
