<svg xmlns="http://www.w3.org/2000/svg" width="396" height="360" viewBox="0 0 396 360">
  <g id="figure04" transform="translate(-270.147 -4601.501)">
    <g id="bg" transform="translate(270.147 4601.501)" fill="#fff" stroke="#1a283a" stroke-width="0.5">
      <rect width="396" height="360" stroke="none"/>
      <rect x="0.25" y="0.25" width="395.5" height="359.5" fill="none"/>
    </g>
    <path id="パス_268" data-name="パス 268" d="M-30.74-4.941l1.593,4.077.486-.351a1.439,1.439,0,0,1,.81-.216,4.177,4.177,0,0,1,1.323.243,5.777,5.777,0,0,0,1.566.3A3.7,3.7,0,0,0-21.4-4.617a3.388,3.388,0,0,0-1.161-2.619,6.907,6.907,0,0,0-3.294-1.377c-2.349-.54-3.186-1.134-3.186-2.268,0-1.08.837-1.782,2.133-1.782,1.485,0,3.159,1.161,4.4,3.024l.648-.459-1.485-3.564-.324.243a1.725,1.725,0,0,1-.891.27,2.306,2.306,0,0,1-.891-.216,4.529,4.529,0,0,0-1.485-.3,3.388,3.388,0,0,0-3.4,3.4c0,2.052,1.4,3.267,4.59,4.023a6.925,6.925,0,0,1,1.971.621,2.066,2.066,0,0,1,.918,1.7A2.079,2.079,0,0,1-25.1-1.89c-1.7,0-3.78-1.377-4.968-3.375Zm20.385-7.317H-6.9v-1.026h-3.456v-4.185h-.837C-11.569-14.8-12.3-13.689-14-13.041v.783h1.7v7.614a4.767,4.767,0,0,0,.4,2.592A2.538,2.538,0,0,0-9.545-.891a4.172,4.172,0,0,0,3.51-2.025l-.594-.432c-.891.837-1.323,1.08-2.079,1.08-1.269,0-1.647-.675-1.647-2.889Zm21.6,4.32c-.351-3.483-2.322-5.724-5.13-5.724-3.078,0-5.8,3.186-5.8,6.831a5.658,5.658,0,0,0,5.7,5.94,6.49,6.49,0,0,0,5.346-2.916l-.567-.432a5.36,5.36,0,0,1-4.05,1.971c-2.268,0-3.807-1.458-4.158-3.942A6.953,6.953,0,0,1,2.47-7.938Zm-8.586-1c.351-2.511,1.539-3.888,3.348-3.888,1.836,0,2.808,1.242,3,3.888ZM22.477-13.8l-3.726,1.161v.7c1.566.162,1.782.405,1.782,1.944V.729c0,1.512-.243,1.755-1.782,1.755V3.4h5.508V2.484h-.081c-1.485,0-1.7-.243-1.7-1.755V-2.457A4.7,4.7,0,0,0,25.771-.891c2.7,0,4.86-2.862,4.86-6.453,0-3.483-2.187-6.318-4.833-6.318A4.729,4.729,0,0,0,22.477-12.1Zm0,2.781A3.383,3.383,0,0,1,25.2-12.447c2.106,0,3.213,1.755,3.213,5.211,0,3.321-1.134,5.022-3.294,5.022A3.678,3.678,0,0,1,22.477-3.4Z" transform="translate(378.147 4677.501)" fill="#35829f"/>
    <path id="パス_267" data-name="パス 267" d="M-29.322-20.682c0,10.26,5.616,19.062,12.15,19.062s12.1-8.748,12.1-19.062-5.562-19.062-12.1-19.062C-23.76-39.744-29.322-31-29.322-20.682Zm5.508-.216c0-11.07,2.214-16.794,6.642-16.794,4.374,0,6.588,5.67,6.588,17.01S-12.8-3.672-17.226-3.672-23.814-9.4-23.814-20.9Zm47.2-18.522H21.06L4.644-13.5v2.214H18.738v3.132c0,2.97-.756,3.564-4,3.618h-.594V-2.43H27.486V-4.536h-.648c-3.078-.054-3.456-.432-3.456-3.618v-3.132H29.7v-2.43H23.382Zm-4.644,7.29v18.414H7.074Z" transform="translate(378.147 4728.501)" fill="#35829f"/>
    <path id="パス_266" data-name="パス 266" d="M23.976-16.488h4.788v3.312c0,11.268-.144,14.472-.144,15.588,0,.36.216.612.72.612.792,0,1.836-.5,1.836-1.116C31.176.648,31-2.34,31-13.14v-2.7a.974.974,0,0,0,.648-.648h2.7c.36,0,.576-.18.576-.432,0-.324-.36-.828-3.132-2.952-.72.792-1.3,1.44-1.908,2.2h-5.9v-7.488l.432-.432a71.28,71.28,0,0,0,7.7-1.44,6.11,6.11,0,0,0,1.26.144c.612,0,.9-.18.9-.432,0-.432-.144-.756-2.592-2.52a32.359,32.359,0,0,1-7.344,3.2,14.5,14.5,0,0,0-2.736-.9c.108,2.736.144,6.012.144,11.232,0,9.252-1.8,14.544-6.624,18.576l.468.54c6.084-3.924,8.388-8.676,8.388-19.08ZM13.356-24.48a37.7,37.7,0,0,1-1.836,7.128H4.86l-3.384-.18v1.548l3.384-.18H9.576v4.536H4.9l-3.384-.18v1.548L4.9-10.44h3.96A32.189,32.189,0,0,1,1.008-.54L1.476,0a27.094,27.094,0,0,0,8.1-7.416C9.5-.324,9.4,1.368,9.4,2.448c0,.36.252.54.684.54.792,0,1.728-.468,1.728-1.008,0-.936-.108-2.664-.144-9.216a11.408,11.408,0,0,1,4.644,3.888c.468.648.792.972,1.4.972.576,0,1.116-.36,1.116-1.44a3.164,3.164,0,0,0-1.692-2.268A14.165,14.165,0,0,0,11.664-8.1v-2.34h7.992c.36,0,.576-.18.576-.432,0-.324-.36-.828-3.132-2.88-.72.756-1.332,1.512-1.836,2.124h-3.6V-15.48a.914.914,0,0,0,.612-.684H20.2c.36,0,.576-.18.576-.432,0-.324-.324-.684-2.988-2.736-.72.756-1.3,1.368-1.8,1.98h-3.42a32.751,32.751,0,0,0,2.988-5.112c1.044-.144,1.26-.4,1.26-.756,0-.288-.432-.612-2.448-1.26H19.62c.36,0,.576-.18.576-.432,0-.324-.288-.72-2.952-2.664-.648.684-1.152,1.3-1.692,1.908H11.7v-2.52c1.152-.4,1.332-.72,1.332-1.008,0-.36-.756-.684-3.744-.936.072,1.188.108,1.872.108,3.276v1.188H5.22l-3.384-.18V-24.3l3.384-.18Zm-8.568.972a7.365,7.365,0,0,1,1.152,4.5A1.061,1.061,0,0,0,7.056-17.82c.792,0,1.332-.684,1.332-1.62,0-1.3-.648-2.88-3.024-4.464Zm43.38-1.908a6.505,6.505,0,0,1,1.368,3.672A1.107,1.107,0,0,0,50.652-20.7a1.343,1.343,0,0,0,1.368-1.368c0-1.008-.864-2.412-2.772-3.348h7.38c.36,0,.576-.18.576-.432,0-.288-.216-.54-3.06-2.736-.648.648-1.224,1.332-1.764,1.98H47.3c.288-.468.576-.9.828-1.332,1.368-.18,1.62-.5,1.62-.828,0-.36-.36-.576-3.456-1.62a38.148,38.148,0,0,1-5.04,9.828l.576.432a31.647,31.647,0,0,0,4.68-5.292Zm14.4,0a4.76,4.76,0,0,1,1.08,2.952,1.172,1.172,0,0,0,1.152,1.08,1.181,1.181,0,0,0,.756-.216,3.387,3.387,0,0,0-.432.792H60.336a11.2,11.2,0,0,0-2.772-1.008,25,25,0,0,1,.108,2.556c0,2.808-.54,4.824-2.232,6.552a14.556,14.556,0,0,1-6.12,3.564l.324.648a16.539,16.539,0,0,0,6.876-2.916c2.3-1.8,3.276-4.1,3.276-7.92l.288-.288h5.148v2.088c0,2.52-.108,3.708-.108,4.644,0,1.584.72,1.98,3.888,1.98,3.42,0,4.752-.5,4.752-1.512,0-.576-.9-.648-.9-1.224,0-.612.072-1.584.18-2.772l-.72-.144a15,15,0,0,1-1.08,3.132c-.324.612-.792.72-2.232.72-1.584,0-1.764-.216-1.764-.72V-19.08c.756-.4,1.08-.648,1.08-1.008,0-.324-.144-.5-.972-1.152-.756-.576-.972-.72-1.332-.72a.512.512,0,0,0-.216.072,1.51,1.51,0,0,0,.252-.864c0-.972-.72-1.872-2.412-2.664H73.08c.36,0,.576-.18.576-.432,0-.288-.252-.576-3.24-2.988-.648.684-1.368,1.512-2.016,2.232H61.092a13.108,13.108,0,0,0,.864-1.26c1.44-.144,1.692-.468,1.692-.792,0-.36-.36-.612-3.384-1.656A34.872,34.872,0,0,1,55.332-21.2l.576.4a39.405,39.405,0,0,0,4.284-4.608ZM74.376-.468c-6.732-.9-12.024-3.06-15.156-5.976H73.4c.36,0,.576-.18.576-.432,0-.36-.252-.72-3.384-3.132-.864.9-1.4,1.512-2.124,2.376H58.644V-9.288c1.08-.4,1.332-.72,1.332-1.008,0-.36-.4-.612-3.672-.936a31.972,31.972,0,0,1,.108,3.6H45.288l-3.672-.18v1.548l3.672-.18h9.288A41.822,41.822,0,0,1,40.824,1.692l.288.648a38.6,38.6,0,0,0,15.3-7.524c0,4.32-.108,6.66-.108,7.74,0,.324.18.468.612.468.936,0,1.872-.468,1.872-.936,0-1.332-.144-3.708-.144-7.992C61.56-2.124,66.528.72,71.5,1.98A3.415,3.415,0,0,1,74.2.216ZM55.44-18.324c.36,0,.576-.18.576-.36,0-.324-.216-.72-2.808-2.772a20.541,20.541,0,0,0-1.764,1.944H45.72l-3.24-.18v1.548l3.24-.18h1.944v4.932c-2.052.432-4.212.756-6.516,1.116,1.26,2.736,1.476,3.132,1.98,3.132.432,0,.648-.36.9-1.3a86.336,86.336,0,0,0,11.808-4.1l-.216-.684c-1.98.54-3.888,1.008-5.8,1.4V-17.64a.978.978,0,0,0,.612-.684Zm4.608,2.268a4.817,4.817,0,0,1,1.872,3.132c.144.612.5.936,1.008.936A1.171,1.171,0,0,0,64.08-13.32c0-1.152-.936-2.376-3.6-3.312ZM85.32-25.488A6.941,6.941,0,0,0,85-26.856l-.72.036a4.607,4.607,0,0,1-2.592,4.356,1.731,1.731,0,0,0-1.044,1.548,1.263,1.263,0,0,0,1.332,1.224c1.908,0,3.42-1.728,3.42-4.608h23.652a23.037,23.037,0,0,1-1.872,3.636l.54.468a35.666,35.666,0,0,0,3.744-2.952c1.26-.18,1.764-.576,1.764-.936s-.108-.648-1.188-1.62c-1.152-1.008-1.512-1.116-1.836-1.116-.252,0-.54.108-1.26,1.332H98.568v-3.06c1.152-.4,1.332-.72,1.332-1.008,0-.36-.828-.684-3.816-.936.072,1.188.108,2.052.108,3.6v1.4Zm27.036,13.1c.36,0,.576-.18.576-.432,0-.36-.324-.792-3.6-3.348-.864.9-1.62,1.728-2.34,2.592H84.384l-3.672-.18V-12.2l3.672-.18H91.8C91.224-5.04,88.6-.972,81.072,1.98l.324.648C89.712.432,93.24-3.1,94.248-11.7a1,1,0,0,0,.684-.684h3.744v4.1c0,4.032-.144,6.228-.144,7.344,0,2.124.648,2.52,6.876,2.52,6.372,0,7.776-.864,7.776-1.8,0-.9-.9-1.008-.9-1.62a36.907,36.907,0,0,1,.144-3.708l-.72-.108A18.621,18.621,0,0,1,110.52-1.8c-.468,1.044-1.188,1.368-5.076,1.368-4,0-4.5-.252-4.5-1.188V-11.7a1.152,1.152,0,0,0,.612-.684ZM90.288-19.476l-3.672-.18v1.548l3.672-.18h15.264c.36,0,.576-.18.576-.432,0-.36-.36-.756-3.312-3.024-.72.756-1.26,1.4-1.98,2.268Zm35.64-4.032a16.912,16.912,0,0,0-3.132-1.3c.072,1.44.108,2.556.108,9.792,0,8.172-.792,12.492-2.808,16.056l.612.4c3.168-3.96,4.464-7.452,4.5-15.948h6.372c-.036,5.8-.288,7.92-.612,9.108-.288,1.152-.792,1.584-2.268,1.584a20.664,20.664,0,0,1-2.556-.144l-.036.72c2.124.432,2.52,1.008,2.772,2.124,2.412-.216,3.672-1.116,4.284-3.528.4-1.512.648-3.6.648-9.18.792-.432,1.044-.72,1.044-1.044s-.144-.576-.936-1.224c-.72-.612-1.08-.828-1.4-.828s-.576.252-1.116,1.224h-6.192v-6.156l.468-.468h11.376c.36,5.328,1.116,9.144,2.2,11.844.432,1.08.9,2.124,1.368,3.06A26.318,26.318,0,0,1,128.88,1.44l.324.648c5.256-1.656,9.252-3.924,12.528-7.524a19.653,19.653,0,0,0,5.508,5.9A9.43,9.43,0,0,0,151.7,2.3c.864,0,1.44-.432,1.44-1.188,0-.684-.612-1.044-.612-1.836a21.857,21.857,0,0,1,.936-4.5l-.648-.216a36.455,36.455,0,0,1-1.728,3.312c-.216.324-.576.828-.972.828a4.656,4.656,0,0,1-2.268-1.116,17.724,17.724,0,0,1-4.464-5.112A38.583,38.583,0,0,0,148-16.056c1.26-.144,1.656-.4,1.656-.828,0-.36-.468-.756-3.42-1.728A41.573,41.573,0,0,1,142.2-9.72l-.756-1.62a32.234,32.234,0,0,1-2.124-10.98h13.32c.4,0,.576-.18.576-.432,0-.36-.36-.756-3.384-3.06-.72.792-1.368,1.476-2.052,2.3h-8.532c-.072-1.512-.072-3.1-.072-4.788,1.044-.36,1.332-.612,1.332-.936,0-.36-.324-.756-3.744-1.188q0,3.78.216,6.912Zm15.516-4.716a6.319,6.319,0,0,1,3.24,2.772c.4.756.864,1.08,1.332,1.08A1.228,1.228,0,0,0,147.2-25.74c0-1.152-1.728-2.7-5.508-3.132Z" transform="translate(437.147 4709.501)" fill="#35829f"/>
    <path id="パス_60" data-name="パス 60" d="M135.589,83.779V46.585H113.9V62.109L96.688,44.917,80.155,28.323,0,108.417l11.872,11.864L80.155,52.054l68.227,68.227,11.871-11.864Z" transform="translate(388.021 4743.855)" fill="#35829f"/>
    <path id="パス_61" data-name="パス 61" d="M78.8,190.4v53.7h42.314V207.972h26.3v36.134h42.314V190.4l-55.434-55.439Z" transform="translate(333.883 4670.595)" fill="#35829f"/>
  </g>
</svg>
