<svg xmlns="http://www.w3.org/2000/svg" width="396" height="360" viewBox="0 0 396 360">
  <g id="figure03" transform="translate(-270.147 -4601.501)">
    <g id="bg" transform="translate(270.147 4601.501)" fill="#fff" stroke="#1a283a" stroke-width="0.5">
      <rect width="396" height="360" stroke="none"/>
      <rect x="0.25" y="0.25" width="395.5" height="359.5" fill="none"/>
    </g>
    <path id="パス_265" data-name="パス 265" d="M-30.74-4.941l1.593,4.077.486-.351a1.439,1.439,0,0,1,.81-.216,4.177,4.177,0,0,1,1.323.243,5.777,5.777,0,0,0,1.566.3A3.7,3.7,0,0,0-21.4-4.617a3.388,3.388,0,0,0-1.161-2.619,6.907,6.907,0,0,0-3.294-1.377c-2.349-.54-3.186-1.134-3.186-2.268,0-1.08.837-1.782,2.133-1.782,1.485,0,3.159,1.161,4.4,3.024l.648-.459-1.485-3.564-.324.243a1.725,1.725,0,0,1-.891.27,2.306,2.306,0,0,1-.891-.216,4.529,4.529,0,0,0-1.485-.3,3.388,3.388,0,0,0-3.4,3.4c0,2.052,1.4,3.267,4.59,4.023a6.925,6.925,0,0,1,1.971.621,2.066,2.066,0,0,1,.918,1.7A2.079,2.079,0,0,1-25.1-1.89c-1.7,0-3.78-1.377-4.968-3.375Zm20.385-7.317H-6.9v-1.026h-3.456v-4.185h-.837C-11.569-14.8-12.3-13.689-14-13.041v.783h1.7v7.614a4.767,4.767,0,0,0,.4,2.592A2.538,2.538,0,0,0-9.545-.891a4.172,4.172,0,0,0,3.51-2.025l-.594-.432c-.891.837-1.323,1.08-2.079,1.08-1.269,0-1.647-.675-1.647-2.889Zm21.6,4.32c-.351-3.483-2.322-5.724-5.13-5.724-3.078,0-5.8,3.186-5.8,6.831a5.658,5.658,0,0,0,5.7,5.94,6.49,6.49,0,0,0,5.346-2.916l-.567-.432a5.36,5.36,0,0,1-4.05,1.971c-2.268,0-3.807-1.458-4.158-3.942A6.953,6.953,0,0,1,2.47-7.938Zm-8.586-1c.351-2.511,1.539-3.888,3.348-3.888,1.836,0,2.808,1.242,3,3.888ZM22.477-13.8l-3.726,1.161v.7c1.566.162,1.782.405,1.782,1.944V.729c0,1.512-.243,1.755-1.782,1.755V3.4h5.508V2.484h-.081c-1.485,0-1.7-.243-1.7-1.755V-2.457A4.7,4.7,0,0,0,25.771-.891c2.7,0,4.86-2.862,4.86-6.453,0-3.483-2.187-6.318-4.833-6.318A4.729,4.729,0,0,0,22.477-12.1Zm0,2.781A3.383,3.383,0,0,1,25.2-12.447c2.106,0,3.213,1.755,3.213,5.211,0,3.321-1.134,5.022-3.294,5.022A3.678,3.678,0,0,1,22.477-3.4Z" transform="translate(378.147 4677.501)" fill="#35829f"/>
    <path id="パス_264" data-name="パス 264" d="M-29.322-20.682c0,10.26,5.616,19.062,12.15,19.062s12.1-8.748,12.1-19.062-5.562-19.062-12.1-19.062C-23.76-39.744-29.322-31-29.322-20.682Zm5.508-.216c0-11.07,2.214-16.794,6.642-16.794,4.374,0,6.588,5.67,6.588,17.01S-12.8-3.672-17.226-3.672-23.814-9.4-23.814-20.9Zm42.5-1.026a11.535,11.535,0,0,0,3.78-1.188A9.065,9.065,0,0,0,27.81-31.05c0-4.968-4.482-8.694-10.53-8.694-5.778,0-11.016,3.456-11.016,7.344A3.074,3.074,0,0,0,9.18-29.214a3.017,3.017,0,0,0,2.862-3.132c0-.216-.054-.54-.108-.972a7.254,7.254,0,0,1-.054-1.026c0-1.944,1.836-3.24,4.482-3.24,4,0,6.156,2.376,6.156,6.75,0,4.752-2.754,7.83-6.966,7.83a10.019,10.019,0,0,1-1.188-.054,7.992,7.992,0,0,0-1.08-.054,1.234,1.234,0,0,0-1.35,1.3,1.2,1.2,0,0,0,1.35,1.242,8.513,8.513,0,0,0,1.026-.054c.7-.054,1.35-.108,1.944-.108,4.428,0,7.182,3.186,7.182,8.532,0,5.292-2.808,8.424-7.452,8.424-3.078,0-5.076-1.134-5.076-2.97a6.16,6.16,0,0,1,.162-1.134,9.521,9.521,0,0,0,.108-1.026A3.247,3.247,0,0,0,8.1-12.258,3.211,3.211,0,0,0,5.022-8.91c0,4.158,4.752,7.29,11.124,7.29,7.506,0,12.906-4.374,12.906-10.476a9.931,9.931,0,0,0-6.156-8.91A11.606,11.606,0,0,0,18.684-21.924Z" transform="translate(378.147 4728.501)" fill="#35829f"/>
    <path id="パス_263" data-name="パス 263" d="M16.2-2.736H5.076l-3.6-.18v1.548l3.6-.18h29.2c.36,0,.576-.18.576-.432S34.632-2.556,31.1-5.4a33.072,33.072,0,0,0-2.376,2.664H18.792V-23.112A1.061,1.061,0,0,0,19.4-23.8H32.256c.36,0,.576-.18.576-.432s-.216-.648-3.564-3.276c-.72.756-1.512,1.692-2.16,2.52H6.552l-3.6-.18v1.548l3.6-.18H16.2Zm40.212-.936v2.7c0,1.08-.252,1.3-1.3,1.3A38.118,38.118,0,0,1,51.228.108l-.072.756c2.844.612,3.564,1.08,3.816,2.412,2.52,0,3.816-1.3,3.816-3.1,0-.756-.036-1.908-.072-3.852H67.1v1.908c0,.4.216.576.684.576.9,0,1.8-.468,1.8-1.044,0-.792-.144-2.16-.18-5.76h4.644c.36,0,.576-.18.576-.432s-.288-.828-2.844-2.88c-.576.72-1.188,1.512-1.62,2.124h-.756v-2.34c.936-.54,1.152-.792,1.152-1.044,0-.288-.216-.648-1.044-1.368-.864-.72-1.224-.828-1.512-.828-.324,0-.576.252-1.044,1.3H58.608c0-.9,0-1.836-.036-2.736h7.272v.4a.514.514,0,0,0,.576.576c.936,0,1.728-.468,1.728-1.044,0-.684-.144-1.512-.144-3.348v-.432c.828-.5,1.152-.756,1.152-1.116,0-.288-.072-.432-1.044-1.188-.9-.684-1.08-.756-1.44-.756-.288,0-.432.072-.9.936h-7.2v-2.412H73.188c.36,0,.576-.18.576-.432s-.5-.9-3.636-3.168a26.734,26.734,0,0,0-1.98,2.412H58.572V-28.26c1.224-.432,1.512-.792,1.512-1.08,0-.36-.432-.612-3.78-.972.072,1.044.108,2.232.108,4.536H45.324l-3.6-.18v1.548l3.6-.18H56.412v2.412H49.86a24.122,24.122,0,0,0-2.628-.972c.072.9.072,1.4.072,2.7,0,2.916-.144,4.464-.144,5.148,0,.4.108.612.648.612.936,0,1.656-.468,1.656-1.224V-16.2h6.948v2.736H46.332l-3.384-.18V-12.1l3.384-.18h10.08v3.1H44.352l-3.6-.18v1.548l3.6-.18h12.06V-4.86H46.584L43.2-5.04v1.548l3.384-.18Zm0-13.716H49.464v-3.168l.4-.432h6.552Zm2.16-3.6h7.272v3.6H58.572ZM67.1-12.276v3.1h-8.46c0-1.044-.036-2.052-.036-3.1Zm0,4.284V-4.86H58.716c-.036-1.044-.036-2.088-.072-3.132ZM102.06-26.424l-3.6-.18v1.548l3.384-.18c-.612,7.524-4.284,12.276-10.836,14.76l.432.612c7.56-1.944,11.952-7.056,12.708-14.688.4-.18.576-.36.648-.684h4.932c-.144,5.9-.648,8.5-1.368,10.26-.4,1.008-1.044,1.44-2.772,1.44a23.807,23.807,0,0,1-3.348-.288l-.036.72c2.16.468,2.88,1.188,3.06,2.34,2.844-.108,4.32-1.188,5.184-3.276.972-2.412,1.332-5.04,1.44-10.692.972-.432,1.08-.756,1.08-1.044s-.072-.5-1.08-1.26c-.864-.648-1.044-.684-1.368-.684-.252,0-.54.144-1.08,1.3Zm10.8,19.368c.36,0,.576-.18.576-.432s-.324-.792-3.672-3.276a21.429,21.429,0,0,0-2.2,2.52H98.352a12.866,12.866,0,0,0,.36-1.26c1.08-.432,1.3-.576,1.3-1.044s-.108-.684-3.456-1.152a18.615,18.615,0,0,1-.9,3.456H84.744l-3.6-.18v1.548l3.6-.18h10.44A13.785,13.785,0,0,1,90-1.152,29.249,29.249,0,0,1,80.64,2.2l.18.72A27.751,27.751,0,0,0,90.936.288a14.84,14.84,0,0,0,6.876-7.2c2.376,4.968,7.6,8.46,13.464,9.792a3.017,3.017,0,0,1,2.448-1.872l.108-.72c-6.876-.936-12.276-3.6-15.156-7.344ZM90.54-25.92v-2.52c.972-.4,1.188-.684,1.188-.972,0-.36-.36-.612-3.456-.936.072,1.044.108,2.34.108,4.428H84.564l-3.1-.18v1.548l3.1-.18H88.38v4h-3.2l-3.1-.18v1.548l3.1-.18h3.2v4.068c-2.628.5-5.256.936-7.6,1.26.828,2.376,1.224,3.24,1.692,3.24.36,0,.684-.432.792-1.3a116.731,116.731,0,0,0,14.868-4.716l-.252-.648c-2.232.576-4.752,1.188-7.344,1.728v-3.636h6.336c.36,0,.576-.18.576-.432,0-.324-.216-.756-2.52-2.52-.72.684-1.116,1.152-1.692,1.764h-2.7v-4h6.768c.36,0,.576-.18.576-.432,0-.324-.108-.468-2.736-2.592-.648.648-1.188,1.224-1.764,1.836Zm48.888,3.6a42.67,42.67,0,0,0,1.98-5.112c1.224-.288,1.44-.5,1.44-.936,0-.36-.468-.72-3.528-1.512A64.334,64.334,0,0,1,134.6-15.552l.612.36a40.193,40.193,0,0,0,3.636-5.94H149.4c0,7.848-.18,12.06-.5,15.948-.288,3.42-1.512,4.392-3.6,4.392a25.95,25.95,0,0,1-3.816-.324l-.072.72c2.556.648,3.276,1.368,3.6,2.736,3.96-.288,5.868-2.34,6.228-7.2.288-3.888.468-8.136.5-15.372,1.08-.576,1.26-.828,1.26-1.224,0-.324-.144-.612-1.152-1.4-.864-.684-1.224-.864-1.584-.864-.4,0-.612.216-1.152,1.4Zm-13.5,13.932c0,6.66-.18,9.468-.18,10.512,0,.36.288.576.756.576.9,0,1.8-.468,1.8-1.08,0-1.08-.216-3.852-.216-9.972v-4.464a1.073,1.073,0,0,0,.684-.936c.972-.18,1.908-.4,2.88-.612.144.468.288.936.4,1.4.18.684.576.972,1.044.972a1.3,1.3,0,0,0,1.3-1.476c0-1.872-1.728-3.852-4.752-5.256l-.432.5a7.218,7.218,0,0,1,2.16,3.024c-2.052.144-4.1.288-6.12.288a59.9,59.9,0,0,0,6.876-9.324c1.08-.072,1.4-.288,1.4-.648,0-.4-.324-.576-3.276-1.656A54.641,54.641,0,0,1,124.02-14.9c-1.3-.036-2.664-.036-4.1-.108.72,2.916.972,3.348,1.4,3.348.36,0,.54-.288.792-1.044,1.3-.18,2.52-.36,3.816-.576Zm-5.76-15.48a6.955,6.955,0,0,1,3.024,4c.216.72.612,1.044,1.116,1.044a1.315,1.315,0,0,0,1.26-1.476A3.248,3.248,0,0,0,124.2-22.68a31.112,31.112,0,0,0,3.636-5.076c1.008-.144,1.4-.36,1.4-.72s-.252-.648-3.384-1.692a40.9,40.9,0,0,1-2.376,6.984,10.148,10.148,0,0,0-2.952-1.3ZM120.42.9A31.86,31.86,0,0,0,123.8-7.884c.756-.252,1.152-.432,1.152-.828s-.648-.684-3.312-1.188A40.78,40.78,0,0,1,119.736.612Zm8.712-10.512c1.476,1.98,1.98,4.716,2.232,7.02A1.179,1.179,0,0,0,132.48-1.44c.9,0,1.4-.828,1.4-1.8,0-2.484-1.944-4.9-4.176-6.768Zm9.288-5.832a10.549,10.549,0,0,1,3.2,5.364,1.259,1.259,0,0,0,1.224,1.044c.828,0,1.332-.648,1.332-1.656,0-1.548-1.656-3.852-5.328-5.328Z" transform="translate(437.147 4709.501)" fill="#35829f"/>
    <path id="パス_48" data-name="パス 48" d="M250.2,66.921A13.068,13.068,0,1,0,240.084,51.45,13.069,13.069,0,0,0,250.2,66.921Z" transform="translate(223.253 4738.534)" fill="#35829f"/>
    <path id="パス_49" data-name="パス 49" d="M201.093,199.934l-28.661-38.818c-1.736-2.35-4.335-2.2-5.781.344L160.834,171.7a3.866,3.866,0,0,1-3.3,2.131L136.95,157.2a5.058,5.058,0,0,0,.652-4.083l-6.225-40.692c-.886-5.313-5.015-10.473-14.827-15.417L86.813,83.06c-3.238-1.344-5.407-.754-8.09,1.405L61.89,99.516a5.069,5.069,0,0,0,3.844,9.071l.537-.659,79.146,63.966-18.37,27.879c-1.609,2.441-.532,4.44,2.388,4.44h69.5C201.859,204.211,202.829,202.284,201.093,199.934ZM87.169,116.97l-14.9-12.037L83.9,97.55l10.3,7.35Zm23.146,18.7,7.782-11.741,7.278,23.913Z" transform="translate(346.65 4710.226)" fill="#35829f"/>
    <path id="パス_50" data-name="パス 50" d="M78.565,249.429,64,236.445l.255-.384L41.527,217.693,1.145,287.1a6.452,6.452,0,0,0,10.616,7.337l36.082-44.49,17.429,10.6S57.165,289,57.058,289.354a6.163,6.163,0,0,0,11.81,3.531l12.319-30.544C83.285,257.1,82.694,252.972,78.565,249.429Z" transform="translate(387.69 4617.415)" fill="#35829f"/>
  </g>
</svg>
