<svg xmlns="http://www.w3.org/2000/svg" width="396" height="361.299" viewBox="0 0 396 361.299">
  <g id="figure01" transform="translate(-269.914 -4600.83)">
    <g id="bg" transform="translate(269.914 4600.83)" fill="#fff" stroke="#1a283a" stroke-width="0.5">
      <rect width="396" height="361.299" stroke="none"/>
      <rect x="0.25" y="0.25" width="395.5" height="360.799" fill="none"/>
    </g>
    <path id="パス_46" data-name="パス 46" d="M173.291,40.689V146.832H6V13H173.291V40.689" transform="translate(377.914 4768.607)" fill="none" stroke="#35829f" stroke-linecap="square" stroke-width="1"/>
    <path id="パス_47" data-name="パス 47" d="M12,23,67.776,60.184,123.552,23" transform="translate(399.802 4805.087)" fill="none" stroke="#35829f" stroke-linecap="square" stroke-linejoin="round" stroke-width="1"/>
    <path id="パス_259" data-name="パス 259" d="M-29.6-4.758l1.534,3.926.468-.338a1.386,1.386,0,0,1,.78-.208,4.022,4.022,0,0,1,1.274.234,5.563,5.563,0,0,0,1.508.286A3.566,3.566,0,0,0-20.6-4.446a3.263,3.263,0,0,0-1.118-2.522A6.651,6.651,0,0,0-24.9-8.294c-2.262-.52-3.068-1.092-3.068-2.184,0-1.04.806-1.716,2.054-1.716,1.43,0,3.042,1.118,4.238,2.912l.624-.442-1.43-3.432-.312.234a1.661,1.661,0,0,1-.858.26,2.22,2.22,0,0,1-.858-.208,4.361,4.361,0,0,0-1.43-.286A3.262,3.262,0,0,0-29.211-9.88c0,1.976,1.352,3.146,4.42,3.874a6.668,6.668,0,0,1,1.9.6,1.989,1.989,0,0,1,.884,1.638,2,2,0,0,1-2.158,1.95c-1.638,0-3.64-1.326-4.784-3.25ZM-9.971-11.8h3.328v-.988H-9.971v-4.03h-.806c-.364,2.574-1.066,3.64-2.7,4.264v.754h1.638v7.332a4.59,4.59,0,0,0,.39,2.5A2.444,2.444,0,0,0-9.191-.858a4.017,4.017,0,0,0,3.38-1.95l-.572-.416c-.858.806-1.274,1.04-2,1.04-1.222,0-1.586-.65-1.586-2.782Zm20.8,4.16c-.338-3.354-2.236-5.512-4.94-5.512C2.925-13.156.3-10.088.3-6.578A5.448,5.448,0,0,0,5.785-.858a6.249,6.249,0,0,0,5.148-2.808l-.546-.416a5.161,5.161,0,0,1-3.9,1.9c-2.184,0-3.666-1.4-4-3.8a6.7,6.7,0,0,1-.1-1.664ZM2.561-8.606C2.9-11.024,4.043-12.35,5.785-12.35c1.768,0,2.7,1.2,2.886,3.744Zm19.084-4.68-3.588,1.118v.676c1.508.156,1.716.39,1.716,1.872V.7c0,1.456-.234,1.69-1.716,1.69v.884h5.3V2.392h-.078c-1.43,0-1.638-.234-1.638-1.69V-2.366A4.53,4.53,0,0,0,24.817-.858c2.6,0,4.68-2.756,4.68-6.214,0-3.354-2.106-6.084-4.654-6.084a4.554,4.554,0,0,0-3.2,1.508Zm0,2.678a3.258,3.258,0,0,1,2.626-1.378c2.028,0,3.094,1.69,3.094,5.018,0,3.2-1.092,4.836-3.172,4.836a3.542,3.542,0,0,1-2.548-1.144Z" transform="translate(364.914 4675.83)" fill="#35829f"/>
    <path id="パス_258" data-name="パス 258" d="M-28.779-20.3c0,10.07,5.512,18.709,11.925,18.709S-4.982-10.176-4.982-20.3s-5.459-18.709-11.872-18.709C-23.32-39.008-28.779-30.422-28.779-20.3Zm5.406-.212c0-10.865,2.173-16.483,6.519-16.483,4.293,0,6.466,5.565,6.466,16.695S-12.561-3.6-16.907-3.6-23.373-9.222-23.373-20.511Zm43.99-18.815c-6.095,2.385-8.427,3.074-13.2,3.869V-33.5c5.088,0,6.307.159,7.526.742.8.371.954,1.113.954,3.975V-9.593c0,4.664-.583,5.035-8.639,5.088v2.12H28.62v-2.12h-.9c-3.18,0-5.088-.371-6.095-1.06-.848-.636-1.007-1.219-1.007-4.452Z" transform="translate(364.914 4726.83)" fill="#35829f"/>
    <path id="パス_257" data-name="パス 257" d="M10.758-21.153v-4.62c1.023-.4,1.221-.693,1.221-.957,0-.33-.3-.561-3.2-.858.066,1.122.1,2.046.1,3.432v3H4.818a10.469,10.469,0,0,0-2.277-.924c.066,1.155.1,2.145.1,3.7,0,6.039-.132,7.656-.132,8.415,0,.33.165.495.627.495.726,0,1.287-.4,1.287-.99v-9.207l.33-.4H8.943v2.739c0,4.785-.066,6.6-.066,7.161,0,.3.165.429.561.429.792,0,1.32-.363,1.32-.759,0-.5-.1-2.244-.1-6.831v-2.013a.686.686,0,0,0,.594-.726h3.894V-12.9c0,.561-.165.792-.792.792a19.614,19.614,0,0,1-2.376-.165l-.066.66c1.65.363,2.046.825,2.178,1.749,1.716,0,2.937-.891,2.937-2.211,0-1.221-.1-3.267-.1-6.2v-1.287c.726-.3,1.023-.561,1.023-.825,0-.3-.1-.528-.924-1.155-.693-.528-.924-.627-1.254-.627-.264,0-.429.2-.792,1.023Zm20.658,0c.33,0,.528-.165.528-.4,0-.3-.363-.726-2.409-2.409-.594.627-.99,1.089-1.518,1.716H22.209a25.8,25.8,0,0,0,1.32-3.168c.957-.231,1.188-.462,1.188-.825,0-.3-.132-.561-3-1.386A32.048,32.048,0,0,1,17.457-16.5l.561.363a29.136,29.136,0,0,0,2.409-3.1,14.982,14.982,0,0,0,2.31,4.653,16.99,16.99,0,0,1-5.973,4.455l.33.561a16.671,16.671,0,0,0,6.666-3.8,15.923,15.923,0,0,0,5.973,3.894,2.549,2.549,0,0,1,1.914-1.452l.132-.627a16.7,16.7,0,0,1-6.831-3.069,16.583,16.583,0,0,0,3-5.841.805.805,0,0,0,.726-.693Zm-5.445,0c-.231.792-.429,1.551-.726,2.31a17.7,17.7,0,0,1-1.584,3.036A13.072,13.072,0,0,1,20.955-20c.231-.4.462-.759.693-1.155ZM5.115-5.346l-3.3-.165v1.419l3.3-.165h5.907c-.495,3.3-2.8,5.247-8.712,6.5l.231.627C9.4,2.244,12.606-.165,13.134-4.257H20.3c0,3.564-.132,5.544-.132,6.666,0,.33.2.462.594.462.858,0,1.683-.495,1.683-.957,0-.924-.132-2.8-.132-6.171h8.976c.33,0,.528-.165.528-.4,0-.33-.4-.825-3.234-2.97a23.358,23.358,0,0,0-1.914,2.277H22.308V-7.623c1.023-.429,1.254-.726,1.254-.99,0-.363-.264-.594-3.366-.891.066,1.056.1,1.947.1,4.158H13.2V-7.524c.825-.33,1.221-.561,1.221-.924,0-.429-.462-.627-3.432-.957a29.246,29.246,0,0,1,.132,3.564v.495ZM3.333-26.07A6.021,6.021,0,0,1,5.28-22.539c.132.726.462.99.957.99s1.056-.429,1.056-1.32c0-.99-.957-2.475-3.6-3.7Zm8.943,4.785a18.573,18.573,0,0,0,2.97-3.4c.759-.132,1.122-.264,1.122-.594,0-.3-.2-.5-2.574-1.419a23.417,23.417,0,0,1-2.079,5.082Zm-.858,3.366a7.513,7.513,0,0,1,.99,3.531c.066.561.4.924.792.924.528,0,1.023-.363,1.023-1.287,0-1.155-.726-2.376-2.244-3.5ZM5.346-11.484A19.575,19.575,0,0,0,7.788-17.16c.759-.3.858-.429.858-.66s-.231-.429-2.376-.858a26.153,26.153,0,0,1-1.518,6.93Zm39.7-9.636v-4.587c1.056-.363,1.221-.66,1.221-.924,0-.33-.693-.627-3.432-.858.066,1.089.1,1.617.1,3.3v3.069h-1.98l-2.97-.165v1.419l2.97-.165h6.3A48.621,48.621,0,0,1,37.29-6.4l.429.528A37.285,37.285,0,0,0,43.1-10.626c0,9.009-.2,11.715-.2,12.9,0,.33.231.5.66.5.693,0,1.65-.429,1.65-.924,0-.858-.165-3.663-.165-12.606A6.679,6.679,0,0,1,47.52-8.217c.528,1.155.891,1.485,1.452,1.485a1.173,1.173,0,0,0,1.023-1.287c0-1.65-2.145-3-4.95-3.564v-1.254a44.68,44.68,0,0,0,4.422-6.2c1.122-.462,1.353-.726,1.353-1.089,0-.2-.1-.429-1.023-1.221-.858-.726-1.023-.792-1.32-.792-.264,0-.429.165-1.023,1.023ZM57.222-.3H49.929L46.563-.462V.957L49.929.792H67.848c.33,0,.528-.165.528-.4,0-.33-.165-.561-3.2-2.937-.792.792-1.518,1.617-2.046,2.244H59.466V-15.048h7.623c.33,0,.528-.165.528-.4,0-.33-.165-.495-3.135-2.871-.792.792-1.386,1.551-1.947,2.178H59.466v-9.438c1.122-.429,1.287-.726,1.287-.99,0-.363-.462-.594-3.663-.891.1,1.188.132,2.607.132,5.445v5.874H52.7L49.335-16.3v1.419l3.366-.165h4.521ZM95.865-16.83a2.928,2.928,0,0,1,1.353.363.512.512,0,0,1,.3.5c0,.3-.3.627-1.122,1.155-1.287.825-3.168,1.914-6.039,3.6-.033-.693-.066-.99-.132-1.518a2.931,2.931,0,0,0-2.838-2.706,7.176,7.176,0,0,0-3.828,1.221c1.188-1.98,2.013-3.366,2.805-4.95,2.079-.462,3.036-.693,4.389-1.089a11.967,11.967,0,0,0,2.046-.726.989.989,0,0,0,.594-.99c0-.429-.363-.792-1.089-.825a2.265,2.265,0,0,0-1.221.33,12.892,12.892,0,0,1-3.762,1.419c.33-.66.66-1.32.891-1.749a3.693,3.693,0,0,1,.594-.759c.264-.264.363-.363.363-.693,0-.363-.462-.726-.99-1.089a4.714,4.714,0,0,0-2.442-.924,2.976,2.976,0,0,0-1.551.462l.033.528a2.982,2.982,0,0,1,1.584.33.979.979,0,0,1,.627.891,5.979,5.979,0,0,1-.264,1.419,12.293,12.293,0,0,1-.825,2.079A21.655,21.655,0,0,1,80.949-20a4.363,4.363,0,0,1-3.531-1.254l-.561.495a3.912,3.912,0,0,0,3.861,2.211,26.972,26.972,0,0,0,3.795-.33,26.7,26.7,0,0,1-2.805,4.653,24.767,24.767,0,0,1-2.475,2.838c-.825.825-1.056,1.32-1.056,1.716a.91.91,0,0,0,.924.957,1.5,1.5,0,0,0,1.221-.627,33.243,33.243,0,0,1,2.442-2.871c1.584-1.584,2.772-2.046,4.158-2.046a1.434,1.434,0,0,1,1.518,1.287,21.8,21.8,0,0,1,.132,2.706C84.084-7.59,82.3-5.445,82.3-3.432c0,1.98,1.32,3.531,3.729,4.059a18.9,18.9,0,0,0,4.059.33A48.551,48.551,0,0,0,97.35.528c.627-.1.759-.528.726-1.023-.033-.66-.825-1.254-2.211-1.221a2.985,2.985,0,0,0-1.122.2,7.552,7.552,0,0,1-2.145.462c-1.287.1-2.9.132-4.455.132-2.838,0-4.29-.99-4.29-2.541,0-1.98,1.188-3.1,4.719-5.247,0,1.584-.033,3.1-.066,4.62-.033.825.165,1.221.759,1.221A1.185,1.185,0,0,0,90.486-3.96c.033-1.155-.033-2.97-.066-5.643,3.2-1.782,4.983-2.673,7.755-4.092a10.379,10.379,0,0,1,1.947-.726c.5-.132.792-.33.792-.693a1.4,1.4,0,0,0-.594-1.023A6.922,6.922,0,0,0,98.6-17.226a3.558,3.558,0,0,0-1.254-.3,9.062,9.062,0,0,0-1.419.1Zm21.78-3.465V-16.1c0,1.155-.033,2.244-.132,3.267h-4.191L110.22-13v1.419l3.1-.165h4.092c-.693,6.105-3,10-7.392,13.233l.4.561c4.257-2.178,6.93-5.082,8.283-9.405a13.242,13.242,0,0,1,4.884,5.643c.4.825.759,1.188,1.386,1.188.528,0,1.089-.528,1.089-1.419a3.924,3.924,0,0,0-1.254-2.574,13.377,13.377,0,0,0-5.907-3.6,22.645,22.645,0,0,0,.66-3.63h7.392c.33,0,.528-.165.528-.4,0-.3-.165-.627-2.97-2.838a28.218,28.218,0,0,0-1.881,2.145h-2.97c.066-.891.1-1.848.1-2.838v-3.861a.915.915,0,0,0,.561-.759h5.445c.33,0,.528-.165.528-.4,0-.3-.264-.66-2.805-2.706-.594.66-1.122,1.254-1.716,2.013h-7.128a29.394,29.394,0,0,0,1.881-4.488c1.188-.264,1.386-.429,1.386-.825s-.5-.627-3.366-1.32a34.228,34.228,0,0,1-4.752,12.21l.528.363a24.7,24.7,0,0,0,3.729-4.851ZM131.6-22.011a12.1,12.1,0,0,0-2.772-1.155c.066,1.716.066,3.432.066,5.115,0,13.86-.165,17.457-.165,18.645,0,.363.165.594.66.594.726,0,1.617-.429,1.617-1.122V-3.663h6.3V-.231a.54.54,0,0,0,.594.528c.627,0,1.749-.429,1.749-.957,0-1.518-.165-4.29-.165-16.269V-20.2c.792-.33,1.089-.66,1.089-.957,0-.264-.033-.528-.99-1.287-.858-.66-1.122-.759-1.452-.759-.264,0-.495.231-.957,1.188Zm5.709,17.259h-6.3V-20.493l.4-.429h5.907Zm20.064-7.623c2.739-3.2,4.752-5.445,7.623-8.679a7.137,7.137,0,0,1,1.65-1.287c.528-.33.66-.561.66-.825s-.132-.462-.561-.792a5.62,5.62,0,0,0-2.112-.99,1.558,1.558,0,0,0-1.023.363c-2.079.693-3.663,1.155-5.61,1.65a7.436,7.436,0,0,1-1.617.2c-.693,0-1.221-.429-1.716-1.386l-.594.165a6.08,6.08,0,0,0,.066,1.287c.2,1.122,1.023,2.178,1.815,2.178a1.955,1.955,0,0,0,.891-.264c.165-.066.495-.165,1.353-.495A43.263,43.263,0,0,1,163.449-23c.33-.066.462-.033.462.1a.533.533,0,0,1-.132.33,145.444,145.444,0,0,1-9.9,11.946c-.528.561-1.188,1.155-1.782,1.716a1.8,1.8,0,0,0-.627,1.353,1.013,1.013,0,0,0,1.023.924,1.684,1.684,0,0,0,1.254-.594,17.956,17.956,0,0,1,2.145-2.442,11.2,11.2,0,0,1,7.392-3.2c3.894,0,5.973,2.607,5.973,5.214,0,2.9-1.815,5.445-5.577,6.4a1.6,1.6,0,0,0,0-.561,2.739,2.739,0,0,0-.2-.693A5.731,5.731,0,0,0,158.4-5.841c-1.815,0-3.333,1.056-3.333,2.673,0,2.409,2.64,3.828,6.336,3.828,5.874,0,10.131-3.465,10.131-7.788,0-4.356-3.432-6.963-7.722-6.963a11.449,11.449,0,0,0-6.3,1.815ZM161.964-.99c-3.267.132-5.61-.792-5.61-2.211,0-1.089.792-1.551,1.881-1.518C159.852-4.686,161.271-3.1,161.964-.99Z" transform="translate(423.914 4703.83)" fill="#35829f"/>
  </g>
</svg>
