<svg xmlns="http://www.w3.org/2000/svg" width="944.047" height="500.079" viewBox="0 0 944.047 500.079">
  <g id="catch" transform="translate(421.953 -706.328)">
    <g id="catch-text3" transform="translate(-1263.347 819.67)">
      <g id="bg" transform="translate(841.394 244.88)" fill="#fff" stroke="#fff" stroke-width="1">
        <rect width="544.447" height="141.857" stroke="none"/>
        <rect x="0.5" y="0.5" width="543.447" height="140.857" fill="none"/>
      </g>
      <g id="グループ_10625" data-name="グループ 10625" transform="translate(865.084 -45.636)">
        <path id="パス_225" data-name="パス 225" d="M93.957,367.3H76.5c.181,5.58.36,18.359.36,23.939,0,5.4,0,7.11-3.69,9.449a11.879,11.879,0,0,1-4.949,1.89c-1.17-2.609-2.25-4.949-7.56-7.109l.18-.72a53.76,53.76,0,0,0,6.84.63c4.049,0,4.319-.721,4.319-2.521,0-4.049-.179-21.869-.27-25.558H27.989a64.608,64.608,0,0,0-11.519,1.08l-2.16-3.96c6.749.63,13.319.72,14.939.72H84.417l2.52-3.51c.18-.27.9-1.08,1.35-1.08a3.916,3.916,0,0,1,1.71.9l4.41,3.51c.359.359.9.72.9,1.439C95.306,367.2,94.5,367.3,93.957,367.3Zm-.9-30.149c-.179.09-4.139,0-4.409,0-.99.449-5.49,2.97-6.48,3.42l-.45-.45a38.31,38.31,0,0,0,3.15-6.75H28.259c-1.89,10.529-6.93,12.51-9.269,12.51a3.052,3.052,0,0,1-2.97-2.97c0-2.16,1.71-3.24,5.309-5.67a17.148,17.148,0,0,0,6.57-9.72h.72a16.736,16.736,0,0,1-.09,3.69H52.2c0-4.77-.361-6.119-1.621-10.8l8.73,2.609c.63.09.81.9.81.991,0,.809-.72,1.349-2.88,2.609a29.447,29.447,0,0,0-.18,4.59H83.787l2.25-2.069a2.225,2.225,0,0,1,1.26-.721,1.831,1.831,0,0,1,1.44.721l4.95,5.489a1.823,1.823,0,0,1,.539,1.26A1.362,1.362,0,0,1,93.056,337.146ZM81.087,346.6H52.738c-.539.991-.539,1.081-.809,1.531,2.069.179,23.579,3.6,23.579,10.709a2.658,2.658,0,0,1-2.431,2.7c-1.529,0-1.979-.36-5.759-3.78a39.741,39.741,0,0,0-16.02-8.64,20.669,20.669,0,0,1-6.839,6.84,46.2,46.2,0,0,1-17.909,5.76l-.091-.54c8.64-2.34,17.19-7.11,21.51-14.58H42.3a65.6,65.6,0,0,0-11.61,1.081l-2.07-3.871c6.75.54,13.23.63,14.94.63h5.49a16.617,16.617,0,0,0,1.44-6.389,13.987,13.987,0,0,0-.361-2.88l7.11,1.44c.54.09,1.08.449,1.08.989,0,.811-.18.9-3.15,2.7a32.06,32.06,0,0,1-1.44,4.139h18.63l2.07-2.88c.359-.54.9-1.259,1.44-1.259.449,0,1.259.63,1.709.9l4.05,3.06a1.934,1.934,0,0,1,.9,1.349C82.527,346.506,81.717,346.6,81.087,346.6Zm-25.109,33.12c.09,2.7.18,6.839.18,8.638,0,3.42,0,3.781-.63,4.59a4,4,0,0,1-2.88,1.17c-1.8,0-1.62-1.26-1.44-3.149H33.929a23.59,23.59,0,0,1,0,4.59,3.484,3.484,0,0,1-3.42,2.79c-1.71,0-1.71-.9-1.71-1.621,0-.269.09-1.62.09-1.889.18-3.78.36-7.92.36-11.25a98.652,98.652,0,0,0-.63-11.159l6.03,2.609H50.4l1.71-1.439a1.61,1.61,0,0,1,1.17-.63c.45,0,1.08.45,1.17.45l2.88,1.979a2.434,2.434,0,0,1,.9,1.531C58.228,377.644,58.048,377.824,55.978,379.715Zm-4.68-2.521H33.929V388.8H51.3Z" fill="#183746"/>
        <path id="パス_226" data-name="パス 226" d="M145.8,402.214c6.48-4.5,12.059-11.79,15.659-20.16,3.42-7.83,4.23-16.379,4.23-24.929,0-9.27-1.44-17.19-2.97-19.619-.99-1.53-2.7-2.88-4.41-2.88a6.209,6.209,0,0,0-4.05,1.62c-8.369,8.01-12.509,25.469-12.779,26.549a80.681,80.681,0,0,0-1.08,10.349c0,.63.27,3.69.27,4.321a1.259,1.259,0,0,1-1.35,1.439,4.355,4.355,0,0,1-2.88-1.8c-3.42-4.769-3.42-13.769-3.42-15.3,0-5.489,2.43-20.7,3.42-27a31.757,31.757,0,0,0,.36-4.05c0-4.23-2.61-6.03-5.67-8.28a12.906,12.906,0,0,1,2.25-.269c2.88,0,8.55,1.619,8.55,6.029a13.179,13.179,0,0,1-.9,4.23c-.54,1.44-4.59,14.849-4.59,25.379,0,1.08.09,6.12.81,6.839.09.181.36.181.45.181.45,0,.63-.27.81-.9,1.26-5.49,6.39-23.849,16.559-30.419a7.165,7.165,0,0,1,3.96-.99c10.8,0,11.88,17.549,11.88,25.829,0,11.969-1.8,26.909-14.58,37.978-2.609,2.25-7.2,5.58-10.529,6.481Z" fill="#183746"/>
        <path id="パス_227" data-name="パス 227" d="M218.25,359.465c-1.53,0-1.71-.36-3.6-3.6a29.041,29.041,0,0,0-6.3-7.56l.27-.45c9.72,2.071,12.42,5.85,12.42,8.55A2.8,2.8,0,0,1,218.25,359.465Zm3.87,18.089a15.263,15.263,0,0,0-1.08,5.49c0,2.34,1.26,6.75,1.62,8.01,1.08,3.6,1.529,5.129,1.529,6.75,0,.9-.269,4.229-3.509,4.229-2.88,0-3.6-2.52-3.6-4.859,0-1.17.45-6.031.45-7.111,0-6.839-1.26-9.809-5.49-11.7v-.63c3.33-.18,5.31-.54,6.93-3.689,2.07-4.05,10.889-24.3,11.879-26.19h.54C230.13,354.155,224.819,369.635,222.12,377.554Zm3.33-40.948c-2.07,0-3.061-1.8-3.78-3.51a31.865,31.865,0,0,0-5.67-8.91v-.45c3.059.811,12.33,3.6,12.33,9.72A2.815,2.815,0,0,1,225.45,336.606ZM291.6,366.394c-4.05.811-5.85,2.521-7.83,5.04-13.5-8.009-19.709-20.249-21.6-26.548h-7.289a68.725,68.725,0,0,1-13.41,20.609,55.741,55.741,0,0,1-11.429,9.269l-.271-.36a82.23,82.23,0,0,0,20.16-29.518h-4.411a74.911,74.911,0,0,0-11.609.99l-2.069-3.87c6.749.54,13.229.719,14.939.719h3.959a69.493,69.493,0,0,0,2.971-10.169c-8.191,1.53-14.67,2.07-19.17,2.52l.091-.9c5.849-.72,16.289-3.15,30.868-9.089,6.03-2.431,6.84-3.33,8.37-5.13l5.579,5.489a1.7,1.7,0,0,1,.63,1.17c0,.9-.9.9-1.17.9a20.255,20.255,0,0,1-3.959-.81,100.25,100.25,0,0,1-15.479,4.681,83.455,83.455,0,0,1-3.691,11.338h22.049l2.971-3.509c.9-.991.989-1.08,1.439-1.08a3.516,3.516,0,0,1,1.71.9l4.14,3.51c.45.36.9.719.9,1.349,0,.811-.72.991-1.349.991h-24.48c8.37,14.759,19.44,19.258,28.529,21.149ZM233.639,393.3a2.386,2.386,0,0,1-2.61-2.43c0-1.441.54-2.07,2.34-4.14a31.749,31.749,0,0,0,5.85-11.16h.45a37.992,37.992,0,0,1,.45,5.4C240.119,386.824,237.869,393.3,233.639,393.3Zm22.41-25.109c0,3.869.179,20.969.179,24.479,0,5.49-1.53,7.739-8.189,9.54-1.08-5.13-4.771-6.481-6.57-7.2l.27-.629c1.08.179,5.4.45,6.569.45,3.061,0,3.241-1.441,3.241-3.151,0-8.549,0-14.849-.18-21.148a39.243,39.243,0,0,0-1.261-8.55l7.74,2.25c.81.27,1.17.54,1.17,1.17C259.018,366.3,257.848,367.115,256.049,368.2Zm12.419,27.089c-2.88,0-2.97-1.98-3.24-5.13a49.437,49.437,0,0,0-3.15-13.32l.45-.18c2.25,1.8,9.36,7.74,9.36,14.31C271.888,392.494,271.437,395.284,268.468,395.284Zm16.829,1.529c-2.88,0-3.51-3.239-4.05-5.939a27.964,27.964,0,0,0-5.669-12.96l.359-.36c6.39,3.51,12.42,9.9,12.42,15.12C288.357,395.1,287.277,396.813,285.3,396.813Z" fill="#183746"/>
        <path id="パス_228" data-name="パス 228" d="M337.589,403.743c11.159-9.539,20.879-21.059,20.879-38.519,0-6.119-1.531-11.519-3.6-13.949a8.625,8.625,0,0,0-6.21-3.059c-3.96,0-9.72,2.969-14.31,8.1-2.969,3.33-4.859,5.489-7.109,5.489-5.58,0-9.36-5.489-8.82-9.088,2.52,1.979,3.78,3.059,5.76,3.059,1.169,0,1.8-.36,7.379-3.51,8.19-4.679,11.52-6.57,17.37-6.57,12.509,0,14.849,11.52,14.849,18.81a41.8,41.8,0,0,1-11.519,29.428,54.351,54.351,0,0,1-14.31,10.44Zm.54-66.867c4.409-4.32,4.949-4.77,4.949-5.85,0-.99-.18-1.08-4.59-3.33a29.707,29.707,0,0,1-6.569-5.13c-1.891-1.979-1.891-2.97-1.981-4.05,5.76,4.05,6.75,4.68,15.84,7.02,4.41,1.08,9.63,3.78,9.63,7.2,0,1.62-1.261,1.62-1.8,1.62-.989,0-5.039-.63-5.939-.63-3.239,0-7.2,2.25-9.27,3.42Z" fill="#183746"/>
        <path id="パス_229" data-name="パス 229" d="M474.027,394.834c-23.309-11.97-29.518-36.269-31.138-46.708a77.289,77.289,0,0,1-8.371,5.669c3.871,3.24,12.87,12.87,12.87,30.239,0,10.35-2.249,17.01-14.04,18.18-.359-3.241-3.6-6.571-6.479-7.741l.27-.809a39.034,39.034,0,0,0,7.65,1.17c1.71,0,3.779-.271,5.039-1.62,2.88-3.151,3.15-9.09,3.15-12.15a46.687,46.687,0,0,0-.719-8.46c-10.89,11.79-23.94,21.78-39.419,26.1v-.63c13.409-5.669,29.518-20.789,38.068-31.228a23.974,23.974,0,0,0-2.34-5.4c-10.709,10.35-23.489,18.539-37.888,22.5l.09-.72c13.049-6.57,25.379-14.759,35.008-25.739-1.17-1.53-1.71-2.16-2.43-2.97a111.926,111.926,0,0,1-19.888,8.73,48.808,48.808,0,0,1-11.88,2.34v-.72c13.5-4.32,28.619-12.96,35.818-18.9h-6.75a64.617,64.617,0,0,0-11.519,1.08l-2.159-3.87c6.749.54,13.319.629,14.939.629h20.339l2.7-3.149c.72-.9.989-1.17,1.44-1.17a3.6,3.6,0,0,1,1.62.9l3.96,3.24c.45.45.9.809.9,1.439,0,.811-.81.9-1.35.9H445.5a10.492,10.492,0,0,1-1.98,1.62,61.942,61.942,0,0,0,6.75,18c3.24-2.43,10.349-8.909,12.24-11.61a9.441,9.441,0,0,0,1.8-3.6l5.76,4.139c.81.63,1.531.99,1.531,1.621a1.19,1.19,0,0,1-1.081,1.259c-.45,0-2.52.09-2.879.18-6.031,3.78-10.98,6.84-16.831,8.91,4.59,7.739,13.77,19.979,31.95,22.229v.81A14.207,14.207,0,0,0,474.027,394.834Zm4.409-57.239c-.449,0-3.059-.269-3.6-.359-.63.45-3.6,2.16-4.14,2.609-.63.451-3.33,2.34-3.87,2.7l-.54-.271c1.17-2.7,3.24-7.829,3.78-9.449h-54.9c.09,6.21-2.7,11.79-7.2,11.79-1.44,0-3.42-.811-3.42-2.971a4.392,4.392,0,0,1,2.429-3.779c3.061-1.62,5.941-3.15,6.75-9.54h.72c.271,1.17.36,1.44.54,2.34h24.48c0-3.06-.361-8.01-1.531-10.8l7.56,1.711c.9.18,1.62.359,1.62.989,0,.811-1.17,1.71-2.88,2.88-.18,3.691-.269,4.05-.269,5.22h24.118l3.511-1.619c1.079-.631,1.259-.631,1.529-.631a2.512,2.512,0,0,1,1.62,1.08l4.14,4.77a4.134,4.134,0,0,1,.99,1.98A1.358,1.358,0,0,1,478.436,337.6Z" fill="#183746"/>
      </g>
    </g>
    <g id="catch-text2" transform="translate(-928.953 381.248)">
      <g id="bg-2" data-name="bg" transform="translate(507 506.936)" fill="#fff">
        <path d="M 832.7559814453125 135.8659973144531 L 0.4999907314777374 135.8659973144531 L 0.4999907314777374 0.4999986588954926 L 832.7559814453125 0.4999986588954926 L 832.7559814453125 135.8659973144531 Z" stroke="none"/>
        <path d="M 1 1 L 1 135.3659973144531 L 832.2559814453125 135.3659973144531 L 832.2559814453125 1 L 1 1 M 0 0 L 833.2559814453125 0 L 833.2559814453125 136.3659973144531 L 0 136.3659973144531 L 0 0 Z" stroke="none" fill="#fff"/>
      </g>
      <g id="グループ_10624" data-name="グループ 10624" transform="translate(849.798 734.755)">
        <path id="パス_217" data-name="パス 217" d="M-267.54-121.613a46.455,46.455,0,0,0,10.26-3.6c8.46-4.05,15.84-10.619,15.84-21.329,0-5.4-1.891-10.35-7.38-13.68a24.294,24.294,0,0,0-7.29-2.88c-1.26,2.7-5.4,8.1-7.829,11.25-6.121,8.01-7.92,9.45-10.26,11.249a19.146,19.146,0,0,0,.99,2.25c1.8,3.42,1.8,3.871,1.8,4.861,0,.449,0,2.43-2.07,2.43-2.61,0-4.77-5.67-5.04-6.3-6.39,4.859-14.4,9.179-17.73,9.179-3.149,0-3.869-1.349-5.129-3.78-.36-.54-1.98-2.519-2.25-2.97a5.725,5.725,0,0,1-1.17-3.689c0-5.31,6.3-17.19,23.219-24.209a107.8,107.8,0,0,1,2.07-14.31,67.012,67.012,0,0,1-12.24,1.26c-2.969,0-7.019-.359-9.719-5.22a31.849,31.849,0,0,0,10.26,1.71,63.364,63.364,0,0,0,12.419-1.439c.27-.99,1.35-5.13,1.44-5.941a64.768,64.768,0,0,0,.9-6.569c0-3.15-3.24-4.95-4.95-5.939a3.454,3.454,0,0,1,2.16-.54c6.12,0,9.989,4.049,9.989,5.579,0,.54,0,.72-.9,2.52a54.746,54.746,0,0,0-3.78,9.72c5.13-1.351,7.919-2.431,13.229-4.32a6.241,6.241,0,0,1,2.16-.63c1.62,0,4.86,2.069,4.86,2.97,0,.99-1.26,1.349-5.49,2.519-6.12,1.62-14.309,3.24-15.839,3.6a78.429,78.429,0,0,0-2.25,13.5,51.5,51.5,0,0,1,15.929-2.16,5.831,5.831,0,0,0-.63-2.07,26.165,26.165,0,0,1-1.62-3.15c3.78-.27,7.38,2.97,7.92,5.76,9.36,1.71,20.429,6.48,20.429,19.619,0,10.62-7.109,17.1-14.039,20.969a33.651,33.651,0,0,1-18.27,4.59Zm-14.129-37.618c-10.35,5.04-18.719,14.579-18.719,21.508,0,3.42,2.07,5.04,4.5,5.04,3.51,0,11.159-4.319,16.379-8.009A63.269,63.269,0,0,1-281.669-159.231Zm6.3,14.939c5.76-5.76,12.419-16.649,13.5-19.619a41.63,41.63,0,0,0-15.479,2.79A57.39,57.39,0,0,0-275.369-144.292Z" fill="#183746"/>
        <path id="パス_218" data-name="パス 218" d="M-178.709-192.44c0-1.08-1.26-3.06-5.4-4.05a3.968,3.968,0,0,1,3.42-1.44c3.42,0,6.12,2.16,7.919,3.78a2.666,2.666,0,0,1,1.081,2.16c0,.63-.27.9-2.07,3.33a41.3,41.3,0,0,0-4.23,6.66,65.263,65.263,0,0,0,8.01-3.061c2.79-1.259,3.33-1.529,4.409-1.529.9,0,4.77.9,4.77,2.34,0,1.079-1.71,1.8-1.89,1.89-2.07.809-3.6,1.259-17.729,4.679-1.98,3.69-11.07,22.77-11.97,24.3-1.17,1.981-6.3,11.07-6.839,11.52a1.971,1.971,0,0,1-1.53.719c-.54,0-1.71-.359-1.71-2.789,0-2.52.72-3.42,2.61-5.759,3.33-4.141,7.379-11.88,10.619-18.18,1.531-2.97,3.33-6.75,4.32-8.73a35.781,35.781,0,0,1-9.18,1.44c-8.009,0-8.819-5.669-9-7.11a10.229,10.229,0,0,0,7.92,3.331,63.766,63.766,0,0,0,12.149-1.71C-183.029-180.921-178.709-190.641-178.709-192.44ZM-155.4-174.8c10.259,0,18,8.82,18,12.78a1.741,1.741,0,0,1-1.8,1.8,6.638,6.638,0,0,1-2.25-.719c-2.52-1.44-3.509-1.98-6.929-1.98-3.69,0-8.46.989-10.8,3.329-1.08,1.17-1.8,2.7-1.8,5.851,0,2.429,1.08,11.339,1.44,13.859,8.64,1.98,17.009,6.029,17.009,10.619,0,1.71-.99,2.52-1.979,2.52a4.2,4.2,0,0,1-1.98-.81c-7.56-5.4-8.73-6.3-12.78-7.559-.27,11.789-12.149,12.419-14.309,12.419-6.75,0-12.87-3.69-12.87-8.82,0-6.029,7.83-9.539,16.289-9.539a45.734,45.734,0,0,1,5.58.36c-.45-7.289-.45-8.1-.45-9.99,0-9.269,5.67-12.059,15.48-14.759.719-.18,1.8-.451,1.8-1.71,0-.99-2.16-2.52-3.42-3.329-1.98-1.261-4.05-2.071-9-3.691A17,17,0,0,1-155.4-174.8Zm-15.209,37.439c-3.42,0-12.42,1.08-12.42,5.939,0,3.691,5.49,4.41,8.1,4.41,2.88,0,11.069-1.08,10.709-9.449A22.031,22.031,0,0,0-170.609-137.362Z" fill="#183746"/>
        <path id="パス_219" data-name="パス 219" d="M-81.239-191.271c0-3.239-2.16-4.229-4.77-5.579a5.368,5.368,0,0,1,2.7-.72c7.019,0,8.46,5.13,8.46,6.84a8.856,8.856,0,0,1-1.441,2.79,60.066,60.066,0,0,0-3.869,8.549,51.809,51.809,0,0,0,8.1-3.78c.809-.539,3.42-2.069,4.949-2.069,1.08,0,2.97.719,2.97,2.34,0,.54,0,1.08-1.89,2.07-4.859,2.7-9.72,4.14-15.839,5.85-.18.54-.36.989-.9,2.429-8.55,23.939-17.369,42.928-18.359,44.819a2.494,2.494,0,0,1-2.43,1.62c-1.62,0-2.34-2.341-2.34-3.87,0-1.621.18-1.8,2.88-5.76,3.779-5.49,5.22-9.18,16.379-36.719a13.313,13.313,0,0,1,.54-1.439,65.606,65.606,0,0,1-12.239,1.619c-3.241,0-7.2-1.98-8.73-4.77a34.164,34.164,0,0,0,9.18,1.17,50.6,50.6,0,0,0,13.229-1.979C-83.849-180.291-81.239-188.391-81.239-191.271Zm26.729,60.478a66.332,66.332,0,0,0,10.08-.72,21.473,21.473,0,0,1,2.97-.359c2.79,0,4.319,1.89,4.319,3.51,0,1.079-.9,1.619-1.8,1.8a55.45,55.45,0,0,1-10.079.719c-5.311,0-14.67-.36-19.71-3.149-3.689-1.981-6.479-5.49-6.479-9.63a12.427,12.427,0,0,1,1.709-6.12C-72.959-136.643-71.879-130.793-54.51-130.793Zm-1.08-30.328c5.67-4.771,7.559-6.3,7.559-7.47,0-1.8-4.139-2.61-8.1-2.61-2.79,0-5.039.27-6.749.36a21.839,21.839,0,0,1,12.508-3.6c9.09,0,13.59,4.229,13.59,7.2,0,1.26-.81,1.71-2.07,1.71-.449,0-2.52-.18-2.88-.18a39.344,39.344,0,0,0-13.319,5.04Z" fill="#183746"/>
        <path id="パス_220" data-name="パス 220" d="M27.391-128.362c26.908-9.27,28.168-28.619,28.168-33.3,0-15.75-14.938-24.209-28.168-24.209a9.062,9.062,0,0,0-3.33.45c4.409,3.69,4.409,6.39,4.409,6.839,0,1.08-.269,1.44-2.159,5.4-10.979,23.039-11.97,25.289-17.1,32.939-.45.63-3.33,4.859-5.129,5.58a3.913,3.913,0,0,1-1.71.359c-2.07,0-2.7-.989-5.22-4.59a12.266,12.266,0,0,0-2.43-2.429c-3.51-2.88-4.68-6.03-4.68-12.15,0-18.089,15.209-35.1,38.249-35.1,16.469,0,32.758,9.359,32.758,27.989,0,16.469-13.229,31.228-33.478,33.208Zm-10.17-35.009c2.7-5.04,5.31-12.06,5.31-15.659a8.378,8.378,0,0,0-2.52-5.76c-10.08.81-25.289,14.129-25.289,31.769,0,6.839,4.32,12.869,7.829,12.869a2.268,2.268,0,0,0,1.71-.63c1.981-1.98,3.6-4.95,5.22-7.92Z" fill="#183746"/>
        <path id="パス_221" data-name="パス 221" d="M107.4-153.651c-.36-.361-2.971-2.97-2.971-5.67,0-2.071.811-3.241,3.151-5.85,15.569-16.92,20.968-22.769,22.678-25.739a4.527,4.527,0,0,0,.811-2.52c0-1.44-.361-1.89-3.51-6.12a14.379,14.379,0,0,1,5.579,1.53,9.8,9.8,0,0,1,4.231,7.379c0,1.351-.361,1.62-2.25,3.151-3.96,3.059-18.539,17.819-24.39,24.3-1.619,1.889-1.71,2.969-1.71,3.69,0,2.159,1.53,3.6,6.21,8.1,3.69,3.509,7.38,7.019,11.16,10.529,3.959,3.689,13.409,13.05,13.409,16.739,0,1.44-1.17,4.68-3.15,4.68-1.529,0-2.069-1.08-3.239-3.6a81.635,81.635,0,0,0-13.23-17.909Z" fill="#183746"/>
        <path id="パス_222" data-name="パス 222" d="M212.612-124.583a69.384,69.384,0,0,0,16.379-4.68c9.179-3.87,16.559-9.179,16.559-18a11.847,11.847,0,0,0-12.24-12.149c-13.5,0-27,11.609-30.6,17.729-.809,1.26-1.08,1.8-1.889,1.8-2.34,0-4.05-4.86-4.05-7.02a46.536,46.536,0,0,1,.9-4.95,124.423,124.423,0,0,0,1.98-19.889c0-7.02,0-7.739,1.44-9.9,2.159-3.24,3.419-3.509,14.49-5.759a.728.728,0,0,0,.809-.72c0-.45-.45-.63-1.62-1.26-1.89-1.08-7.289-4.77-7.109-9.09,2.79,2.61,6.75,4.59,13.049,7.29,5.31,2.34,5.94,6.119,5.94,7.289,0,1.8-.9,1.891-1.71,1.891a8.26,8.26,0,0,1-3.87-1.261c-1.17-.54-5.13-.9-8.01-.9-3.51,0-10.8.18-10.8,5.849a13.892,13.892,0,0,0,.9,4.411,21.327,21.327,0,0,1,.99,4.139c0,.36-.63,3.33-.72,3.96a78.7,78.7,0,0,0-1.8,14.219c0,1.08.361,2.07,1.17,2.07.181,0,.45,0,1.08-.54,8.281-7.469,20.61-12.149,29.789-12.149,11.25,0,17.01,8.369,17.01,15.659,0,9.18-8.01,15.209-12.42,17.279-6.66,3.06-14.76,5.13-25.648,5.31Z" fill="#183746"/>
        <path id="パス_223" data-name="パス 223" d="M355.98-143.662c-6.48,12.239-21.779,20.609-36,20.609-2.43,0-10.17-.54-13.319-4.139-2.97-3.42-3.691-9.09-3.691-18.18,0-1.35.45-19.169.54-21.959s.54-14.94.54-17.459c0-7.56-2.609-8.46-6.3-9.9.631-.72,1.531-1.44,3.96-1.44,3.781,0,8.821,4.319,8.821,6.66,0,.81-.45,3.329-.721,4.949-2.069,11.07-3.239,29.16-3.239,40.5,0,3.51,0,11.429,1.8,13.86,1.979,2.609,5.4,3.239,8.729,3.239,11.25,0,30.778-9.359,38.608-17.1Z" fill="#183746"/>
        <path id="パス_224" data-name="パス 224" d="M402.871-159.951c-.63,2.7-3.69,14.669-4.32,17.1-1.35,5.4-1.89,8.01-1.89,10.35,0,.99.45,6.21.45,6.3,0,1.08-.18,2.34-1.71,2.34-1.35,0-2.97-1.71-3.779-3.06-4.05-6.93-4.951-13.769-4.951-23.039a62.2,62.2,0,0,1,.63-8.55l2.88-19.709a42.773,42.773,0,0,0,.54-6.569c0-4.95-1.8-7.021-2.79-8.19,4.14-.63,9,4.86,9,8.19a35.983,35.983,0,0,1-1.44,4.949c-1.98,6.21-5.13,19.26-5.13,29.789,0,7.47,1.53,13.05,2.61,13.05.54,0,.99-1.351.99-1.44,2.79-8.64,4.23-12.15,8.19-21.959Zm17.279,20.518c5.13,2.34,12.96,2.521,14.939,2.521a60.491,60.491,0,0,0,9.54-.811,11.172,11.172,0,0,1,1.53-.089c1.53,0,6.3,1.169,6.3,3.419,0,2.34-3.059,2.521-8.639,2.521-4.14,0-18.9-.631-24.479-3.78a12.094,12.094,0,0,1-6.3-10.53,7.656,7.656,0,0,1,.45-2.7C415.2-144.292,416.28-141.232,420.15-139.433Zm5.94-34.288c1.89-1.53,9.27-7.469,9.27-8.279,0-.721-2.61-.721-2.79-.721-2.611,0-9.54,1.08-17.46,3.87,8.19-6.3,13.859-7.92,20.069-7.92,5.49,0,12.87,1.531,12.87,4.321,0,1.529-1.26,1.8-4.59,2.429a45.735,45.735,0,0,0-16.919,6.93Z" fill="#183746"/>
      </g>
    </g>
    <g id="catch-text1" transform="translate(-1083.323 -702.776)">
      <rect id="bg-3" data-name="bg" width="944.047" height="141.856" transform="translate(661.37 1409.104)" fill="#fff"/>
      <g id="グループ_10626" data-name="グループ 10626" transform="translate(685.746 1365.578)">
        <path id="パス_230" data-name="パス 230" d="M50.882,152.792a46.378,46.378,0,0,0,10.26-3.6c8.46-4.05,15.84-10.619,15.84-21.329,0-5.4-1.891-10.35-7.38-13.68a24.265,24.265,0,0,0-7.29-2.88c-1.26,2.7-5.4,8.1-7.829,11.25-6.121,8.01-7.92,9.449-10.26,11.249a19.274,19.274,0,0,0,.989,2.25c1.8,3.42,1.8,3.87,1.8,4.86,0,.45,0,2.43-2.071,2.43-2.609,0-4.769-5.67-5.039-6.3-6.39,4.86-14.4,9.18-17.73,9.18-3.149,0-3.869-1.35-5.129-3.78-.36-.54-1.98-2.52-2.25-2.97a5.729,5.729,0,0,1-1.17-3.689c0-5.31,6.3-17.19,23.219-24.209a107.8,107.8,0,0,1,2.07-14.31,67.1,67.1,0,0,1-12.24,1.26c-2.969,0-7.019-.36-9.719-5.22a31.872,31.872,0,0,0,10.259,1.71,63.365,63.365,0,0,0,12.42-1.439c.27-.991,1.35-5.13,1.44-5.941a64.768,64.768,0,0,0,.9-6.569c0-3.151-3.24-4.95-4.95-5.94a3.46,3.46,0,0,1,2.16-.54c6.12,0,9.989,4.05,9.989,5.579,0,.54,0,.721-.9,2.521a54.683,54.683,0,0,0-3.78,9.72c5.13-1.351,7.919-2.431,13.229-4.321a6.264,6.264,0,0,1,2.16-.63c1.62,0,4.86,2.07,4.86,2.97,0,.99-1.26,1.35-5.49,2.52-6.12,1.62-14.31,3.24-15.839,3.6a78.444,78.444,0,0,0-2.25,13.5,51.5,51.5,0,0,1,15.929-2.16,5.82,5.82,0,0,0-.63-2.069,26.072,26.072,0,0,1-1.62-3.151c3.78-.269,7.38,2.97,7.92,5.76,9.36,1.71,20.429,6.481,20.429,19.619,0,10.62-7.109,17.1-14.039,20.97a33.66,33.66,0,0,1-18.27,4.59ZM36.753,115.174c-10.35,5.04-18.719,14.579-18.719,21.509,0,3.42,2.07,5.04,4.5,5.04,3.51,0,11.159-4.319,16.379-8.01A63.258,63.258,0,0,1,36.753,115.174Zm6.3,14.94c5.76-5.76,12.419-16.65,13.5-19.619a41.63,41.63,0,0,0-15.479,2.79A57.4,57.4,0,0,0,43.053,130.114Z"/>
        <path id="パス_231" data-name="パス 231" d="M131.343,85.116c1.89,0,11.16-2.071,16.47-3.691a31.848,31.848,0,0,1,4.679-1.17c2.52,0,5.94,3.51,5.94,5.76,0,1.08-.18,1.17-2.07,2.521a17.076,17.076,0,0,0-3.96,3.689c-2.609,3.24-14.219,17.55-16.559,20.52-1.17,1.529-2.52,3.239-4.68,6.3,4.5-2.79,12.51-7.38,22.949-7.38,13.05,0,19.62,7.65,19.62,17.1,0,11.969-10.89,20.429-24.929,20.429-7.74,0-17.279-2.97-17.279-9.81,0-6.029,5.759-7.38,9.179-7.38,7.38,0,11.61,4.771,13.949,12.33,9-1.35,13.68-9.45,13.68-16.2,0-9.18-6.66-14.04-15.39-14.04-17.009,0-30.058,16.289-30.959,17.819-2.249,3.781-3.329,5.581-5.309,5.581-1.17,0-1.98-.9-1.98-2.97,0-2.971.81-3.78,2.88-5.76,14.039-13.5,32.669-39.148,32.669-42.929a1.112,1.112,0,0,0-1.26-1.259c-1.44,0-10.26,2.519-13.59,4.589-.99.63-2.88,1.8-3.51,1.8-2.52,0-7.379-3.87-7.379-8.01a2.094,2.094,0,0,1,.9-1.8A5.916,5.916,0,0,0,131.343,85.116Zm7.74,50.307c-2.25,0-4.41,1.26-4.41,3.691,0,4.589,9.63,6.569,12.15,6.569a7.926,7.926,0,0,0,3.059-.54C148.893,139.654,143.043,135.423,139.083,135.423Z"/>
        <path id="パス_232" data-name="パス 232" d="M222.423,120.754c-.36-.36-2.97-2.969-2.97-5.67,0-2.07.81-3.24,3.15-5.849,15.569-16.92,20.969-22.77,22.679-25.74a4.528,4.528,0,0,0,.81-2.519c0-1.44-.36-1.891-3.509-6.12a14.385,14.385,0,0,1,5.579,1.53,9.8,9.8,0,0,1,4.23,7.379c0,1.351-.36,1.62-2.25,3.15-3.96,3.06-18.539,17.82-24.389,24.3-1.62,1.89-1.71,2.97-1.71,3.691,0,2.159,1.53,3.6,6.21,8.1,3.69,3.51,7.379,7.02,11.16,10.53,3.959,3.689,13.409,13.049,13.409,16.739,0,1.439-1.17,4.68-3.151,4.68-1.529,0-2.069-1.081-3.239-3.6A81.591,81.591,0,0,0,235.2,133.444Z"/>
        <path id="パス_233" data-name="パス 233" d="M351.482,92.585a6.437,6.437,0,0,1,1.89-.36c.45,0,4.86.45,4.86,2.7,0,1.26-.9,1.71-1.8,2.16a51.262,51.262,0,0,1-14.76,2.61,17.165,17.165,0,0,1-5.759-.991,77.1,77.1,0,0,0-.27,7.831,129.133,129.133,0,0,0,2.069,23.939c3.06.63,23.129,4.859,23.129,11.879a2.236,2.236,0,0,1-2.069,2.43c-1.71,0-4.41-1.89-6.48-3.33a38.119,38.119,0,0,0-14.4-6.209c-.449,4.769-1.8,12.869-15.119,12.869-8.01,0-15.029-3.869-15.029-8.82,0-4.049,4.59-7.38,8.01-8.37a46.477,46.477,0,0,1,12.869-1.619c1.71,0,2.79.09,4.32.18-.36-5.31-1.351-17.909-1.351-22.409,0-3.15.181-18.72.091-19.709-.54-5.22-1.35-6.39-6.75-7.83a6.738,6.738,0,0,1,4.32-1.621c2.7,0,9.089,2.611,9.089,5.67a35.743,35.743,0,0,1-.99,4.231A63.131,63.131,0,0,0,336.092,96C342.3,95.915,346.442,94.385,351.482,92.585Zm-26.009,40.769c-10.17,0-14.219,3.149-14.219,5.849,0,2.34,3.78,4.68,9.809,4.68.811,0,5.941,0,9.27-2.61,2.879-2.25,2.7-6.029,2.61-7.2A27.379,27.379,0,0,0,325.473,133.354Z"/>
        <path id="パス_234" data-name="パス 234" d="M426.633,156.752c11.16-9.539,20.879-21.058,20.879-38.518,0-6.119-1.53-11.52-3.6-13.949a8.626,8.626,0,0,0-6.21-3.06c-3.96,0-9.72,2.97-14.31,8.1-2.97,3.33-4.859,5.489-7.109,5.489-5.58,0-9.361-5.489-8.821-9.089,2.521,1.979,3.781,3.06,5.76,3.06,1.17,0,1.8-.361,7.38-3.51,8.19-4.68,11.52-6.571,17.369-6.571,12.51,0,14.85,11.52,14.85,18.81a41.8,41.8,0,0,1-11.52,29.429,54.325,54.325,0,0,1-14.309,10.439Zm.54-66.867c4.41-4.319,4.95-4.769,4.95-5.849,0-.991-.18-1.081-4.59-3.331a29.733,29.733,0,0,1-6.57-5.129c-1.89-1.98-1.89-2.97-1.98-4.05,5.76,4.05,6.75,4.679,15.84,7.019,4.41,1.08,9.63,3.781,9.63,7.2,0,1.621-1.261,1.621-1.8,1.621-.989,0-5.039-.63-5.94-.63-3.239,0-7.2,2.25-9.269,3.42Z"/>
        <path id="パス_235" data-name="パス 235" d="M523.113,81.965c0-1.079-1.26-3.059-5.4-4.05a3.97,3.97,0,0,1,3.42-1.439c3.42,0,6.121,2.16,7.92,3.779a2.671,2.671,0,0,1,1.08,2.16c0,.63-.27.9-2.07,3.33a41.343,41.343,0,0,0-4.229,6.661,65.487,65.487,0,0,0,8.009-3.061c2.789-1.26,3.329-1.529,4.41-1.529.9,0,4.769.9,4.769,2.34,0,1.079-1.709,1.8-1.89,1.889-2.069.81-3.6,1.26-17.729,4.68-1.98,3.689-11.069,22.77-11.969,24.3-1.17,1.98-6.3,11.069-6.84,11.519a1.969,1.969,0,0,1-1.53.72c-.54,0-1.71-.359-1.71-2.789,0-2.521.72-3.42,2.61-5.76,3.33-4.14,7.379-11.88,10.62-18.179,1.53-2.97,3.33-6.75,4.32-8.73a35.831,35.831,0,0,1-9.18,1.44c-8.01,0-8.82-5.669-9-7.11a10.232,10.232,0,0,0,7.92,3.33,63.7,63.7,0,0,0,12.15-1.71C518.794,93.485,523.113,83.765,523.113,81.965Zm23.309,17.64c10.26,0,18,8.819,18,12.779a1.741,1.741,0,0,1-1.8,1.8,6.615,6.615,0,0,1-2.25-.72c-2.52-1.439-3.51-1.979-6.93-1.979-3.689,0-8.46.989-10.8,3.329-1.08,1.17-1.8,2.7-1.8,5.85,0,2.43,1.08,11.339,1.441,13.86,8.639,1.979,17.009,6.029,17.009,10.619,0,1.71-.991,2.519-1.98,2.519a4.22,4.22,0,0,1-1.98-.809c-7.56-5.4-8.73-6.3-12.78-7.56-.269,11.789-12.149,12.419-14.309,12.419-6.749,0-12.869-3.689-12.869-8.819,0-6.029,7.83-9.539,16.289-9.539a45.974,45.974,0,0,1,5.58.359c-.45-7.289-.45-8.1-.45-9.989,0-9.27,5.669-12.06,15.479-14.76.72-.179,1.8-.45,1.8-1.71,0-.989-2.16-2.519-3.42-3.329-1.98-1.261-4.05-2.07-9-3.69A16.96,16.96,0,0,1,546.422,99.605Zm-15.21,37.438c-3.418,0-12.418,1.08-12.418,5.94,0,3.69,5.489,4.41,8.1,4.41,2.88,0,11.069-1.08,10.71-9.449A22.01,22.01,0,0,0,531.212,137.043Z"/>
        <path id="パス_236" data-name="パス 236" d="M673.411,152.252H656.582c-17.28,0-22.23,0-29.969-2.429-7.11-2.161-9.81-5.49-11.88-10.079-.45.359-8.64,7.739-10.439,10.8-.54,2.7-.54,2.88-1.26,2.88a1.368,1.368,0,0,1-1.08-.63l-4.59-6.749a8.451,8.451,0,0,0,3.87-.54c1.26-.54,4.05-2.07,10.169-5.49,0-5.58,0-19.259.09-25.469a73.979,73.979,0,0,0-12.6.991l-2.07-3.871c4.859.451,9,.63,12.959.72l2.341-2.16c.9-.81.989-.9,1.529-.9a3.156,3.156,0,0,1,1.26.54l3.42,2.7c.81.631.99.9.99,1.35,0,.63-.72,1.081-1.08,1.35a7.91,7.91,0,0,0-2.07,1.62v20.61c1.26,10.349,15.929,10.349,24.119,10.349a268.511,268.511,0,0,0,32.309-2.16,48.281,48.281,0,0,0,7.65-1.8v.45A12.5,12.5,0,0,0,673.411,152.252ZM615.453,92.315c-2.159,0-2.52-.989-3.78-4.23-.9-2.34-2.969-7.29-6.929-10.529l.269-.45c12.42,4.229,13.409,10.619,13.409,11.97A2.96,2.96,0,0,1,615.453,92.315Zm59.038-4.86H650.282v9.63h12.329l2.07-1.71c.9-.72,1.08-.81,1.44-.81a2.137,2.137,0,0,1,1.08.45l3.33,2.52a1.375,1.375,0,0,1,.54.9c0,.63-.18.81-2.52,2.34,0,2.61,0,5.76.18,8.189.09,1.62.359,4.68.359,4.861,0,2.339-3.419,2.79-3.6,2.79-1.71,0-1.62-1.261-1.62-2.431h-13.32l.09,5.311a89.639,89.639,0,0,1,15.93,5.939c2.25,1.08,8.37,3.96,8.37,8.1a2.881,2.881,0,0,1-2.61,3.149c-1.531,0-2.61-1.26-3.6-2.34-1.71-1.979-9.269-9.72-18.09-13.769.091,2.52.271,13.769.361,16.109,0,.54.179,3.78.179,4.23,0,2.79-3.779,2.88-3.96,2.88-.809,0-1.889-.18-1.889-1.98,0-.27.18-1.44.18-1.529.09-1.441.09-2.431.09-6.121,0-2.339,0-13.409.09-16.559-5.85,8.64-15.21,15.93-22.319,18.63l-.27-.45a91.417,91.417,0,0,0,19.8-21.6h-11.25a3.251,3.251,0,0,1-.54,2.07,5.952,5.952,0,0,1-3.239,1.17c-1.17,0-1.531-.36-1.531-1.8,0-.45.09-2.7.09-3.15.091-1.35.181-3.689.181-7.289,0-7.2-.271-8.91-.63-10.89l6.029,2.79h13.86c0-4.86-.18-7.83-.18-9.63h-10.35a73.785,73.785,0,0,0-11.519.991l-2.16-3.87c6.75.54,13.319.719,14.939.719h9c-.36-7.649-.63-10.439-1.53-12.869l7.92,2.34c.989.27,1.349.45,1.349,1.08,0,.45-.179.81-.809,1.26a12.237,12.237,0,0,0-2.07,1.8,8.068,8.068,0,0,0-.18,1.98v4.409h14.849l2.97-2.969c.63-.63,1.08-1.081,1.529-1.081a3.59,3.59,0,0,1,1.621.9l3.69,2.97c.449.359.9.719.9,1.349C675.84,87.276,675.121,87.455,674.491,87.455Zm-42.839,11.79v12.78h14.13c0-.181.09-11.52.09-12.78Zm32.219,0H650.282c0,5.85,0,6.209.18,12.78h13.409Z"/>
        <path id="パス_237" data-name="パス 237" d="M751.532,84.486a42.9,42.9,0,0,0,5.49.989c.9,0,4.41-1.079,5.13-1.079,1.439,0,2.79.809,2.79,2.25a3.763,3.763,0,0,1-1.53,2.7,49.61,49.61,0,0,1-15.48,8.55,245.866,245.866,0,0,1,17.73,18.809c2.429,2.97,3.779,4.59,3.779,6.57,0,1.889-1.35,5.849-3.149,5.849-.54,0-.81-.089-3.06-1.349a49,49,0,0,0-21.689-5.49c-11.34,0-18.99,4.589-18.99,11.25,0,7.829,8.82,10.979,13.05,11.7a68.385,68.385,0,0,0,10.079.81c.63,0,3.691-.27,4.321-.27,1.259,0,7.2,0,7.2,3.51,0,2.339-3.78,2.339-4.32,2.339-10.17,0-15.3-1.169-18.629-2.069-12.15-3.15-14.4-8.91-14.4-14.76,0-15.479,19.26-15.479,23.039-15.479a97.28,97.28,0,0,1,14.04,1.35c.81.18,5.13,1.08,5.31,1.08.45,0,.63-.18.63-.63,0-1.89-9-13.95-18.089-22.049-9.09,3.15-16.65,4.59-20.52,4.59-2.7,0-8.729-1.17-11.069-6.75,3.149,1.62,5.67,2.79,9.629,2.79,7.38,0,15.75-2.79,18.269-3.69-7.2-5.67-7.649-6.03-9.809-7.559-3.51-2.521-3.51-4.41-3.51-5.311a5.35,5.35,0,0,1,5.04-5.13,9.483,9.483,0,0,1,5.67,1.981c-2.79.36-3.061.36-3.6.719a2.3,2.3,0,0,0-.989,2.161c0,2.339,7.919,9.449,10.709,11.879a44.368,44.368,0,0,0,9-4.41c1.17-.719,1.17-1.44,1.17-1.8,0-1.531-1.26-2.43-3.33-3.6Z"/>
        <path id="パス_238" data-name="パス 238" d="M813.364,95.195c2.519,0,4.949-.63,14.848-3.329,13.411-3.6,40.229-9.271,41.4-9.271,1.44,0,6.39,1.62,6.39,4.231,0,2.16-2.25,2.339-3.42,2.339-.81,0-4.68-.27-5.4-.27-10.17,0-15.029,2.431-20.159,6.93-9.18,8.009-12.06,17.639-12.06,24.209,0,15.75,15.93,20.159,22.86,21.419,2.43.45,3.779.63,5.04,2.25a4.244,4.244,0,0,1,.989,2.43c0,1.44-1.26,1.71-2.25,1.71-9.269,0-30.328-6.84-30.328-26.909,0-15.48,11.52-24.659,20.969-32.129-5.4,1.53-12.06,3.15-18.089,4.59-11.43,2.79-14.58,4.68-19.079,7.29a4.972,4.972,0,0,1-2.611.9c-1.439,0-5.939-2.339-5.939-7.829a6.92,6.92,0,0,1,.63-2.969C809.944,94.565,810.393,95.195,813.364,95.195Zm51.117,6.03c6.03,3.779,6.75,6.029,6.75,8.1,0,.9-.18,2.79-1.89,2.79-.99,0-1.53-.9-2.16-1.981-2.969-5.489-8.639-10.26-11.069-11.879A19.894,19.894,0,0,1,864.481,101.225Zm17.19,4.319c0,2.16-1.17,2.431-1.621,2.431-.989,0-1.619-.99-2.519-2.25-3.06-4.41-7.38-7.56-11.7-10.71C871.771,95.915,881.671,99.695,881.671,105.544Z"/>
      </g>
    </g>
  </g>
</svg>
