<svg xmlns="http://www.w3.org/2000/svg" width="298.151" height="83.559" viewBox="0 0 298.151 83.559">
  <path id="パス_271" data-name="パス 271" d="M217.376,25.474c.094-3.384-3.666-8.178-9.024-8.648-17.672-1.692-36.566,24.158-45.684,35.72-17.108,21.526-26.7,39.01-32.712,36.848-2.444-.846-3.478-3.572-3.478-7.52,0-6.486,2.914-16.356,7.52-25.944A24.8,24.8,0,0,1,137.1,58c1.6,1.316,3.29,1.786,3.666,1.316s-.094-1.41-2.068-3.1a24.9,24.9,0,0,0-3.29-2.256c6.392-8.648,12.408-15.6,17.014-23.03,4.23-6.862,7.332-13.348,5.17-14.288-3.1-1.316-12.408,12.408-22.56,32.242-.564,1.128-1.128,2.35-1.88,3.666-7.9-4.512-23.594-9.87-42.676-9.87a102.328,102.328,0,0,0-22,2.444c-26.7,6.016-41.83,18.988-41.83,32.994a21.521,21.521,0,0,0,1.034,6.3c3.478,11.28,15.98,15.7,29.61,15.7a71.224,71.224,0,0,0,18.988-2.632c21.526-6.016,38.54-20.492,52.546-35.908-3.666,7.708-6.392,16.544-6.392,23.124,0,4.324,1.222,7.614,4.23,9.024a6.635,6.635,0,0,0,2.632.564c9.212,0,19.928-19.646,36.1-40.514,10.81-13.724,26.226-32.148,40.89-32.242,4.888-.094,8.178,2.35,9.024,4.324.282.846.846,1.222,1.316,1.222C217,26.978,217.376,26.508,217.376,25.474ZM131.93,54.708c-1.034,1.128-2.068,2.35-3.2,3.478-12.5,13.254-39.1,29.234-61.57,32.9a84.481,84.481,0,0,1-12.972,1.128c-13.63,0-21.056-4.512-23.312-10.81a13.053,13.053,0,0,1-.752-4.324c0-9.964,10.528-23.218,39.574-29.61a94.274,94.274,0,0,1,20.774-2.256C108.994,45.214,124.974,50.29,131.93,54.708Zm83,17.39c-.376-.376-1.316-.188-2.35,1.128A119.131,119.131,0,0,1,198.67,85.54c-3.008,2.162-9.212,6.11-14.664,6.11a8.064,8.064,0,0,1-4.888-1.41,6.08,6.08,0,0,1-2.538-5.358,14.814,14.814,0,0,1,1.034-5.076,43.216,43.216,0,0,0,15.322-6.862c5.828-4.136,15.134-13.536,11.656-16.074a5.645,5.645,0,0,0-3.478-.94c-5.922,0-15.792,5.076-23.218,12.69-5.64,5.828-9.024,12.408-9.024,17.578a8.308,8.308,0,0,0,3.948,7.52,10.515,10.515,0,0,0,5.922,1.5c7.52,0,16.92-5.17,21.338-8.272,5.452-3.948,12.408-10.058,14.382-12.408C215.308,73.508,215.4,72.474,214.932,72.1Zm-12.126-13.63c1.6,1.6-5.64,8.742-11.28,12.69a39.946,39.946,0,0,1-12.878,6.2,35.092,35.092,0,0,1,6.11-9.118C191.9,61.006,201.114,56.588,202.806,58.468Zm81.968,14.194a1.1,1.1,0,0,0-1.786.094,92.72,92.72,0,0,1-6.862,6.674c-2.538,2.162-5.922,4.794-9.494,4.794a6.466,6.466,0,0,1-3.384-.846,5.664,5.664,0,0,1-2.35-2.35c.846-.846,1.692-1.692,2.538-2.632,8.554-9.682,14.476-20.68,11.186-22-3.1-1.316-10.528,2.538-14.852,10.81a21.656,21.656,0,0,0-2.444,9.588,15.831,15.831,0,0,0,.47,3.76c-4.982,4.7-10.34,8.836-14.288,9.87-2.538.658-4.136,0-3.76-3.008.376-3.384,2.914-7.332,7.332-14.194,4.324-6.768,10.152-14.194,10.152-15.7,0-1.222-2.256-.564-3.008-.188s-6.768,9.4-11.374,15.416c-6.2,8.178-12.032,14.946-18.518,17.672-2.256,1.034-3.666.376-3.384-2.632.376-4.136,2.726-7.99,7.332-14.57S239,59.032,239,57.528c0-1.222-2.256-.564-3.008-.188s-9.212,9.776-13.16,14.57c-2.82,3.478-8.178,9.964-8.836,14.382-.376,2.82,0,7.144,4.888,7.8,3.854.564,10.058-2.914,13.818-6.016,0,2.538,1.128,5.64,5.076,6.2,4.23.564,12.314-3.1,21.056-11.28a6.84,6.84,0,0,0,3.008,2.632,10,10,0,0,0,4.23,1.034c3.76,0,7.144-2.256,9.776-4.23a67.251,67.251,0,0,0,8.742-8.084A1.32,1.32,0,0,0,284.774,72.662Zm-13.63-12.69c1.6,1.316-3.384,9.776-9.212,16.45-.564.564-1.128,1.222-1.786,1.88a18.348,18.348,0,0,1,2.068-9.87C266.35,60.63,270.016,59.032,271.144,59.972Zm53.11,14.288c1.41-1.41-.188-3.29-1.6-1.6A140.554,140.554,0,0,1,311.376,83c-2.256,1.786-5.452,4.136-7.708,5.546a13.7,13.7,0,0,0,1.88-3.478,15.28,15.28,0,0,0,.94-5.546c0-6.2-2.538-12.972-1.974-14.946a27.962,27.962,0,0,0,4.23-4.606c1.034-1.6,2.256-5.17.47-6.3-1.692-1.034-3.666.47-4.794,2.256a15.073,15.073,0,0,0-2.35,5.358,7.871,7.871,0,0,1-.846,2.632c-1.316,2.068-5.734,5.828-7.708,7.8-2.256,2.162-4.23,4.042-5.546,5.264-1.786-.282-4.136,1.41-5.264,4.606a11.12,11.12,0,0,0-.564,3.666c0,3.666,1.692,7.9,6.956,9.024a18.543,18.543,0,0,0,3.29.376A20.329,20.329,0,0,0,297.182,94c3.2-1.034,7.8-3.572,13.066-7.52A112.528,112.528,0,0,0,324.254,74.26Zm-22.56-4.418c0,4.042-.94,10.434-3.572,14.758-3.2,5.17-6.956,7.332-9.306,6.862a4.714,4.714,0,0,1-3.854-6.016,3.309,3.309,0,0,1,1.88-1.88,6.488,6.488,0,0,0,1.88-.846,3.616,3.616,0,0,0,1.034-4.23c1.786-1.692,4.136-3.854,5.264-4.982,1.974-1.88,6.392-6.11,6.392-6.11A15.381,15.381,0,0,1,301.694,69.842Z" transform="translate(-26.65 -16.551)" fill="#35829f"/>
</svg>
