<svg xmlns="http://www.w3.org/2000/svg" width="250.326" height="78.02" viewBox="0 0 250.326 78.02">
  <path id="パス_242" data-name="パス 242" d="M106.711,20.868a16.423,16.423,0,0,0-9.212-2.35c-9.87,0-22.184,5.452-29.234,9.776,2.256-5.452,3.2-8.648,3.2-9.306,0-1.222-.564-1.6-1.316-1.6-2.162,0-1.41,1.88-6.016,13.536C36.023,50.1,21.547,77.174,21.547,88.548c0,3.666,1.5,6.11,4.418,6.11,8.554,0,21.9-24.44,27.824-35.532,3.76-7.05,9.024-18.142,12.784-26.884,5.546-3.666,16.074-7.9,24.91-7.9,7.9,0,14.57,4.136,14.57,12.032,0,7.52-6.2,16.45-14.382,20.962a38.46,38.46,0,0,1-18.236,4.982c-6.862,0-11.186-2.35-11.186-5.17,0-4.042,6.016-6.956,11.468-6.956a17.1,17.1,0,0,1,7.332,1.6,3.69,3.69,0,0,0,1.316.282c.752,0,1.316-.188,1.316-.658,0-1.6-5.17-3.478-10.152-3.478-5.076,0-14.006,3.008-14.006,9.306,0,4.136,5.452,7.426,14.476,7.426a44.4,44.4,0,0,0,20.492-5.358c10.246-5.358,18.048-17.39,18.048-27.072A13.056,13.056,0,0,0,106.711,20.868ZM62.343,35.344A237.252,237.252,0,0,1,50.5,59.972C42.791,73.508,32.733,90.8,27.093,90.8c-1.692,0-2.444-1.5-2.444-3.666,0-3.29,1.786-8.46,5.076-14.476,9.306-16.92,20.586-27.636,30.926-36.1C61.215,36.19,61.779,35.72,62.343,35.344ZM149.105,73.79c1.034-1.222-.658-2.726-1.974-1.128-1.41,1.692-7.426,7.99-12.032,9.4a12.885,12.885,0,0,1-4.136.752,7.094,7.094,0,0,1-4.042-1.222,52.119,52.119,0,0,0,4.606-5.828c3.384-4.982,4.982-9.4,4.982-12.878,0-4.136-2.35-6.768-6.862-6.768-8.46,0-21.244,8.836-28.576,19.646-3.384,4.888-4.982,9.4-4.982,12.878,0,4.136,2.35,6.768,6.956,6.768,6.2,0,14.852-4.888,21.9-11.75a10.139,10.139,0,0,0,5.546,1.5,20.047,20.047,0,0,0,4.982-.752C141.491,82.814,147.977,75.106,149.105,73.79Zm-19.176-.846a4.911,4.911,0,0,0-2.914-.752,7.981,7.981,0,0,0-4.982,1.692,4.721,4.721,0,0,0-1.316,6.2,8.051,8.051,0,0,0,1.974,2.162c-5.358,5.452-11.28,9.212-15.322,9.212-2.632,0-3.854-1.6-3.854-4.23,0-3.008,1.6-7.332,4.888-12.22,6.11-9.024,15.6-16.356,21.15-16.356,2.632,0,3.948,1.6,3.948,4.23C133.5,65.424,132.279,69,129.929,72.944Zm50.76-31.866c-1.41,0-3.948,2.35-5.546,5.264-1.692,2.914-1.88,5.264-.47,5.264s3.948-2.35,5.546-5.264C181.911,43.428,182.1,41.078,180.689,41.078Zm2.35,33.088c1.692-1.974-.752-2.632-1.5-1.692-1.692,2.256-8.46,8.178-11.468,10.622-2.914,2.35-7.99,6.2-11.468,7.332-2.162.752-3.76.564-3.29-2.444.47-3.666,2.82-7.9,7.238-14.758,4.324-6.768,9.212-13.536,10.528-15.51.752-1.034-2.35-.658-3.008-.188A160.6,160.6,0,0,0,157.1,71.91c-2.726,3.478-7.9,10.152-8.836,14.382-.658,3.008,0,7.144,4.888,7.8,5.076.658,13.724-5.922,17.2-8.554C174.015,82.72,180.877,76.8,183.039,74.166Zm50.2-.094c1.5-1.692-.188-3.1-1.88-1.222a100.851,100.851,0,0,1-12.032,10.9c-4.512,3.572-8.742,6.486-11.75,6.862-1.88.282-2.444-.658-2.35-1.692.564-3.854,5.922-10.81,12.314-18.048,2.632-3.008,4.512-6.674,4.512-9.494A4.24,4.24,0,0,0,218.1,56.87c-5.546-1.034-13.066,4.418-15.7,6.486,2.538-3.572,3.948-5.64,3.948-6.11-.094-.564-3.76-.47-4.324,0-.94.752-5.264,6.58-12.6,16.544-8.178,11-12.972,17.484-13.254,19.082-.094.846,2.444,1.6,3.478,1.316.752-.094,14.1-19.082,14.1-19.082,3.572-4.794,9.212-9.306,13.912-12.5,4.136-2.726,8.46-4.888,10.434-3.1,2.444,2.256-3.948,8.93-12.69,16.168-4.136,3.478-8.178,7.8-7.8,12.6.282,3.854,3.76,5.64,7.05,5.734,4.512,0,10.434-4.418,17.2-9.494A80.629,80.629,0,0,0,233.235,74.072ZM271.775,36c.188-.282.094-.47-.188-.564a4.109,4.109,0,0,0-2.82.376c-1.786,1.316-7.99,8.836-14.664,17.39h-6.956c-1.6,0-2.82,1.034-2.726,1.786,0,.376.376.658,1.222.658h6.58c-1.692,2.162-3.29,4.418-4.888,6.486-8.46,11.186-13.066,17.108-14.758,24.158-.846,3.572,0,7.144,4.888,7.8,5.076.658,13.724-6.016,17.2-8.554,3.666-2.82,10.528-8.742,12.69-11.374.752-.752.752-1.41.47-1.786a1.454,1.454,0,0,0-1.974.094c-1.692,2.162-8.46,8.178-11.468,10.622-2.914,2.35-8.084,6.016-11.468,7.332-1.692.752-3.854.564-3.29-2.444.846-5.264,5.452-12.878,13.16-24.534,1.88-2.82,3.572-5.452,5.17-7.8H265.1c1.692,0,2.914-1.128,2.726-1.88-.094-.376-.47-.564-1.316-.564h-6.862C265.571,44.274,269.331,39.2,271.775,36Z" transform="translate(-21.547 -17.39)" fill="#fff"/>
</svg>
