<svg xmlns="http://www.w3.org/2000/svg" width="9.199" height="54.331" viewBox="0 0 9.199 54.331">
  <g id="グループ_10622" data-name="グループ 10622" transform="translate(-222.894 -385.229)" opacity="0.8">
    <path id="パス_158" data-name="パス 158" d="M222.894,388.851a4.009,4.009,0,0,1,.252-1.368,1.312,1.312,0,0,0,.108-.467,1.8,1.8,0,0,0-.36-.816l2.315-.971.216.456a3.67,3.67,0,0,0-2.111,3.082,1.825,1.825,0,0,0,1.919,1.882c1.487,0,1.835-1.39,2.1-2.482.312-1.247.755-2.591,2.506-2.591a2.356,2.356,0,0,1,1.632.612,2.617,2.617,0,0,1,.623,1.835,3.62,3.62,0,0,1-.168,1.127,1.033,1.033,0,0,0-.084.372,1.516,1.516,0,0,0,.24.744l-2.075.828-.18-.361A3.178,3.178,0,0,0,231.709,388a1.613,1.613,0,0,0-1.7-1.751c-1.223,0-1.547,1.1-1.859,2.3-.4,1.535-.863,2.89-2.734,2.89A2.387,2.387,0,0,1,222.894,388.851Z" fill="#707070"/>
    <path id="パス_159" data-name="パス 159" d="M225.437,401.437a3.846,3.846,0,0,1-2.543-3.563c0-2.794,2.351-3.706,4.522-3.706,3.382,0,4.677,2.087,4.677,3.851a2.787,2.787,0,0,1-.192,1.006,1.525,1.525,0,0,0-.131.552,1.481,1.481,0,0,0,.323.876l-2.183.863-.192-.444a3.579,3.579,0,0,0,1.955-2.914c0-2.219-2.242-2.938-3.969-2.938-2.435,0-4.222,1.3-4.222,3.238a3.282,3.282,0,0,0,2.171,2.831Z" fill="#707070"/>
    <path id="パス_160" data-name="パス 160" d="M223.122,409.609l4.306-2.447v-1.391h-3.047a.8.8,0,0,0-.875.852v.371h-.384v-3.2h.384v.36a.8.8,0,0,0,.875.852h6.225a.789.789,0,0,0,.875-.852v-.36h.4v3.694c0,1.44-.516,3.059-2.11,3.059a2.039,2.039,0,0,1-1.632-.816,3.533,3.533,0,0,1-.659-1.727l-3.143,1.8a1.4,1.4,0,0,0-.827,1.332v.18h-.384Zm8.359-2.039v-.947a.794.794,0,0,0-.875-.852h-2.783V407.5a1.883,1.883,0,0,0,1.847,2.111C230.93,409.609,231.481,408.7,231.481,407.57Z" fill="#707070"/>
    <path id="パス_161" data-name="パス 161" d="M222.894,417.565c0-1.966,1.523-3.874,4.606-3.874s4.593,1.908,4.593,3.874c0,1.931-1.487,3.862-4.593,3.862S222.894,419.5,222.894,417.565Zm8.815,0a2.8,2.8,0,0,0-.191-1.031,2.716,2.716,0,0,0-1.068-1.235,6.308,6.308,0,0,0-3.07-.684c-1.571,0-4.1.564-4.1,2.95A2.57,2.57,0,0,0,224.5,419.8a5.531,5.531,0,0,0,3,.708C229.215,420.5,231.709,419.952,231.709,417.565Z" fill="#707070"/>
    <path id="パス_162" data-name="パス 162" d="M223.122,429.72v-5.985h.384v.312a.8.8,0,0,0,.875.84h6.225a.785.785,0,0,0,.875-.84v-.312h.4v3.178h-.4v-.432a.784.784,0,0,0-.875-.838h-6.225a.8.8,0,0,0-.875.838v.636a3.423,3.423,0,0,0,.851,2.231,4.05,4.05,0,0,0,1.1.9l-.156.312Z" fill="#707070"/>
    <path id="パス_163" data-name="パス 163" d="M223.122,438.72v-5.985h.384v.312a.8.8,0,0,0,.875.84h6.225a.785.785,0,0,0,.875-.84v-.312h.4v3.178h-.4v-.432a.784.784,0,0,0-.875-.838h-6.225a.8.8,0,0,0-.875.838v.636a3.423,3.423,0,0,0,.851,2.231,4.05,4.05,0,0,0,1.1.9l-.156.312Z" fill="#707070"/>
  </g>
</svg>
