<svg xmlns="http://www.w3.org/2000/svg" width="270.531" height="78.772" viewBox="0 0 270.531 78.772">
  <path id="パス_269" data-name="パス 269" d="M183.959,25.474c0-4.324-4.7-8.742-11.186-8.742-22.09,0-41.454,32.9-62.6,54.52-5.734,5.922-25.286,20.68-32.618,20.68-2.444,0-3.478-1.88-3.478-3.76,0-4.136,4.136-10.622,8.836-16.168,11-12.784,26.978-23.03,26.978-40.608,0-8.93-6.11-14.758-21.056-14.758A56.257,56.257,0,0,0,57.341,26.79C45.779,34.874,40.327,44.932,40.327,53.956c0,10.152,6.11,16.262,15.134,16.262,8.084,0,17.2-4.042,22-7.708,11.75-9.024,14.382-17.39,14.382-20.492a.917.917,0,0,0-.94-1.034c-.564,0-1.316.376-1.692,1.786-1.6,5.264-4.324,11.562-13.066,18.142-4.136,3.2-13.348,7.332-20.774,7.332-5.452,0-10.622-2.538-10.622-9.306,0-9.964,12.032-24.722,24.628-31.96,8.742-5.076,17.2-7.52,23.97-7.52,8.836,0,14.194,4.418,14.194,11.28,0,5.358-2.914,11.468-6.768,16.638C91.369,59.784,66.083,72.1,66.083,87.232c0,4.136,2.538,7.8,8.366,7.8,10.434.094,27.354-11.844,37.13-21.62,20.586-20.4,41.548-51.888,61.288-51.888,7.708,0,9.212,5.546,10.34,5.546C183.583,26.978,183.959,26.508,183.959,25.474ZM181.8,73.79c1.034-1.222-.658-2.726-1.974-1.128-1.41,1.692-7.426,7.99-12.032,9.4a12.885,12.885,0,0,1-4.136.752,7.094,7.094,0,0,1-4.042-1.222,52.118,52.118,0,0,0,4.606-5.828c3.384-4.982,4.982-9.4,4.982-12.878,0-4.136-2.35-6.768-6.862-6.768-8.46,0-21.244,8.836-28.576,19.646-3.384,4.888-4.982,9.4-4.982,12.878,0,4.136,2.35,6.768,6.956,6.768,6.2,0,14.852-4.888,21.9-11.75a10.139,10.139,0,0,0,5.546,1.5,20.047,20.047,0,0,0,4.982-.752C174.183,82.814,180.669,75.106,181.8,73.79Zm-19.176-.846a4.911,4.911,0,0,0-2.914-.752,7.981,7.981,0,0,0-4.982,1.692,4.721,4.721,0,0,0-1.316,6.2,8.051,8.051,0,0,0,1.974,2.162c-5.358,5.452-11.28,9.212-15.322,9.212-2.632,0-3.854-1.6-3.854-4.23,0-3.008,1.6-7.332,4.888-12.22,6.11-9.024,15.6-16.356,21.15-16.356,2.632,0,3.948,1.6,3.948,4.23C166.193,65.424,164.971,69,162.621,72.944Zm50.76-31.866c-1.41,0-3.948,2.35-5.546,5.264-1.692,2.914-1.88,5.264-.47,5.264s3.948-2.35,5.546-5.264C214.6,43.428,214.791,41.078,213.381,41.078Zm2.35,33.088c1.692-1.974-.752-2.632-1.5-1.692-1.692,2.256-8.46,8.178-11.468,10.622-2.914,2.35-7.99,6.2-11.468,7.332-2.162.752-3.76.564-3.29-2.444.47-3.666,2.82-7.9,7.238-14.758,4.324-6.768,9.212-13.536,10.528-15.51.752-1.034-2.35-.658-3.008-.188A160.6,160.6,0,0,0,189.787,71.91c-2.726,3.478-7.9,10.152-8.836,14.382-.658,3.008,0,7.144,4.888,7.8,5.076.658,13.724-5.922,17.2-8.554C206.707,82.72,213.569,76.8,215.731,74.166Zm47-2.068a1.192,1.192,0,0,0-.564-.094c-1.41-.094-3.572,4.23-14.852,12.878-6.2,4.794-11.75,6.956-15.416,6.956-3.854,0-6.11-2.82-6.11-7.52,0-3.572,1.41-8.178,4.7-13.16,5.64-8.648,11.844-12.22,15.228-12.22,1.5,0,2.35.658,2.35,1.692,0,3.572-4.136,6.016-4.136,6.3,0,.47,1.88,2.256,3.666,2.35a1.213,1.213,0,0,0,1.034-.47c.376-.564,2.914-4.324,2.914-7.52,0-2.068-1.222-4.606-4.982-4.606-8.366,0-28.106,14.382-28.106,28.388,0,5.922,4.324,9.588,11.656,9.588,6.862,0,12.6-3.948,17.578-7.52,7.426-5.264,15.416-12.878,15.416-14.194A1.192,1.192,0,0,0,262.731,72.1Zm47.846,0c-.376-.376-1.316-.188-2.35,1.128A119.127,119.127,0,0,1,294.315,85.54c-3.008,2.162-9.212,6.11-14.664,6.11a8.064,8.064,0,0,1-4.888-1.41,6.08,6.08,0,0,1-2.538-5.358,14.815,14.815,0,0,1,1.034-5.076,43.217,43.217,0,0,0,15.322-6.862c5.828-4.136,15.134-13.536,11.656-16.074a5.646,5.646,0,0,0-3.478-.94c-5.922,0-15.792,5.076-23.218,12.69-5.64,5.828-9.024,12.408-9.024,17.578a8.308,8.308,0,0,0,3.948,7.52,10.515,10.515,0,0,0,5.922,1.5c7.52,0,16.92-5.17,21.338-8.272,5.452-3.948,12.408-10.058,14.382-12.408C310.953,73.508,311.047,72.474,310.577,72.1Zm-12.126-13.63c1.6,1.6-5.64,8.742-11.28,12.69a39.946,39.946,0,0,1-12.878,6.2,35.092,35.092,0,0,1,6.11-9.118C287.547,61.006,296.759,56.588,298.451,58.468Z" transform="translate(-40.327 -16.638)" fill="#35829f"/>
</svg>
