<svg xmlns="http://www.w3.org/2000/svg" width="317.233" height="79.148" viewBox="0 0 317.233 79.148">
  <path id="パス_243" data-name="パス 243" d="M140.954,21.526c-.846-1.222-1.88-2.35-2.35-2.35-.188,0-.282.188-.282.752,0,1.128.658,3.854.658,7.332a80.171,80.171,0,0,1-9.024,35.25C121.684,77.832,106.55,91.932,97.15,91.932c-6.016,0-8.178-5.358-8.178-11.938a48.1,48.1,0,0,1,1.316-10.528c11.28-11.562,21.15-26.6,21.15-32.524,0-1.88-1.128-2.632-2.82-2.632-8.46,0-16.826,17.108-20.586,34.4C83.238,73.6,62.37,92.026,53.91,92.026a3.544,3.544,0,0,1-3.666-3.854c0-4.136,4.136-10.622,8.836-16.168,10.9-12.69,26.978-23.688,26.978-40.044,0-8.93-5.828-15.7-20.962-15.7A55.905,55.905,0,0,0,33.512,26.79C22.044,34.968,16.5,45.026,16.5,54.05c0,10.058,6.11,16.168,15.134,16.168,8.084,0,17.2-4.042,22-7.708C65.378,53.486,68.01,45.12,68.01,42.018a.917.917,0,0,0-.94-1.034c-.564,0-1.316.376-1.692,1.786-1.6,5.264-4.324,11.562-13.066,18.142-4.136,3.2-13.348,7.332-20.774,7.332-5.546,0-10.716-2.632-10.716-9.306,0-9.964,12.126-24.722,24.722-31.96,8.836-5.076,17.578-7.8,24.534-7.8,8.93,0,13.536,4.888,13.536,11.75,0,5.17-2.538,11-6.674,16.45C67.54,59.69,42.16,72.192,42.16,87.232c0,4.042,2.538,7.8,8.272,7.8,11.656,0,30.832-16.262,36.754-22.56-.188,2.82-.376,5.452-.376,7.9,0,7.708,1.786,14.1,9.494,14.1,12.126,0,30.644-18.612,38.634-32.336,6.2-10.716,9.4-20.4,9.4-28.294A22.2,22.2,0,0,0,140.954,21.526ZM107.4,38.634a.99.99,0,0,1,.376.94c0,3.384-6.2,14.476-16.356,25.568,4.794-17.2,11.468-26.7,15.04-26.7A1.7,1.7,0,0,1,107.4,38.634ZM194.064,73.79c1.034-1.222-.658-2.726-1.974-1.128-1.41,1.692-7.426,7.99-12.032,9.4a12.885,12.885,0,0,1-4.136.752,7.094,7.094,0,0,1-4.042-1.222,52.118,52.118,0,0,0,4.606-5.828c3.384-4.982,4.982-9.4,4.982-12.878,0-4.136-2.35-6.768-6.862-6.768-8.46,0-21.244,8.836-28.576,19.646-3.384,4.888-4.982,9.4-4.982,12.878,0,4.136,2.35,6.768,6.956,6.768,6.2,0,14.852-4.888,21.9-11.75a10.139,10.139,0,0,0,5.546,1.5,20.047,20.047,0,0,0,4.982-.752C186.45,82.814,192.936,75.106,194.064,73.79Zm-19.176-.846a4.911,4.911,0,0,0-2.914-.752,7.981,7.981,0,0,0-4.982,1.692,4.721,4.721,0,0,0-1.316,6.2,8.051,8.051,0,0,0,1.974,2.162c-5.358,5.452-11.28,9.212-15.322,9.212-2.632,0-3.854-1.6-3.854-4.23,0-3.008,1.6-7.332,4.888-12.22,6.11-9.024,15.6-16.356,21.15-16.356,2.632,0,3.948,1.6,3.948,4.23C178.46,65.424,177.238,69,174.888,72.944Zm63.92,1.034c1.222-1.41-.752-2.726-2.162-1.128A97.846,97.846,0,0,1,224.99,83.378c-6.956,5.358-14.288,8.742-16.92,8.272a1.08,1.08,0,0,1-.846-.564c-.282-.94.094-3.008,1.88-5.076,5.64-6.862,15.04-14.288,15.6-19.74.376-4.324-4.042-5.264-6.11-6.392a5.8,5.8,0,0,1-2.068-1.786,6.693,6.693,0,0,0,1.692-3.008c.188-1.6-.188-3.1-2.256-3.1-1.222,0-2.632.94-3.2,3.1a3.5,3.5,0,0,0,.376,3.008c-.282,1.41-3.76,5.64-6.862,9.118-3.666,4.23-6.862,8.084-9.118,9.964-1.692,1.41-.282,3.1,1.974,1.222a96.26,96.26,0,0,0,8.46-8.93c2.444-2.82,7.426-9.024,7.426-9.024a7.122,7.122,0,0,0,2.068,1.5c2.256,1.222,4.7,1.786,5.17,3.948.282,1.88-1.974,4.042-4.512,5.828-3.76,2.82-6.674,3.854-11.75,7.9-3.666,2.914-7.332,7.05-6.392,11.28.564,2.444,3.29,3.666,7.614,3.478,5.64-.188,12.314-3.76,19.458-9.494A118.485,118.485,0,0,0,238.808,73.978Zm54.708.188c1.41-2.162-.47-2.726-2.068-1.034-2.256,2.632-5.546,5.452-10.622,9.682-5.264,4.418-11.092,7.708-14.476,7.9-2.632.094-2.35-1.5-1.316-3.666.658-1.6,2.914-4.418,1.6-7.332-.658-1.316-1.88-1.974-4.324-2.444a73.586,73.586,0,0,0,7.9-4.512c8.366-5.452,15.04-12.5,12.314-15.6a4.935,4.935,0,0,0-3.854-1.316c-3.854,0-9.4,2.068-14.006,4.7-4.982,2.914-7.99,6.11-10.81,8.366,6.2-8.648,9.4-13.16,10.34-14.57,4.606-2.068,10.058-5.546,16.732-12.314,5.64-5.734,12.878-16.45,12.878-21.9a2.968,2.968,0,0,0-1.316-2.82c-3.008-1.786-8.084,1.786-11.844,6.486C268.324,39.574,256.95,57.434,244.824,73.79c-8.084,11-12.972,17.484-13.16,19.082-.094.846,2.444,1.6,3.478,1.316.376,0,9.306-12.22,9.306-12.22,3.666-4.794,14.758-14.946,18.894-17.86,5.17-3.572,11.186-6.2,12.69-4.7,1.6,1.5-3.008,6.956-8.93,11.656a37.31,37.31,0,0,1-10.246,5.64,26.436,26.436,0,0,0-2.82.094c-1.128.094-3.008.282-3.29,1.692-.188,1.222.94,2.35,2.726,2.162a17.545,17.545,0,0,0,5.452-1.786c1.316.188,1.88.282,2.538,1.128,1.222,1.6-.376,3.76-2.82,6.2a5.063,5.063,0,0,0-1.128,3.2,4.707,4.707,0,0,0,2.726,4.418c6.3,3.008,21.056-8.648,22.372-9.682S292.106,76.422,293.516,74.166Zm-3.2-53.392c2.35,1.41-4.136,12.878-10.716,19.458-3.854,3.76-8.554,7.614-12.408,9.588,2.726-4.042,5.358-8.084,7.9-11.938C278.382,32.9,287.406,18.894,290.32,20.774ZM333.184,74.26c1.41-1.41-.188-3.29-1.6-1.6A140.554,140.554,0,0,1,320.306,83c-2.256,1.786-5.452,4.136-7.708,5.546a13.7,13.7,0,0,0,1.88-3.478,15.28,15.28,0,0,0,.94-5.546c0-6.2-2.538-12.972-1.974-14.946a27.962,27.962,0,0,0,4.23-4.606c1.034-1.6,2.256-5.17.47-6.3-1.692-1.034-3.666.47-4.794,2.256A15.073,15.073,0,0,0,311,61.288a7.871,7.871,0,0,1-.846,2.632c-1.316,2.068-5.734,5.828-7.708,7.8-2.256,2.162-4.23,4.042-5.546,5.264-1.786-.282-4.136,1.41-5.264,4.606a11.12,11.12,0,0,0-.564,3.666c0,3.666,1.692,7.9,6.956,9.024a18.543,18.543,0,0,0,3.29.376A20.329,20.329,0,0,0,306.112,94c3.2-1.034,7.8-3.572,13.066-7.52A112.528,112.528,0,0,0,333.184,74.26Zm-22.56-4.418c0,4.042-.94,10.434-3.572,14.758-3.2,5.17-6.956,7.332-9.306,6.862a4.714,4.714,0,0,1-3.854-6.016,3.309,3.309,0,0,1,1.88-1.88,6.488,6.488,0,0,0,1.88-.846,3.616,3.616,0,0,0,1.034-4.23c1.786-1.692,4.136-3.854,5.264-4.982,1.974-1.88,6.392-6.11,6.392-6.11A15.381,15.381,0,0,1,310.624,69.842Z" transform="translate(-16.498 -16.262)" fill="#35829f"/>
</svg>
